<?xml version="1.0" standalone="no"?><!DOCTYPE svg PUBLIC "-//W3C//DTD SVG 1.1//EN" "http://www.w3.org/Graphics/SVG/1.1/DTD/svg11.dtd" ><svg xmlns="http://www.w3.org/2000/svg"><metadata></metadata><defs><font id="方圆体 W7:Version 1.301" horiz-adv-x="1000"><font-face font-family="FangYuanTi" font-weight="400" font-stretch="normal" units-per-em="1000" panose-1="4 11 7 0 0 0 0 0 0 0" ascent="860" descent="-140" x-height="0" bbox="0 -140 973 859" underline-thickness="50" underline-position="-100" unicode-range="U+0020-ff1a" /><missing-glyph horiz-adv-x="1000"  /><glyph glyph-name="" unicode="!" d="M293 602 q0 -15 -10 -72 l-64 -336 l-90 12 l46 385 q9 73 63 73 q55 0 55 -62 ZM247 0 q-127 36 -168 49 q-39 12 -39 39 q0 46 41 46 q14 0 190 -50 l-24 -84 Z" /><glyph glyph-name="" unicode="&quot;" d="M272 517 q-3 -72 -54 -72 q-40 0 -40 66 q0 51 3 93 q3 60 50 60 q41 0 41 -67 l0 -80 ZM144 517 q-3 -72 -53 -72 q-41 0 -41 66 q0 51 3 93 q3 60 51 60 q40 0 40 -67 l0 -80 Z" /><glyph glyph-name="" unicode="#" d="M731 462 q0 -19 -15 -34 q-16 -15 -40 -15 l-108 0 l-29 -158 l107 0 q24 0 39 -15 q15 -16 15 -37 q0 -19 -15 -33 q-15 -15 -39 -15 l-124 0 l-28 -154 l-104 0 l28 154 l-177 0 l-27 -154 l-104 0 l28 154 l-117 0 l0 100 l136 0 l29 158 l-134 0 l0 101 l152 0 l20 110 q6 40 53 40 q47 0 47 -46 l-18 -104 l178 0 l20 110 q6 40 53 40 q47 0 47 -46 l-18 -104 l90 0 q24 0 40 -16 q15 -16 15 -36 ZM465 413 l-177 0 l-29 -158 l177 0 l29 158 Z" /><glyph glyph-name="" unicode="$" d="M679 182 q0 -85 -72 -132 q-66 -43 -172 -46 l0 -73 l-88 0 l0 80 q-159 25 -274 125 q12 21 50 81 q111 -80 224 -106 l0 186 q-118 19 -169 48 q-74 41 -74 123 q0 166 243 193 l0 37 q0 20 13 32 q13 11 31 11 q44 0 44 -43 l0 -38 q238 -23 238 -112 q0 -18 -15 -32 q-16 -13 -40 -13 q-4 0 -44 20 q-52 25 -139 37 l0 -175 q116 -23 173 -64 q71 -51 71 -139 ZM347 560 q-66 -11 -102 -31 q-42 -24 -42 -51 q0 -55 144 -81 l0 163 ZM579 185 q0 68 -144 98 l0 -179 q144 11 144 81 Z" /><glyph glyph-name="" unicode="%" d="M808 183 q0 -79 -50 -131 q-51 -52 -129 -52 q-73 0 -122 40 q-50 38 -50 106 q0 86 51 134 q51 48 138 48 q63 0 112 -42 q50 -44 50 -103 ZM772 613 q0 -21 -16 -37 l-618 -576 l-72 71 l619 577 q18 16 36 16 q19 0 35 -16 q16 -16 16 -35 ZM381 518 q0 -79 -50 -131 q-51 -52 -129 -52 q-72 0 -120 39 q-52 40 -52 107 q0 86 51 135 q51 48 138 48 q62 0 113 -43 q49 -44 49 -103 ZM733 173 q0 45 -36 67 q-30 18 -66 18 q-46 0 -73 -30 q-26 -29 -26 -75 q0 -45 37 -66 q26 -17 64 -17 q45 0 73 30 q27 30 27 73 ZM306 509 q0 43 -36 67 q-29 17 -66 17 q-45 0 -72 -29 q-27 -30 -27 -76 q0 -46 38 -66 q26 -16 64 -16 q45 0 72 30 q27 29 27 73 Z" /><glyph glyph-name="" unicode="&amp;" d="M613 -14 q-38 23 -119 81 q-104 -67 -226 -67 q-96 0 -159 36 q-79 45 -79 135 q0 100 127 187 q-60 90 -60 155 q0 70 67 112 q60 39 147 39 q59 0 121 -37 q69 -45 69 -111 q0 -52 -56 -96 q-39 -31 -147 -84 l189 -150 q41 50 67 94 q14 24 42 24 q19 0 37 -12 q17 -12 17 -30 q0 -9 -7 -23 q-32 -55 -77 -109 q75 -53 110 -75 l-63 -69 ZM400 516 q0 28 -30 46 q-26 14 -59 14 q-38 0 -71 -13 q-43 -18 -43 -50 q0 -40 45 -109 l93 45 q65 36 65 67 ZM212 289 q-82 -60 -82 -118 q0 -83 138 -83 q68 0 146 36 l-202 165 Z" /><glyph glyph-name="" unicode="&#39;" d="M224 557 q0 -58 -24 -111 l-69 10 l27 91 q-18 -17 -61 -17 q-57 0 -57 60 q0 34 24 56 q24 21 60 21 q100 0 100 -110 Z" /><glyph glyph-name="" unicode="(" d="M291 -68 q0 -13 -13 -24 q-17 -10 -31 -10 q-33 0 -67 28 q-73 61 -109 185 q-29 96 -29 215 q0 120 29 221 q36 129 109 191 q34 28 67 28 q14 0 31 -10 q13 -11 13 -24 q0 -17 -13 -32 l-27 -27 q-108 -120 -108 -345 q0 -218 108 -337 l26 -25 q14 -16 14 -34 Z" /><glyph glyph-name="" unicode=")" d="M291 326 q0 -114 -29 -215 q-35 -122 -109 -185 q-34 -28 -67 -28 q-17 0 -30 10 q-14 10 -14 24 q0 20 14 34 q8 9 26 25 q108 119 108 337 q0 225 -108 345 q-15 14 -26 27 q-14 13 -14 32 q0 14 14 24 q13 10 30 10 q33 0 67 -28 q71 -61 109 -191 q29 -107 29 -221 Z" /><glyph glyph-name="" unicode="*" d="M437 377 l-44 -76 l-113 73 l10 -134 l-86 0 l-6 136 l-135 -71 l-38 75 l117 63 l-81 43 q-33 18 -33 41 q0 44 44 44 q20 0 118 -52 q-6 66 -6 75 q0 35 7 49 q9 21 37 21 q40 0 43 -51 l4 -96 l63 37 q26 15 42 15 q44 0 44 -45 q0 -18 -23 -35 q-5 -4 -82 -46 l118 -66 Z" /><glyph glyph-name="" unicode="+" d="M510 253 q0 -61 -70 -61 l-109 -5 q9 -112 9 -178 l-113 0 q0 63 -9 174 q-55 -1 -188 -8 l0 111 q65 9 181 15 q-3 53 -9 94 q-5 30 -5 47 q0 28 15 46 q16 16 39 16 q53 0 59 -51 q5 -27 15 -147 l86 3 q47 0 65 -6 q34 -12 34 -50 Z" /><glyph glyph-name="" unicode="," d="M224 27 q0 -57 -24 -111 l-69 10 l27 91 q-18 -17 -61 -17 q-57 0 -57 60 q0 34 24 56 q24 21 60 21 q100 0 100 -110 Z" /><glyph glyph-name="" unicode="-" d="M291 189 l-250 0 l0 110 l250 0 l0 -110 Z" /><glyph glyph-name="" unicode="." d="M222 86 q0 -86 -94 -86 q-37 0 -61 25 q-26 23 -26 61 q0 40 24 65 q23 25 63 25 q94 0 94 -90 Z" /><glyph glyph-name="" unicode="/" d="M264 711 q0 -6 -19 -98 l-140 -649 l-91 31 l145 712 q12 57 52 57 q22 0 38 -16 q15 -15 15 -37 Z" /><glyph glyph-name="" unicode="0" d="M731 368 q0 -158 -101 -264 q-101 -104 -260 -104 q-146 0 -242 77 q-107 82 -107 220 q0 172 104 269 q104 98 277 98 q127 0 226 -84 q103 -89 103 -212 ZM623 360 q0 100 -85 153 q-71 43 -165 43 q-112 0 -178 -71 q-66 -72 -66 -185 q0 -101 87 -152 q65 -40 163 -40 q110 0 177 72 q67 73 67 180 Z" /><glyph glyph-name="" unicode="1" d="M439 9 l-111 0 q-6 174 -15 582 q-3 73 55 73 q47 0 53 -50 l18 -605 Z" /><glyph glyph-name="" unicode="2" d="M697 128 q0 -27 -17 -39 q-66 -52 -143 -72 q-63 -16 -165 -16 q-75 0 -128 21 q-75 30 -75 96 q0 57 63 109 q47 37 137 82 q110 56 114 59 q81 48 81 86 q0 46 -55 77 q-47 25 -96 25 q-102 0 -165 -30 q-62 -29 -98 -96 l-95 45 q89 188 333 188 q118 0 195 -46 q88 -56 88 -164 q0 -62 -60 -119 q-46 -45 -132 -89 q-86 -44 -129 -65 q-58 -31 -58 -47 q0 -24 102 -24 q126 0 196 47 q40 26 54 26 q24 0 39 -17 q14 -19 14 -37 Z" /><glyph glyph-name="" unicode="3" d="M675 220 q0 -101 -65 -160 q-66 -60 -174 -60 q-81 0 -81 51 q0 22 13 39 q14 16 31 16 q169 0 169 100 q0 80 -133 80 q-38 0 -124 -19 q-78 -18 -84 -18 q-21 0 -39 15 q-18 15 -18 32 q0 46 36 56 q32 8 119 36 q163 56 163 112 q0 57 -113 57 q-98 0 -249 -67 l-49 90 q60 36 144 60 q83 24 150 24 q225 0 225 -164 q0 -39 -19 -68 q-19 -30 -72 -66 q85 -11 130 -51 q40 -40 40 -95 Z" /><glyph glyph-name="" unicode="4" d="M731 194 q-78 -47 -186 -73 l-1 -58 q-1 -30 -1 -54 l-105 0 l-1 95 q-39 -7 -93 -7 q-323 0 -323 193 q0 99 69 207 q63 98 155 159 q13 8 21 8 q21 0 40 -14 q16 -16 16 -36 q0 -31 -9 -37 q-58 -38 -116 -114 q-71 -93 -71 -170 q0 -48 73 -70 q54 -18 119 -18 q55 0 124 12 q17 204 52 401 q8 46 52 46 q48 0 48 -46 l-22 -166 q-22 -165 -22 -220 q71 18 145 60 l36 -98 Z" /><glyph glyph-name="" unicode="5" d="M712 210 q0 -210 -326 -210 l-17 103 q97 3 148 18 q89 26 89 89 q0 52 -71 84 q-62 25 -129 25 q-96 0 -182 -40 q-26 -13 -53 -25 q-30 -13 -57 -13 q-51 0 -66 76 q-8 32 -8 115 q0 51 14 96 q8 23 36 89 q21 47 58 47 q23 0 51 -33 q39 0 111 3 q94 4 105 4 q15 0 123 -4 q81 -3 122 -3 q18 0 36 -16 q16 -18 16 -35 q0 -24 -16 -40 q-17 -16 -41 -16 q-32 0 -97 4 q-73 3 -118 3 l-134 -4 q-96 -5 -139 -2 q-19 -58 -19 -97 q0 -24 13 -69 q108 67 245 67 q128 0 209 -48 q97 -58 97 -168 Z" /><glyph glyph-name="" unicode="6" d="M723 263 q0 -131 -96 -200 q-85 -63 -221 -63 q-162 0 -256 53 q-121 66 -121 207 q0 106 52 203 q52 94 140 156 q63 45 92 45 q21 0 37 -16 q16 -18 16 -40 q0 -25 -17 -34 q-138 -84 -186 -177 q111 64 271 64 q121 0 197 -41 q92 -51 92 -157 ZM619 262 q0 47 -67 73 q-54 19 -115 19 q-73 0 -151 -21 q-100 -27 -146 -75 q1 -151 279 -151 q70 0 127 33 q73 43 73 122 Z" /><glyph glyph-name="" unicode="7" d="M727 478 q0 -76 -115 -235 q-90 -124 -179 -210 q-34 -33 -51 -33 q-29 0 -46 16 q-17 14 -17 38 q0 20 21 41 q160 157 256 316 q26 43 26 71 q0 32 -116 56 q-97 19 -151 19 q-121 0 -312 -50 l-18 104 q65 23 159 37 q104 16 173 16 q136 0 228 -29 q142 -47 142 -157 Z" /><glyph glyph-name="" unicode="8" d="M720 205 q0 -107 -107 -161 q-85 -44 -210 -44 q-134 0 -229 34 q-142 49 -142 159 q0 87 86 149 q-68 58 -68 130 q0 105 111 154 q85 38 213 38 q129 0 214 -36 q115 -48 115 -150 q0 -66 -66 -137 q83 -60 83 -136 ZM596 476 q0 35 -88 61 q-73 19 -123 19 q-74 0 -139 -18 q-88 -24 -88 -69 q0 -45 90 -75 q71 -25 132 -25 q76 0 136 21 q80 27 80 86 ZM612 205 q0 33 -65 78 q-67 -19 -159 -19 q-99 0 -176 26 q-74 -31 -74 -82 q0 -44 105 -76 q82 -25 148 -25 q69 0 135 23 q86 29 86 75 Z" /><glyph glyph-name="" unicode="9" d="M732 507 q0 -24 -18 -41 q-17 -16 -36 -16 q-24 0 -44 24 q-45 53 -115 71 q-46 12 -130 12 q-85 0 -170 -47 q-93 -52 -93 -120 q0 -65 77 -95 q55 -23 133 -23 q55 0 117 17 q94 24 161 78 q19 34 56 34 q12 0 30 -16 q15 -16 15 -38 q0 -39 -22 -165 q-17 -84 -33 -173 l-109 0 q14 83 42 227 q-129 -71 -274 -71 q-125 0 -206 54 q-93 62 -93 175 q0 126 133 204 q114 66 258 66 q169 0 259 -75 q62 -53 62 -82 Z" /><glyph glyph-name="" unicode=":" d="M223 407 q0 -87 -95 -87 q-37 0 -62 26 q-25 24 -25 61 q0 41 23 65 q24 24 64 24 q95 0 95 -89 ZM223 86 q0 -86 -95 -86 q-37 0 -62 25 q-25 24 -25 61 q0 40 24 65 q25 25 63 25 q95 0 95 -90 Z" /><glyph glyph-name="" unicode=";" d="M223 407 q0 -87 -95 -87 q-37 0 -62 25 q-25 24 -25 62 q0 39 24 64 q25 25 63 25 q95 0 95 -89 ZM224 66 q0 -58 -24 -112 l-69 10 l27 92 q-21 -18 -61 -18 q-57 0 -57 61 q0 34 24 55 q25 22 60 22 q100 0 100 -110 Z" /><glyph glyph-name="" unicode="&lt;" d="M486 59 q0 -59 -61 -59 q-25 0 -60 19 q-101 52 -161 92 q-19 12 -104 78 q-46 34 -46 68 q0 34 46 70 q75 57 104 78 q49 33 161 92 q38 19 60 19 q61 0 61 -59 q0 -18 -24 -30 q-85 -47 -238 -136 q-27 -18 -27 -35 q0 -14 27 -31 q73 -48 238 -136 q24 -13 24 -30 Z" /><glyph glyph-name="" unicode="=" d="M481 355 q0 -23 -18 -40 q-17 -17 -54 -17 q-200 0 -350 -15 l0 101 q121 22 319 22 q45 0 66 -6 q37 -11 37 -45 ZM481 165 q0 -23 -17 -38 q-19 -18 -55 -18 q-179 0 -350 -16 l0 101 q132 22 319 22 q45 0 66 -6 q37 -11 37 -45 Z" /><glyph glyph-name="" unicode="&gt;" d="M486 257 q0 -33 -46 -68 q-83 -63 -104 -78 q-67 -44 -161 -92 q-37 -19 -60 -19 q-61 0 -61 59 q0 17 24 30 q69 37 238 136 q27 17 27 31 q0 17 -27 35 q-68 43 -238 136 q-24 12 -24 30 q0 59 61 59 q20 0 60 -19 q105 -56 161 -92 l104 -78 q46 -37 46 -70 Z" /><glyph glyph-name="" unicode="?" d="M601 459 q0 -121 -146 -240 q-56 -46 -92 -46 q-44 0 -44 38 q0 31 34 55 q66 47 97 80 q50 55 50 110 q0 56 -61 86 q-49 23 -111 23 q-55 0 -110 -19 q-70 -27 -70 -72 q0 -32 25 -73 q25 -45 25 -51 q0 -43 -51 -43 q-41 0 -71 61 q-26 49 -26 98 q0 101 87 155 q72 43 180 43 q109 0 189 -47 q95 -57 95 -158 ZM412 -2 l-159 47 q-39 12 -39 40 q0 47 43 47 q13 0 180 -47 l-25 -87 Z" /><glyph glyph-name="" unicode="@" d="M795 104 q0 -24 -25 -38 q-120 -66 -342 -66 q-172 0 -282 86 q-116 88 -116 234 q0 133 110 234 q119 110 294 110 q150 0 250 -67 q110 -75 110 -214 q0 -73 -43 -142 q-49 -80 -124 -80 q-53 0 -95 49 q-80 -56 -152 -56 q-86 0 -130 44 q-46 42 -46 117 q0 88 62 147 q61 61 160 61 q163 0 163 -66 q0 -46 -56 -46 q-16 0 -45 11 q-37 10 -62 10 q-45 0 -77 -27 q-38 -32 -38 -90 q0 -69 69 -69 q34 0 72 26 q42 27 57 66 q12 33 48 33 q21 0 39 -12 q18 -12 18 -33 q0 -13 -20 -48 q21 -18 36 -18 q24 0 42 44 q16 42 16 79 q0 91 -68 141 q-67 48 -186 48 q-129 0 -216 -81 q-81 -75 -81 -171 q0 -104 80 -166 q78 -62 211 -62 q192 0 284 52 q14 7 31 7 q18 0 35 -14 q17 -15 17 -33 Z" /><glyph glyph-name="" unicode="A" d="M631 9 q-4 304 -104 464 q-27 42 -48 60 q-33 25 -75 25 q-55 0 -120 -90 q-55 -77 -88 -174 l181 -29 q50 -9 50 -61 q0 -16 -16 -32 q-14 -14 -35 -14 q-39 0 -213 33 q-18 -61 -39 -182 l-104 0 q19 166 71 312 q60 173 152 268 q72 75 157 75 q95 0 164 -66 q92 -88 138 -270 q35 -140 38 -319 l-109 0 Z" /><glyph glyph-name="" unicode="B" d="M708 195 q0 -94 -80 -148 q-70 -47 -171 -47 q-155 0 -244 51 l37 95 q95 -39 211 -39 q49 0 90 22 q50 26 50 67 q0 44 -43 69 q-38 19 -86 19 q-19 0 -34 16 q-15 15 -15 36 q0 25 16 41 q16 16 38 16 q106 0 106 77 q0 43 -56 69 q-47 19 -97 19 q-120 0 -260 -78 q-22 -120 -22 -292 q0 -81 10 -178 l-109 0 q-9 69 -9 192 q0 238 54 424 q11 38 54 38 q21 0 34 -16 q5 -6 19 -36 q95 52 222 52 q111 0 183 -45 q84 -54 84 -155 q0 -67 -52 -128 q70 -61 70 -141 Z" /><glyph glyph-name="" unicode="C" d="M686 127 q0 -23 -33 -49 q-99 -78 -250 -78 q-152 0 -256 77 q-117 84 -117 224 q0 160 107 261 q107 102 266 102 q146 0 237 -75 q35 -30 35 -52 q0 -21 -19 -38 q-17 -17 -35 -17 q-15 0 -35 17 q-47 37 -89 49 q-33 9 -98 9 q-112 0 -187 -77 q-77 -76 -77 -185 q0 -94 105 -148 q76 -41 157 -41 q121 0 207 67 q11 7 36 7 q16 0 32 -16 q14 -19 14 -37 Z" /><glyph glyph-name="" unicode="D" d="M732 329 q0 -166 -96 -250 q-89 -79 -251 -79 q-83 0 -158 27 l24 101 q90 -21 171 -21 q91 0 144 56 q57 60 57 171 q0 110 -58 168 q-59 56 -164 56 q-36 0 -125 -24 q-88 -23 -123 -41 q-6 -81 -6 -163 q0 -111 16 -320 l-106 0 q-17 153 -17 292 q0 215 23 321 q9 41 59 41 q30 0 51 -57 q131 57 246 57 q147 0 232 -96 q81 -91 81 -239 Z" /><glyph glyph-name="" unicode="E" d="M715 77 q-80 -52 -177 -67 q-56 -10 -183 -10 q-170 0 -238 53 q-77 58 -77 212 q0 127 51 280 l-49 -1 l0 106 q47 0 152 3 l149 2 q49 0 152 -3 q68 -2 152 -2 q18 0 33 -15 q15 -15 15 -34 q0 -29 -15 -44 q-16 -15 -37 -15 q-40 0 -101 4 q-70 3 -101 3 q-52 0 -247 -3 l-29 -140 q57 -5 171 -13 q123 -10 165 -10 q19 0 35 -14 q15 -15 15 -37 q0 -25 -15 -40 q-15 -15 -37 -15 q-128 0 -350 21 q0 -113 61 -156 q48 -36 158 -36 q95 0 155 12 q62 12 147 49 l45 -90 Z" /><glyph glyph-name="" unicode="F" d="M752 592 q0 -54 -54 -54 l-232 8 q-58 0 -192 -4 l-33 -1 q-13 -113 -13 -207 q142 -13 195 -13 q23 0 69 3 q62 4 70 4 q22 0 37 -15 q15 -15 15 -40 q0 -35 -26 -47 q-26 -13 -125 -13 q-127 0 -232 19 q0 -169 4 -222 l-104 -1 q-11 133 -11 327 q0 92 12 203 l-90 -2 l-2 108 l292 7 q98 3 79 3 q158 0 301 -13 q16 -3 28 -18 q12 -15 12 -32 Z" /><glyph glyph-name="" unicode="G" d="M701 528 q0 -20 -17 -34 q-15 -14 -42 -14 q-12 0 -23 8 q-34 23 -91 54 q-40 16 -110 16 q-118 0 -199 -70 q-83 -73 -83 -192 q0 -93 71 -143 q61 -46 150 -46 q56 0 100 22 q42 20 47 20 q20 0 38 -15 q16 -18 16 -39 q0 -53 -82 -77 q-57 -18 -121 -18 q-136 0 -228 79 q-97 82 -97 213 q0 161 110 267 q107 105 264 105 q81 0 140 -17 q53 -17 123 -61 q34 -23 34 -58 ZM709 41 q0 -15 -15 -27 q-14 -13 -38 -13 q-21 0 -36 15 q-16 15 -16 29 l0 134 q0 42 -20 62 q-22 19 -78 19 q-66 0 -180 -24 l-17 106 q101 23 199 23 q106 0 148 -27 q53 -36 53 -133 l0 -164 Z" /><glyph glyph-name="" unicode="H" d="M725 9 l-111 0 l3 231 q0 67 -9 203 q-10 134 -10 160 q0 61 48 61 q52 0 58 -45 q6 -65 16 -228 q6 -135 6 -185 l-1 -197 ZM563 318 q0 -23 -17 -38 q-17 -16 -38 -16 q-30 0 -114 3 q-84 3 -102 3 q-30 0 -145 -10 l0 -251 l-107 0 l0 359 q0 111 15 246 q0 15 20 33 q19 17 37 17 q20 0 36 -16 q15 -18 15 -40 q0 8 -7 -104 q-8 -87 -8 -135 q30 0 94 3 q65 3 81 3 l193 -3 q13 0 31 -16 q16 -19 16 -38 Z" /><glyph glyph-name="" unicode="I" d="M353 66 q0 -18 -12 -30 q-11 -13 -28 -16 q-61 -12 -129 -12 q-86 0 -144 16 l0 104 q33 -11 102 -11 q-6 185 -6 224 q0 88 5 209 q-5 -2 -84 -8 l-2 104 q71 9 133 9 q68 0 104 -2 q48 -4 48 -53 q0 -52 -56 -52 q-4 0 -38 7 q-3 -102 -3 -226 q0 -150 4 -209 q8 0 27 4 q20 3 28 3 q24 0 39 -20 q12 -18 12 -41 Z" /><glyph glyph-name="" unicode="J" d="M737 590 q0 -23 -15 -38 q-15 -16 -34 -16 q-28 0 -138 12 q31 -143 31 -240 q0 -158 -66 -230 q-69 -78 -225 -78 q-148 0 -275 133 q10 13 67 81 q105 -108 212 -108 q108 0 148 56 q31 47 31 149 q0 136 -36 235 q-98 0 -140 -2 l-279 -17 l0 105 q167 23 406 23 q70 0 185 -7 l87 -8 q16 0 28 -14 q13 -16 13 -36 Z" /><glyph glyph-name="" unicode="K" d="M658 60 q0 -28 -16 -44 q-17 -16 -35 -16 q-15 0 -56 15 q-28 9 -57 21 q-208 71 -347 177 l12 -204 l-109 0 q-10 84 -10 239 q0 248 32 370 q12 46 58 46 q50 0 50 -53 q0 -5 -16 -98 q-3 -13 -10 -51 q-5 -24 -5 -77 q48 54 157 133 q108 77 205 127 q35 18 55 18 q23 0 38 -15 q14 -16 14 -37 q0 -30 -16 -40 q-139 -81 -172 -102 q-98 -63 -159 -121 q-32 -29 -32 -51 q0 -24 47 -50 q149 -87 341 -145 q9 -3 21 -16 q10 -15 10 -26 Z" /><glyph glyph-name="" unicode="L" d="M695 84 q-150 -84 -370 -84 q-285 0 -285 308 q0 79 15 166 q15 100 45 160 q14 30 43 30 q55 0 55 -52 q0 -16 -25 -107 q-27 -94 -27 -208 q0 -190 191 -190 q99 0 172 19 q57 13 154 56 l32 -98 Z" /><glyph glyph-name="" unicode="M" d="M701 345 q0 -114 -18 -315 l-105 0 q17 185 17 288 q0 37 -3 86 l-3 51 q0 46 -38 46 q-14 0 -83 -74 q-68 -74 -106 -74 q-35 0 -103 65 q-70 64 -81 64 q-31 0 -31 -72 q0 -195 21 -401 l-105 0 q-29 165 -21 431 q6 224 94 224 q31 0 223 -195 q77 80 107 106 q80 71 123 71 q76 0 101 -120 q11 -60 11 -181 Z" /><glyph glyph-name="" unicode="N" d="M689 203 q-10 -194 -124 -194 q-150 0 -336 389 l-17 44 q-15 34 -26 34 q-11 0 -22 -30 q-11 -29 -11 -61 l-2 -79 q-2 -39 -2 -92 q0 -100 13 -204 l-109 0 q-13 107 -13 263 q0 122 19 214 q30 159 107 159 q61 0 136 -134 l91 -185 q94 -176 146 -176 q15 0 27 47 q12 45 12 109 q0 70 -26 182 q-25 103 -25 119 q0 56 39 56 q25 0 37 -6 q15 -7 25 -31 q22 -52 44 -169 q18 -106 18 -175 l-1 -80 Z" /><glyph glyph-name="" unicode="O" d="M688 337 q0 -149 -89 -243 q-90 -94 -233 -94 q-151 0 -243 92 q-93 93 -93 242 q0 145 94 238 q94 92 235 92 q143 0 237 -92 q92 -94 92 -235 ZM582 338 q0 94 -62 158 q-62 64 -149 64 q-94 0 -161 -56 q-74 -64 -74 -172 q0 -109 71 -170 q62 -55 155 -55 q98 0 159 64 q61 64 61 167 Z" /><glyph glyph-name="" unicode="P" d="M700 391 q0 -309 -316 -309 q-80 0 -166 41 l23 98 q81 -32 156 -32 q110 0 156 60 q37 49 37 144 q0 100 -61 137 q-46 27 -162 27 q-42 0 -113 -23 q-71 -25 -103 -48 l-2 -131 q-2 -56 -2 -122 q0 -99 14 -224 l-109 0 q-12 152 -12 364 q0 132 35 247 q12 44 52 44 q26 0 63 -45 q30 20 102 33 q63 12 116 12 q132 0 211 -70 q81 -72 81 -203 Z" /><glyph glyph-name="" unicode="Q" d="M734 95 l-60 -83 q-19 10 -103 59 q-92 -71 -206 -71 q-150 0 -242 92 q-93 93 -93 242 q0 145 93 238 q94 92 234 92 q141 0 235 -92 q93 -93 93 -234 q0 -91 -44 -182 l93 -61 ZM579 339 q0 93 -61 159 q-61 63 -149 63 q-93 0 -160 -56 q-73 -64 -73 -172 q0 -109 71 -170 q62 -56 154 -56 q42 0 108 23 q-32 18 -96 58 q-20 11 -20 42 q0 20 16 37 q15 17 34 17 q21 0 145 -72 q31 71 31 127 Z" /><glyph glyph-name="" unicode="R" d="M706 405 q0 -111 -98 -212 q62 -76 88 -134 l-94 -47 q-56 99 -85 143 q-56 -14 -116 -14 q-95 0 -183 46 q18 60 32 101 q83 -40 148 -40 q201 0 201 157 q0 153 -167 153 q-155 0 -268 -48 q-19 -76 -19 -162 q0 -148 23 -339 l-107 0 q-21 155 -21 310 q0 149 34 300 q9 45 50 45 q21 0 34 -13 q9 -10 20 -33 q94 46 258 46 q125 0 198 -68 q72 -67 72 -191 Z" /><glyph glyph-name="" unicode="S" d="M638 181 q0 -90 -77 -138 q-67 -43 -166 -43 q-212 0 -365 135 l54 87 q90 -64 152 -88 q69 -27 157 -27 q46 0 88 18 q50 23 50 59 q0 51 -70 77 q-32 9 -161 33 q-112 18 -163 48 q-75 42 -75 125 q0 99 91 153 q76 44 188 44 q103 0 175 -18 q116 -30 116 -99 q0 -20 -17 -35 q-17 -14 -42 -14 q-6 0 -30 12 q-21 9 -33 16 q-72 30 -176 30 q-47 0 -104 -22 q-62 -27 -62 -58 q0 -40 71 -59 q92 -19 161 -32 q108 -23 163 -59 q75 -51 75 -145 Z" /><glyph glyph-name="" unicode="T" d="M703 583 q0 -20 -16 -36 q-16 -15 -41 -15 q-9 0 -94 8 q-99 9 -174 9 q-3 -175 -3 -283 q0 -127 13 -257 l-110 0 q-11 111 -11 253 q0 207 1 284 q-132 0 -253 -14 l0 106 q124 17 264 17 q267 0 369 -15 q55 -9 55 -57 Z" /><glyph glyph-name="" unicode="U" d="M692 294 q0 -168 -78 -234 q-72 -60 -238 -60 q-200 0 -272 82 q-64 73 -64 268 q0 143 51 269 q18 45 49 45 q57 0 57 -53 q0 -5 -23 -79 q-24 -75 -24 -154 q0 -127 8 -162 q12 -61 60 -85 q47 -24 161 -24 q135 0 175 54 q31 42 31 173 q0 87 -24 186 l-14 47 q-10 33 -10 44 q0 23 15 38 q15 15 41 15 q32 0 52 -40 q47 -103 47 -330 Z" /><glyph glyph-name="" unicode="V" d="M711 606 q0 -60 -56 -220 q-48 -134 -86 -210 q-91 -176 -197 -176 q-71 0 -151 98 q-138 165 -192 412 q-14 59 -14 97 q0 56 50 56 q49 0 55 -37 q22 -125 43 -190 q35 -110 95 -208 q71 -119 123 -119 q27 0 60 54 q17 34 38 79 q87 188 132 391 q6 31 50 31 q20 0 35 -17 q15 -18 15 -41 Z" /><glyph glyph-name="" unicode="W" d="M738 242 q0 -97 -46 -166 q-52 -76 -141 -76 q-58 0 -91 17 q-39 18 -67 65 q-43 -82 -159 -82 q-105 0 -159 94 q-45 78 -45 197 q0 141 71 318 q21 55 52 55 q24 0 42 -15 q18 -15 18 -34 q0 -15 -15 -57 q-60 -169 -60 -267 q0 -58 21 -112 q27 -72 75 -72 q39 0 73 25 q35 24 35 60 q0 55 53 55 q20 0 38 -15 q17 -17 17 -30 q0 -41 29 -67 q28 -28 70 -28 q41 0 65 52 q19 44 19 93 q0 65 -37 159 q-36 87 -87 150 q-10 11 -10 41 q0 16 18 31 q18 15 38 15 q29 0 68 -50 q41 -54 78 -166 q37 -116 37 -190 Z" /><glyph glyph-name="" unicode="X" d="M699 614 q0 -27 -14 -39 q-76 -66 -255 -239 l263 -256 l-78 -68 l-264 250 l-247 -249 l-89 61 l250 258 q-142 132 -216 193 q-32 25 -32 43 q0 63 53 63 q26 0 70 -41 q72 -68 203 -183 q141 144 219 207 q64 50 87 50 q16 0 34 -16 q16 -18 16 -34 Z" /><glyph glyph-name="" unicode="Y" d="M706 602 q0 -157 -67 -262 q-81 -125 -248 -153 l17 -178 l-111 0 l-14 184 q-125 27 -196 142 q-67 106 -67 247 q0 82 56 82 q21 0 37 -14 q16 -16 16 -40 q0 -126 37 -203 q51 -111 174 -111 q141 0 206 98 q54 80 54 219 q0 23 14 37 q14 14 36 14 q56 0 56 -62 Z" /><glyph glyph-name="" unicode="Z" d="M671 91 q0 -13 -14 -29 q-24 -29 -131 -47 q-88 -15 -160 -15 q-105 0 -191 27 q-127 39 -127 124 q0 122 236 243 l127 59 q106 51 106 66 q0 37 -138 37 q-159 0 -330 -32 q-9 37 -19 101 q120 39 345 39 q103 0 178 -22 q114 -36 114 -118 q0 -47 -80 -100 q-46 -31 -172 -91 q-106 -51 -141 -67 q-106 -60 -106 -96 q0 -22 91 -43 q79 -19 129 -19 q74 0 156 23 q75 20 71 20 q56 0 56 -60 Z" /><glyph glyph-name="" unicode="[" d="M280 -37 q0 -64 -117 -64 q-79 0 -99 41 q-12 27 -12 121 l0 544 q0 90 17 121 q21 41 94 41 q117 0 117 -67 q0 -32 -19 -42 q-13 -7 -50 -7 q-8 0 -22 3 l-20 2 q-17 0 -17 -45 l0 -557 q0 -44 17 -44 q10 0 20 2 q12 3 22 3 q37 0 54 -11 q15 -12 15 -41 Z" /><glyph glyph-name="" unicode="\" d="M264 -5 l-91 -31 l-140 649 q-19 85 -19 98 q0 22 15 37 q16 16 38 16 q40 0 52 -57 l145 -712 Z" /><glyph glyph-name="" unicode="]" d="M280 61 q0 -92 -13 -121 q-21 -41 -98 -41 q-117 0 -117 64 q0 29 15 41 q16 11 54 11 q7 0 22 -3 q8 -2 20 -2 q17 0 17 44 l0 557 q0 45 -17 45 l-21 -2 q-15 -3 -21 -3 q-40 0 -51 7 q-18 9 -18 42 q0 67 117 67 q70 0 93 -41 q18 -33 18 -121 l0 -544 Z" /><glyph glyph-name="" unicode="_" d="M500 -140 l-500 0 l0 110 l500 0 l0 -110 Z" /><glyph glyph-name="" unicode="a" d="M568 1 l-36 77 q-117 -78 -273 -78 q-98 0 -163 66 q-66 66 -66 167 q0 133 95 209 q89 71 227 71 q89 0 153 -22 q39 -15 39 -50 q0 -22 -16 -41 q-16 -18 -38 -18 q-10 0 -54 11 q-62 13 -89 13 q-90 0 -147 -43 q-62 -47 -62 -137 q0 -60 39 -90 q35 -27 91 -27 q100 0 164 33 q93 48 93 161 q0 14 15 30 q16 16 37 16 q55 0 55 -53 l-1 -116 q0 -49 38 -151 l-101 -28 Z" /><glyph glyph-name="" unicode="b" d="M616 251 q0 -112 -60 -180 q-62 -71 -172 -71 q-91 0 -179 46 q5 18 32 101 q82 -41 146 -41 q64 0 97 46 q28 39 28 96 q0 159 -152 159 q-61 0 -116 -26 q-45 -22 -101 -71 q0 -151 9 -301 l-109 0 q-9 89 -9 219 q0 222 37 400 q6 36 49 36 q24 0 40 -14 q16 -16 16 -38 q0 6 -10 -61 q-4 -17 -14 -106 q89 68 218 68 q115 0 185 -73 q65 -73 65 -189 Z" /><glyph glyph-name="" unicode="c" d="M568 138 q0 -33 -34 -58 q-107 -80 -232 -80 q-115 0 -196 69 q-86 71 -86 184 q0 120 82 192 q79 68 203 68 q62 0 125 -19 q72 -23 102 -64 q6 -9 6 -27 q0 -18 -18 -33 q-17 -16 -36 -16 q-9 0 -60 24 q-55 25 -119 25 q-72 0 -120 -31 q-57 -37 -57 -111 q0 -68 49 -111 q47 -43 117 -43 q81 0 140 40 q22 15 38 27 q23 14 44 14 q16 0 35 -16 q17 -19 17 -34 Z" /><glyph glyph-name="" unicode="d" d="M623 298 q0 -152 -9 -289 l-109 0 q12 149 12 228 q0 44 -5 94 q-41 34 -98 55 q-58 21 -115 21 q-74 0 -119 -36 q-53 -41 -53 -117 q0 -68 47 -109 q44 -39 103 -39 q32 0 68 21 q35 21 55 21 q19 0 34 -17 q15 -18 15 -42 q0 -46 -66 -70 q-50 -19 -104 -19 q-110 0 -185 72 q-74 71 -74 182 q0 121 81 191 q77 68 203 68 q114 0 204 -66 l-9 126 q-2 8 -2 21 q-1 10 -1 19 q0 51 55 51 q45 0 51 -48 q21 -219 21 -318 Z" /><glyph glyph-name="" unicode="e" d="M596 283 q0 -40 -41 -51 q-40 -10 -126 -13 q-51 0 -135 -3 q-60 -5 -165 -5 q20 -42 67 -69 q56 -33 129 -33 l73 -1 q26 -1 62 -1 l-9 -107 q-219 0 -304 38 q-127 55 -127 217 q0 115 85 188 q82 70 199 70 q111 0 195 -57 q97 -67 97 -173 ZM494 310 q-87 96 -184 96 q-57 0 -104 -29 q-52 -31 -73 -86 l184 10 q45 0 177 9 Z" /><glyph glyph-name="" unicode="f" d="M333 376 q0 -23 -15 -38 q-15 -16 -42 -16 q-36 0 -73 4 l0 -318 l-111 0 l0 325 l-72 2 l0 107 l72 -2 q3 101 37 159 q37 64 105 64 q31 0 60 -13 q37 -18 37 -54 q0 -22 -13 -40 q-15 -18 -33 -18 q-10 0 -28 9 q-18 9 -25 9 q-28 0 -30 -123 l79 -4 q52 -3 52 -53 Z" /><glyph glyph-name="" unicode="g" d="M632 110 q0 -106 -26 -155 q-37 -69 -138 -69 q-59 0 -112 10 l0 102 q37 -5 94 -5 q72 0 72 108 q0 54 -19 269 q-22 -7 -34 -7 q-17 0 -28 8 q-59 34 -130 34 q-71 0 -125 -39 q-58 -42 -58 -102 q0 -50 40 -80 q41 -30 107 -30 q66 0 104 29 q15 12 33 12 q21 0 36 -15 q16 -18 16 -37 q0 -33 -37 -59 q-30 -21 -67 -30 q-28 -8 -85 -8 q-106 0 -178 57 q-77 59 -77 161 q0 115 99 187 q85 62 192 62 q81 0 182 -49 q18 43 61 43 q45 0 50 -49 q5 -58 17 -172 q11 -129 11 -176 Z" /><glyph glyph-name="" unicode="h" d="M648 290 q0 -185 -12 -281 l-106 0 q11 105 11 281 q0 43 -35 76 q-43 40 -113 40 q-111 0 -234 -90 q-17 -11 -17 -39 q0 -122 17 -268 l-108 0 q-21 182 -21 273 q0 225 17 335 q6 47 57 47 q20 0 36 -16 q14 -16 14 -36 l-1 -13 q-2 -18 -3 -41 q-4 -62 -6 -124 q146 79 249 79 q114 0 187 -70 q68 -65 68 -153 Z" /><glyph glyph-name="" unicode="i" d="M262 538 q-85 23 -145 36 q-56 12 -56 43 q0 47 53 47 q57 0 178 -42 l-30 -84 ZM231 446 q-7 -53 -7 -229 l-1 -208 l-116 0 q-3 29 -1 105 l2 103 q0 195 7 243 q1 16 20 32 q17 14 39 14 q63 0 57 -60 Z" /><glyph glyph-name="" unicode="j" d="M382 540 q-76 22 -137 36 q-52 10 -52 42 q0 46 51 46 q52 0 166 -41 l-28 -83 ZM452 155 q0 -277 -205 -277 q-119 0 -242 72 l33 99 q143 -64 207 -64 q59 0 83 58 q14 37 14 112 q0 140 -73 274 q-7 11 -7 26 q0 21 17 37 q17 15 39 15 q26 0 45 -25 q37 -56 65 -155 q24 -93 24 -172 Z" /><glyph glyph-name="" unicode="k" d="M600 58 q0 -23 -14 -40 q-15 -18 -38 -18 q-6 0 -17 3 q-279 78 -392 214 q1 -134 8 -208 l-108 0 q-9 95 -9 273 q0 198 15 334 q5 48 59 48 q20 0 36 -16 q15 -18 12 -43 q-13 -113 -14 -288 q79 67 171 110 q71 33 191 69 q9 3 18 3 q23 0 38 -17 q14 -19 14 -41 q0 -36 -40 -48 q-141 -42 -236 -91 q-40 -21 -40 -41 q0 -22 34 -43 q101 -64 273 -112 q39 -12 39 -48 Z" /><glyph glyph-name="" unicode="l" d="M242 613 q0 -75 -11 -253 q-10 -163 -10 -256 q0 -69 2 -95 l-110 0 q-2 20 -2 119 q0 220 1 246 q3 146 19 244 q6 46 60 46 q51 0 51 -51 Z" /><glyph glyph-name="" unicode="m" d="M708 319 q0 -126 -19 -310 l-106 0 q18 185 18 310 q0 84 -72 84 q-56 0 -93 -52 q-18 -24 -25 -29 q-14 -11 -37 -11 q-28 0 -55 40 q-37 52 -79 52 q-38 0 -101 -36 q-2 -58 -2 -128 q0 -128 15 -230 l-103 0 q-19 96 -19 230 q0 184 8 229 q6 45 48 45 q26 0 51 -24 q60 24 103 24 q82 0 141 -70 q62 70 148 70 q87 0 136 -60 q43 -55 43 -134 Z" /><glyph glyph-name="" unicode="n" d="M648 286 q0 -181 -12 -277 l-106 0 q11 107 11 277 q0 42 -35 77 q-43 41 -113 41 q-66 0 -135 -33 q-14 -7 -120 -70 q4 -133 21 -292 l-108 0 q-21 206 -21 352 q0 66 4 101 q2 22 16 36 q14 15 32 15 q56 0 59 -83 q148 83 252 83 q114 0 187 -71 q68 -66 68 -156 Z" /><glyph glyph-name="" unicode="o" d="M619 253 q0 -118 -86 -187 q-82 -66 -216 -66 q-121 0 -203 61 q-94 69 -94 191 q0 109 81 184 q85 77 223 77 q137 0 218 -75 q77 -72 77 -185 ZM511 254 q0 64 -42 104 q-51 46 -145 46 q-97 0 -151 -49 q-45 -42 -45 -103 q0 -65 51 -104 q51 -39 138 -39 q97 0 148 42 q46 38 46 103 Z" /><glyph glyph-name="" unicode="p" d="M644 249 q0 -106 -93 -174 q-82 -60 -185 -60 q-81 0 -133 32 l33 102 q57 -27 98 -27 q67 0 120 38 q52 37 52 89 q0 81 -47 119 q-49 37 -148 37 q-87 0 -198 -72 q-5 -82 -5 -176 q0 -156 13 -269 l-108 0 q-13 113 -13 269 q0 239 20 313 q11 43 50 43 q34 0 58 -45 q101 45 183 45 q136 0 217 -61 q86 -69 86 -203 Z" /><glyph glyph-name="" unicode="q" d="M614 454 q-12 -109 -12 -288 q0 -169 7 -277 l-108 0 q-7 104 -7 277 q0 83 5 178 q-70 60 -177 60 q-103 0 -148 -36 q-46 -36 -46 -118 q0 -53 53 -90 q52 -37 120 -37 q13 0 37 4 l37 4 q42 0 42 -57 q0 -41 -42 -53 q-16 -5 -74 -5 q-103 0 -187 60 q-94 67 -94 174 q0 135 86 202 q77 60 216 60 q94 0 184 -42 q21 44 58 44 q20 0 35 -15 q15 -15 15 -37 l0 -8 Z" /><glyph glyph-name="" unicode="r" d="M353 460 q0 -39 -34 -51 q-77 -31 -157 -123 l10 -277 l-110 0 l-22 453 q0 22 16 37 q16 14 37 14 q54 0 57 -51 l2 -37 q82 88 144 88 q20 0 39 -16 q18 -16 18 -37 Z" /><glyph glyph-name="" unicode="s" d="M524 147 q0 -74 -70 -114 q-58 -33 -144 -33 q-68 0 -151 46 q-83 46 -129 104 l69 65 q37 -37 95 -69 q67 -37 116 -37 q35 0 62 8 q42 12 42 35 q0 23 -46 38 l-109 28 q-73 18 -109 45 q-49 36 -49 95 q0 70 75 115 q68 40 147 40 q110 0 183 -71 q17 -19 17 -38 q0 -23 -17 -38 q-17 -17 -39 -17 q-23 0 -39 16 q-42 39 -105 39 q-113 0 -113 -49 q0 -22 46 -37 q36 -10 110 -28 q73 -21 109 -47 q49 -37 49 -96 Z" /><glyph glyph-name="" unicode="t" d="M582 426 q0 -25 -15 -40 q-14 -17 -38 -17 q-10 0 -15 2 q-51 12 -228 21 q-26 -91 -26 -205 q0 -36 25 -57 q23 -22 67 -22 q44 0 78 14 q24 11 71 42 l55 -92 q-108 -72 -204 -72 q-87 0 -143 52 q-58 51 -58 135 q0 113 23 209 q-81 1 -154 3 l0 105 l190 -2 q15 36 52 115 q16 31 45 31 q22 0 41 -14 q18 -15 18 -38 q0 -14 -6 -26 l-35 -72 q159 -9 216 -22 q41 -11 41 -50 Z" /><glyph glyph-name="" unicode="u" d="M571 2 q-9 37 -18 140 q-64 -80 -123 -110 q-61 -32 -147 -32 q-120 0 -188 71 q-65 65 -65 164 q0 79 11 119 q18 72 75 138 q18 21 43 21 q20 0 37 -17 q17 -19 17 -38 q0 -20 -15 -37 q-38 -43 -50 -87 q-10 -33 -10 -99 q0 -53 33 -88 q39 -40 112 -40 q115 0 175 70 q64 76 109 288 q3 18 22 34 q19 14 38 14 q46 0 46 -59 q0 -25 -7 -120 q-6 -81 -6 -122 q0 -136 14 -198 l-103 -12 Z" /><glyph glyph-name="" unicode="v" d="M634 453 q0 -79 -67 -208 q-61 -119 -130 -182 q-70 -63 -139 -63 q-64 0 -129 56 q-66 54 -114 185 q-45 119 -45 210 q0 26 15 44 q15 18 38 18 q22 0 38 -14 q16 -16 16 -32 q0 -93 54 -218 q60 -140 128 -140 q66 0 150 148 q76 135 79 211 q0 15 17 30 q15 15 38 15 q22 0 37 -17 q14 -19 14 -43 Z" /><glyph glyph-name="" unicode="w" d="M732 233 q0 -106 -56 -170 q-57 -63 -158 -63 q-89 0 -149 61 q-60 -61 -143 -61 q-95 0 -146 60 q-50 56 -50 156 q0 83 24 173 q33 124 97 124 q19 0 36 -17 q17 -17 17 -38 q0 -15 -10 -33 q-57 -100 -57 -209 q0 -109 85 -109 q67 0 107 56 q19 25 46 25 q26 0 45 -28 q30 -52 111 -52 q94 0 94 132 q0 48 -25 100 q-28 47 -52 89 q-11 18 -11 33 q0 17 16 34 q15 17 30 17 q60 0 108 -104 q41 -93 41 -176 Z" /><glyph glyph-name="" unicode="x" d="M608 75 l-82 -74 l-219 208 l-217 -209 l-80 73 l206 208 l-153 135 q-22 18 -22 42 q0 56 55 56 q19 0 50 -26 l152 -131 l157 130 q31 25 63 25 q14 0 32 -20 q18 -19 18 -36 q0 -16 -15 -30 q-19 -16 -31 -24 l-139 -114 l225 -213 Z" /><glyph glyph-name="" unicode="y" d="M652 461 q0 -15 -48 -114 q-120 -245 -324 -454 l-81 63 l88 108 q-76 45 -174 182 q-103 142 -103 217 q0 21 17 35 q17 15 38 15 q36 0 50 -35 q74 -210 238 -329 q98 108 189 324 q17 40 55 40 q19 0 38 -16 q17 -17 17 -36 Z" /><glyph glyph-name="" unicode="z" d="M603 97 q0 -28 -22 -42 q-44 -28 -131 -43 q-73 -12 -145 -12 q-254 0 -254 114 q0 81 187 169 q61 26 127 57 q56 27 56 41 q0 19 -36 22 l-49 0 q-113 0 -301 -26 l-15 107 q137 29 316 29 q258 0 258 -112 q0 -79 -187 -160 q-58 -24 -127 -55 q-55 -27 -55 -48 q0 -29 66 -29 q142 0 230 38 q12 4 25 4 q26 0 41 -17 q16 -18 16 -37 Z" /><glyph glyph-name="" unicode="{" d="M224 -57 q0 -19 -14 -33 q-15 -12 -31 -12 q-52 0 -84 54 q-28 50 -25 101 l7 175 q0 29 -18 57 q-19 26 -19 47 q0 20 19 46 q18 27 18 57 l-7 176 q-3 53 24 101 q30 54 76 54 q21 0 36 -12 q18 -15 18 -42 q0 -14 -10 -22 l-20 -13 q-33 -21 -30 -67 l8 -197 q1 -54 -30 -82 q32 -30 30 -81 l-8 -196 q-3 -48 29 -66 q31 -20 31 -45 Z" /><glyph glyph-name="" unicode="|" d="M150 -139 l-100 0 l0 998 l100 0 l0 -998 Z" /><glyph glyph-name="" unicode="}" d="M224 332 q0 -18 -19 -47 q-19 -28 -18 -57 l7 -175 q1 -54 -25 -101 q-33 -54 -84 -54 q-17 0 -31 12 q-14 13 -14 33 q0 20 14 31 l29 24 q19 19 17 56 l-8 196 q-3 51 30 81 q-33 28 -30 82 l8 197 q1 46 -30 67 q-14 8 -20 13 q-10 7 -10 22 q0 27 18 42 q15 12 36 12 q46 0 76 -54 q26 -48 24 -101 l-7 -176 q-1 -30 18 -57 q19 -28 19 -46 Z" /><glyph glyph-name="" unicode="~" d="M490 384 q0 -56 -58 -114 q-59 -58 -117 -58 q-40 0 -66 26 l-20 25 q-12 16 -20 25 q-21 26 -51 26 q-48 0 -81 -74 l-67 46 q62 166 153 166 q35 0 71 -50 q36 -51 76 -51 q34 0 76 51 q42 50 54 50 q50 0 50 -68 Z" /><glyph glyph-name="" unicode="&#x3002;" d="M374 119 q0 -49 -38 -84 q-36 -35 -86 -35 q-53 0 -88 32 q-36 32 -36 83 q0 53 36 87 q36 34 88 34 q51 0 88 -32 q36 -33 36 -85 ZM310 120 q0 22 -18 37 q-19 14 -42 14 q-60 0 -60 -57 q0 -22 18 -36 q18 -15 42 -15 q25 0 42 17 q18 15 18 40 Z" /><glyph glyph-name="" unicode="&#xff01;" d="M337 682 q0 -30 -10 -80 l-82 -381 l-102 13 l61 437 q11 83 72 83 q61 0 61 -72 ZM277 0 q-150 42 -191 56 q-44 12 -44 44 q0 52 47 52 q16 0 216 -56 l-28 -96 Z" /><glyph glyph-name="" unicode="&#xff08;" d="M891 -94 q0 -16 -15 -28 q-16 -11 -34 -11 q-39 0 -77 32 q-85 71 -123 210 q-33 113 -33 244 q0 133 33 251 q41 148 123 217 q38 32 77 32 q18 0 34 -11 q15 -12 15 -28 q0 -20 -16 -39 l-29 -28 q-123 -135 -123 -391 q0 -123 23 -202 q29 -104 100 -181 l29 -28 q16 -19 16 -39 Z" /><glyph glyph-name="" unicode="&#xff09;" d="M391 353 q0 -131 -33 -244 q-40 -139 -123 -210 q-40 -32 -77 -32 q-20 0 -34 11 q-15 12 -15 28 q0 22 16 39 q19 19 29 28 q70 77 100 181 q23 84 23 202 q0 256 -123 391 q-10 9 -29 28 q-16 17 -16 39 q0 16 15 28 q14 11 34 11 q37 0 77 -32 q81 -69 123 -217 q33 -118 33 -251 Z" /><glyph glyph-name="" unicode="&#xff0c;" d="M355 31 q0 -62 -28 -126 l-78 11 l30 104 q-21 -20 -69 -20 q-32 0 -48 20 q-17 17 -17 49 q0 38 27 63 q27 24 69 24 q114 0 114 -125 Z" /><glyph glyph-name="" unicode="&#xff1a;" d="M353 462 q0 -98 -107 -98 q-42 0 -70 28 q-29 28 -29 70 q0 44 27 74 q28 28 72 28 q49 0 78 -26 q29 -27 29 -76 ZM353 98 q0 -98 -107 -98 q-42 0 -70 28 q-29 28 -29 70 q0 44 27 74 q28 28 72 28 q49 0 78 -26 q29 -27 29 -76 Z" /><glyph glyph-name="" unicode="&#x5b89;" d="M388 573 q47 -3 50 -54 q0 -19 -10 -49 q-29 -50 -45 -79 q192 5 456 6 q83 -3 87 -57 q-3 -52 -60 -56 q-45 -1 -127 -1 q-2 -18 -20 -139 l-5 -43 q74 16 155 36 l0 -109 q-60 -26 -165 -45 q-3 -37 -3 -76 l-117 0 q0 39 1 59 q-54 -4 -77 -4 l-25 0 q-131 0 -208 43 q-82 54 -82 160 q1 51 14 104 q-60 -3 -117 -3 l0 114 q146 7 157 7 q26 60 69 138 q33 45 72 48 ZM617 281 q-78 -1 -288 -7 q-18 -51 -18 -89 q0 -56 39 -83 q47 -31 147 -31 q45 0 96 8 q9 94 24 202 ZM469 821 q35 -3 101 -73 q43 3 126 7 l83 0 q72 0 116 -32 q47 -41 50 -83 l0 -17 q-2 -51 -25 -143 q-12 -30 -65 -30 q-40 0 -40 38 q17 90 17 116 q0 45 -92 45 q-276 -4 -546 -59 q10 -82 16 -124 l-122 -25 q-25 207 -26 242 q2 57 51 60 q52 0 67 -47 q102 22 237 38 q-11 14 -11 28 q3 56 63 59 Z" /><glyph glyph-name="" unicode="&#x628a;" d="M241 805 q45 0 48 -52 q4 -38 10 -112 l2 0 q80 -3 84 -54 q-3 -51 -58 -55 l-20 0 q3 -43 7 -132 q12 2 16 2 q50 -4 55 -54 q-2 -38 -37 -54 q-13 -10 -29 -18 q3 -94 3 -184 q-3 -172 -126 -177 q-65 0 -118 35 l-4 104 q48 -30 96 -30 q43 0 43 111 q0 26 -3 99 q-56 -17 -135 -31 l-25 114 q81 12 154 38 l-10 173 l-56 -4 q-39 -6 -76 -6 l0 110 q55 7 126 10 q-3 38 -7 111 q0 53 60 56 ZM767 747 q89 0 131 -72 q41 -64 41 -207 q0 -136 -47 -191 q-68 -65 -163 -65 q-119 0 -208 23 l0 -41 q0 -103 32 -136 q29 -39 114 -39 q121 0 265 70 l0 -109 q-123 -66 -258 -66 l-37 0 q-104 0 -160 53 q-65 64 -65 212 q0 250 46 526 q11 47 57 51 q37 -3 49 -33 q96 24 203 24 ZM555 614 q-22 -157 -29 -275 q46 -14 86 -20 q2 129 16 312 q-30 -6 -73 -17 ZM742 645 l-12 -142 q-7 -100 -8 -188 q44 8 70 37 q22 31 22 116 q0 88 -10 131 q-17 46 -60 46 l-2 0 Z" /><glyph glyph-name="" unicode="&#x7248;" d="M145 766 q43 -3 47 -57 l-11 -209 q35 2 78 3 q3 105 13 234 q9 55 56 61 q44 -3 50 -61 q-3 -37 -10 -107 q-7 -68 -8 -125 q74 -5 78 -55 q-3 -51 -58 -55 q-122 -1 -185 -6 q-8 -1 -20 -1 q-4 -73 -5 -107 q41 14 85 17 l19 0 q58 0 87 -37 q32 -43 34 -124 l0 -38 q0 -84 -27 -161 q-12 -31 -56 -31 q-45 0 -45 45 q26 90 26 149 q0 67 -15 89 q-13 18 -38 18 q-37 -1 -73 -21 q-5 -147 -5 -268 l-98 0 q0 280 27 790 q9 53 54 57 ZM562 762 q29 -2 42 -25 q201 46 266 49 q64 -3 64 -47 q0 -43 -48 -58 q-144 -27 -282 -57 l-18 -129 l48 11 q62 11 152 14 q68 0 108 -39 q38 -43 38 -86 l0 -15 q0 -39 -15 -87 q-24 -78 -79 -159 q89 -60 127 -88 l-53 -108 q-62 51 -138 103 q-37 -50 -91 -109 q-27 -21 -50 -21 q-50 0 -50 53 q0 27 21 54 q37 41 73 87 q-71 43 -126 74 q-10 -150 -13 -264 l-105 0 q0 278 72 785 q9 56 57 62 ZM562 286 q16 0 39 -10 q58 -33 139 -81 q41 58 64 111 q18 42 18 66 q0 17 -11 30 q-13 13 -34 13 q-42 0 -97 -11 q-59 -11 -110 -26 q-4 -28 -10 -92 l2 0 Z" /><glyph glyph-name="" unicode="&#x5305;" d="M297 805 q46 0 49 -57 q0 -18 -9 -38 q138 29 309 37 l63 0 q89 0 154 -68 q56 -68 59 -194 l0 -18 q-6 -142 -45 -260 q-18 -54 -76 -54 q-54 0 -54 61 q50 147 50 245 q-3 94 -26 140 q-36 38 -82 38 q-221 -5 -431 -60 q-68 -114 -107 -201 l-100 71 q128 251 185 333 q30 25 61 25 ZM520 536 q78 0 126 -45 q45 -42 45 -123 q0 -91 -44 -140 q-46 -48 -135 -48 l-227 23 q-4 -27 -4 -44 q0 -70 45 -106 q47 -41 169 -41 q121 0 403 79 l0 -104 q-247 -77 -418 -80 q-152 0 -224 57 q-75 57 -84 156 q0 200 48 350 q15 35 53 35 q22 0 36 -11 q110 39 211 42 ZM301 297 q69 -9 191 -19 q45 0 67 19 q23 14 23 64 q0 46 -20 61 q-22 16 -62 16 q-47 0 -182 -46 l-17 -95 Z" /><glyph glyph-name="" unicode="&#x5b9d;" d="M445 813 q44 -3 125 -102 q50 2 76 4 l75 0 q95 0 150 -26 q56 -35 59 -105 q-2 -45 -34 -120 q-9 -42 -76 -42 q-12 0 -16 2 q-16 -10 -36 -11 l-202 -5 l-8 -97 q97 0 151 1 q92 0 92 -59 q-3 -46 -55 -50 l-197 -1 q-6 -78 -6 -156 q66 0 234 2 q-17 28 -32 45 q-22 18 -22 51 q4 45 50 51 q22 0 40 -20 q22 -20 62 -79 l-62 -48 l9 0 q80 -3 84 -55 q-3 -49 -57 -55 q-349 0 -526 -6 q-69 -2 -210 -4 l0 110 l308 7 q0 69 6 156 q-149 -3 -212 -8 l0 109 q54 4 218 7 q4 67 7 94 q-55 -3 -96 -6 q-89 -11 -169 -12 l0 34 l-77 -16 q-27 200 -29 229 q3 53 48 56 q46 0 61 -38 q108 29 236 46 q-6 3 -6 5 q-25 31 -25 54 q3 55 62 58 ZM201 498 q177 18 540 24 q33 -1 54 -11 q10 30 14 54 q0 49 -117 49 q-255 -4 -498 -66 q4 -34 7 -50 Z" /><glyph glyph-name="" unicode="&#x66b4;" d="M191 774 q22 0 35 -11 q135 24 261 27 l38 0 q218 0 296 -40 q69 -33 68 -108 l2 -17 q0 -86 -59 -116 q-27 -14 -94 -22 l1 -7 q-2 -18 -6 -44 l63 0 q75 0 75 -49 q-3 -38 -45 -41 l-112 0 l-11 -48 q94 0 144 1 q75 0 75 -48 q-3 -38 -45 -41 l-59 0 q54 -53 101 -107 l-78 -67 q-42 53 -67 80 l-23 23 q-3 -23 -31 -39 q-104 -22 -112 -22 l-17 83 q83 18 111 22 q-10 13 -10 27 q-55 -1 -151 -1 q5 -7 10 -21 q5 -9 15 -57 q10 -48 10 -89 q0 -76 -25 -107 q-29 -32 -81 -32 q-54 0 -101 25 l7 34 l-9 -6 q-44 -21 -166 -36 l-19 93 q80 7 143 27 q20 5 29 5 q38 -3 43 -38 q23 -14 44 -14 q11 2 15 4 q7 5 9 9 q6 12 6 52 q-3 52 -28 111 q-2 2 -2 7 q0 21 11 32 l-118 -1 q-4 -13 -12 -26 q44 -17 87 -38 l-45 -80 q-38 19 -90 47 q-8 7 -11 12 q-37 -36 -111 -110 l-73 61 q66 77 127 132 l-104 -3 l0 90 l187 4 l-6 48 l-131 -2 l0 90 l119 2 q-3 21 -3 31 q0 12 3 19 q-60 8 -90 22 q-56 31 -56 99 l0 20 q0 45 15 111 q17 38 51 38 ZM605 346 l-216 -1 q4 -32 7 -48 q127 0 201 1 l8 48 ZM623 435 q3 22 9 44 q-34 -2 -109 -2 l-111 0 q-31 0 -44 1 l4 -17 q2 -17 4 -26 l247 0 ZM536 712 q-134 0 -301 -35 l-1 -3 q253 -3 375 -7 q36 -9 39 -37 q-2 -36 -44 -38 q-217 0 -372 6 q7 -16 24 -22 q51 -21 173 -21 l85 0 q160 0 233 19 q42 14 42 57 q-6 50 -53 65 q-64 16 -200 16 ZM648 59 q34 0 173 -63 l-50 -89 l-143 66 q-25 22 -26 46 q3 37 46 40 Z" /><glyph glyph-name="" unicode="&#x672c;" d="M850 637 q80 -3 84 -54 q-3 -51 -58 -55 l-323 -6 q5 -113 7 -141 q4 -110 9 -199 l120 1 q71 -3 77 -57 q-7 -50 -69 -56 q-48 0 -124 -2 q3 -102 3 -149 l-113 0 l-3 145 q-73 -5 -171 -16 l0 113 q32 0 107 13 q5 1 61 5 q-3 128 -9 215 q-122 -126 -332 -335 l-69 88 q80 91 248 275 q57 64 101 94 l-93 -6 q-99 -7 -229 -11 l0 109 q131 12 361 21 q-2 22 -2 32 q-5 40 -5 84 q0 53 52 53 q58 -2 58 -63 l8 -103 q178 4 304 5 ZM647 430 q55 0 280 -165 l-56 -96 q-133 88 -247 168 q-27 19 -28 49 q5 41 51 44 Z" /><glyph glyph-name="" unicode="&#x6bd5;" d="M192 793 q53 -3 56 -53 q0 -12 -5 -39 l-4 -22 q57 3 147 6 q82 0 82 -53 q-3 -41 -49 -44 q-131 0 -199 -6 q-9 -55 -9 -73 q0 -67 52 -67 q40 0 217 49 l0 -91 q-151 -52 -237 -52 l-17 0 q-53 0 -96 40 q-32 32 -32 90 q0 88 42 277 q15 38 52 38 ZM595 801 q51 -3 54 -51 q0 -15 -3 -38 q-3 -13 -3 -24 q49 4 163 7 q85 0 85 -55 q-3 -44 -51 -47 q-128 0 -209 -7 q-4 -40 -4 -59 q0 -65 40 -65 q42 0 229 54 l0 -94 q-160 -58 -250 -58 l-15 0 q-48 0 -86 41 q-29 32 -29 92 q0 86 27 267 q17 37 52 37 ZM850 245 q80 -3 84 -55 q-3 -51 -58 -55 q-160 -2 -336 -8 q-11 -94 -14 -220 l-123 0 q0 86 12 215 l-125 -8 q-115 -13 -233 -16 l0 110 q141 17 369 26 l5 45 q9 67 67 73 q55 -3 61 -73 l-5 -40 l296 6 Z" /><glyph glyph-name="" unicode="&#x95ed;" d="M127 688 q58 -2 58 -62 q5 -47 19 -311 q15 -312 15 -404 l-114 0 q-3 280 -14 435 l-13 215 q-4 37 -4 74 q0 53 53 53 ZM728 799 q84 0 143 -35 q63 -43 63 -183 q0 -130 -28 -623 q-9 -49 -64 -49 q-49 0 -49 57 q27 354 27 609 q0 115 -114 115 q-125 -3 -239 -37 l-26 107 q108 36 250 39 l37 0 ZM271 815 q43 -3 133 -128 l-87 -83 q-53 38 -94 87 q-24 33 -24 57 q3 64 72 67 ZM704 487 q88 0 88 -58 q-3 -44 -53 -48 l-74 0 q16 -93 16 -185 q0 -110 -35 -159 q-43 -60 -111 -60 q-63 0 -105 11 l-12 109 q54 -10 98 -10 q25 0 39 26 q16 27 16 90 q0 32 -4 88 q-103 -109 -247 -267 l-82 68 q134 166 261 287 q-175 -6 -230 -18 l0 105 q61 11 256 17 q-6 18 -8 27 q-17 23 -17 49 q4 45 56 51 q33 -3 53 -29 q19 -54 30 -95 l65 1 Z" /><glyph glyph-name="" unicode="&#x5fc5;" d="M172 555 q49 -3 52 -50 q-2 -23 -13 -53 q-30 -100 -51 -233 l-106 24 q50 255 67 281 q23 31 51 31 ZM375 633 q55 0 55 -51 q0 -14 -10 -51 q-51 -165 -51 -261 q0 -40 5 -61 q186 267 375 480 q28 26 57 26 q45 -4 49 -49 q-2 -27 -23 -55 q-163 -210 -384 -505 q47 -23 124 -23 q126 0 264 54 l0 -119 q-150 -53 -258 -53 l-36 0 q-101 0 -169 40 l-61 -83 l-85 71 q42 64 64 96 q-35 61 -35 156 q2 167 60 342 q15 43 59 46 ZM492 762 q29 0 60 -28 q30 -27 89 -116 l-94 -72 q-49 72 -85 106 q-24 20 -24 56 q3 48 54 54 ZM789 454 q31 0 64 -31 q35 -31 96 -122 l-94 -72 q-55 78 -96 114 q-25 21 -25 56 q4 49 55 55 Z" /><glyph glyph-name="" unicode="&#x4fbf;" d="M327 794 q61 -3 64 -59 q-3 -36 -43 -57 q-65 -48 -81 -59 q2 -12 2 -21 q1 -12 14 -301 q12 -304 12 -394 l-113 0 q-3 268 -11 424 l-11 217 q-79 -55 -86 -55 l-23 115 q233 185 276 190 ZM869 795 q92 0 92 -60 q-3 -46 -55 -50 l-126 -1 q2 -8 2 -12 q-1 -23 -8 -56 q56 -12 101 -52 q60 -58 60 -182 l0 -37 q0 -40 -11 -75 q-15 -45 -44 -68 q-30 -30 -90 -42 q-40 -11 -102 -13 l-21 0 l-10 -59 q168 -43 284 -70 l-34 -103 l-267 68 q-8 -50 -11 -76 l-107 23 q5 36 14 82 q-79 22 -127 39 q-49 21 -49 58 q4 40 51 46 q22 0 49 -11 q53 -17 95 -28 l7 40 q-48 9 -86 31 q-75 48 -75 128 l0 12 q0 86 29 230 q14 53 52 53 q20 0 32 -9 q75 22 126 23 l18 0 q11 41 18 59 q-199 -6 -262 -18 l0 109 q99 16 455 21 ZM745 508 q-10 -33 -18 -73 q70 -3 70 -52 q-3 -41 -49 -44 l-43 0 q-10 -42 -18 -86 q33 0 60 4 q29 4 46 20 q23 14 29 36 q7 25 7 41 l0 21 q0 84 -33 108 q-20 16 -51 25 ZM596 337 q-51 -3 -89 -6 l0 -18 q0 -30 37 -45 q18 -6 37 -9 l15 78 ZM615 434 l17 83 q-41 -3 -106 -18 q-9 -37 -12 -71 l101 6 Z" /><glyph glyph-name="" unicode="&#x53d8;" d="M478 823 q32 -3 96 -81 l-11 -10 q126 2 273 3 q74 -3 78 -51 q-3 -48 -54 -51 q-134 -2 -184 -2 l0 -2 q2 -9 13 -119 q10 -133 10 -154 l-107 0 q-3 100 -10 169 l-8 84 q-3 12 -3 20 q-40 -2 -137 -4 l1 -9 l-7 -98 q-6 -81 -6 -168 l-106 0 q0 94 9 266 q0 3 1 4 l-7 0 q-112 -7 -215 -9 l0 102 q145 11 335 16 q-2 0 -2 2 q-17 21 -17 37 q3 52 58 55 ZM216 561 q42 -6 48 -48 q-1 -25 -24 -52 q-43 -49 -82 -97 l-82 68 q41 58 85 104 q28 25 55 25 ZM779 571 q29 0 158 -85 l-56 -99 q-66 45 -125 88 q-28 21 -29 51 q3 42 52 45 ZM573 344 q127 0 208 -31 q82 -36 82 -90 q-3 -54 -60 -87 q-44 -30 -102 -58 q168 -54 199 -70 l-26 -98 q-138 50 -323 106 q-127 -47 -295 -99 q-33 -11 -61 -11 q-58 0 -58 55 q0 26 30 53 q109 26 203 54 l-110 30 q-53 12 -55 59 q3 19 13 29 l-43 -11 l-24 100 q198 57 422 69 ZM288 203 q32 -7 108 -32 l150 -45 l5 2 q156 60 177 90 q0 23 -160 23 q-130 -3 -280 -38 Z" /><glyph glyph-name="" unicode="&#x6807;" d="M318 615 q92 0 92 -60 q-3 -46 -55 -49 l-61 0 q0 -37 3 -76 q25 0 142 -79 l-59 -104 l-80 60 q9 -297 9 -392 l-114 0 l-5 353 l-89 -88 l-70 88 q68 66 102 98 q33 32 54 40 q-1 6 -1 16 q-3 42 -3 80 q-103 -6 -133 -17 l0 109 q42 10 128 16 q-2 42 -2 61 q-3 48 -3 85 q0 53 53 53 q57 -1 57 -62 q2 -20 6 -133 l29 1 ZM795 734 q95 0 95 -62 q-3 -46 -57 -51 q-269 0 -334 -17 l0 113 q65 14 296 17 ZM857 462 q83 -3 87 -57 q-3 -53 -59 -57 q-83 -1 -151 -3 l14 -79 q11 -75 11 -145 q0 -114 -28 -158 q-30 -48 -86 -48 q-60 0 -108 33 l23 108 q24 -28 48 -28 q11 0 21 7 q9 6 13 16 q7 25 7 87 q-3 90 -30 195 q-1 2 -1 6 q-27 -1 -48 -3 q-66 -8 -125 -9 l0 113 q122 17 412 22 ZM531 235 q44 0 47 -56 q0 -16 -16 -35 q-74 -103 -105 -163 l-98 68 q78 123 114 162 q27 24 58 24 ZM825 214 q27 0 142 -91 l-60 -105 q-85 74 -106 94 q-31 22 -31 54 q3 45 55 48 Z" /><glyph glyph-name="" unicode="&#x8868;" d="M825 745 q77 -3 81 -53 q-3 -49 -55 -53 q-193 -2 -282 -4 q-2 -26 -2 -41 l-1 -21 q63 0 227 2 q74 -3 78 -51 q-3 -48 -54 -51 q-142 -1 -253 -3 l-1 -68 q139 2 301 3 q77 -3 81 -53 q-3 -49 -55 -53 q-216 -1 -425 -5 q-6 -18 -20 -35 l-85 -70 q0 -10 -6 -34 q-10 -71 -10 -99 q0 -24 30 -33 q30 -11 92 -11 q43 0 75 4 q-6 3 -10 7 q-78 51 -78 101 q0 63 51 106 q54 48 141 48 q87 0 147 -49 q50 -45 50 -113 q0 -45 -36 -86 q65 -9 147 -14 l-33 -113 q-64 3 -151 21 q-58 16 -79 23 l-35 -14 q-93 -30 -193 -30 q-104 0 -166 34 q-66 41 -66 112 q0 20 1 32 l-76 -65 l-85 71 q118 115 227 201 q-108 -4 -207 -6 l0 105 q113 7 348 13 l1 67 q-52 -1 -94 -3 q-115 -7 -189 -7 l0 101 q105 7 284 12 q0 40 1 62 q-58 -1 -106 -3 q-96 -5 -206 -7 l0 105 q103 7 314 13 l0 7 q11 68 69 74 q55 -3 61 -74 l0 -4 q70 0 252 2 ZM651 169 q-41 0 -67 -13 q-25 -15 -25 -30 q0 -21 54 -44 q29 -14 65 -25 q14 9 16 11 q35 24 35 51 q0 22 -21 37 q-24 13 -57 13 Z" /><glyph glyph-name="" unicode="&#x522b;" d="M670 712 q58 -2 58 -63 q2 -21 12 -240 q10 -270 10 -315 l-113 0 q-3 224 -9 340 q-3 43 -8 167 q-3 33 -3 58 q0 53 53 53 ZM863 809 q45 0 48 -53 q30 -339 30 -668 q-3 -175 -142 -181 q-73 0 -135 31 l-4 105 q57 -27 112 -27 q60 0 60 115 q0 73 -29 622 q0 53 60 56 ZM155 798 q44 0 50 -33 q54 9 103 14 l18 0 q54 0 99 -8 q62 -15 102 -48 q39 -36 39 -110 l0 -17 q0 -67 -18 -108 q-20 -49 -81 -61 q-40 -13 -124 -13 q3 -9 3 -17 q-3 -22 -12 -50 l4 1 l47 0 q84 0 136 -39 q49 -41 49 -95 l0 -13 q0 -43 -13 -124 q-18 -78 -36 -126 q-12 -36 -74 -36 q-44 0 -44 61 q25 64 38 127 q12 54 12 90 q0 24 -22 38 q-29 16 -70 16 q-34 0 -67 -3 q-51 -149 -87 -331 l-114 25 q42 170 75 287 q-64 -16 -96 -26 l-23 100 q73 23 152 35 q20 63 34 83 q-66 5 -96 18 q-65 30 -65 165 l0 17 q6 105 29 145 q18 33 52 36 ZM315 675 q-65 -3 -128 -18 q-3 -18 -3 -33 q0 -78 15 -89 q48 -18 108 -18 q62 0 99 3 q33 6 42 39 q6 23 9 42 q0 52 -44 64 q-47 10 -98 10 Z" /><glyph glyph-name="" unicode="&#x5e76;" d="M299 790 q15 0 29 -8 q37 -23 106 -86 l-35 -41 l186 7 q12 36 47 109 q19 43 59 46 q52 -3 58 -54 q-3 -28 -34 -98 q30 0 98 2 q78 -3 82 -53 q-3 -49 -56 -53 q-78 -2 -110 -2 q4 -22 23 -245 q27 0 52 3 q36 3 68 3 q63 -3 69 -62 q-3 -44 -54 -55 q-41 -4 -127 -9 q14 -224 14 -287 l-118 0 q-5 185 -10 281 l-130 -6 q-62 -3 -183 -7 q-24 -129 -42 -268 l-118 26 l41 240 q-46 -1 -140 -1 l0 117 q83 0 161 3 q32 174 53 247 q-96 -10 -171 -11 l0 105 q84 10 185 17 q-27 20 -48 39 q-20 26 -20 45 q3 53 65 56 ZM619 503 q-6 30 -6 53 q-97 -3 -201 -8 q-5 -50 -25 -119 q-14 -54 -31 -133 q131 3 281 11 l-18 196 Z" /><glyph glyph-name="" unicode="&#x535a;" d="M260 550 q92 0 92 -59 q-3 -46 -55 -50 l-54 0 q-11 -240 -13 -530 l-101 0 q0 220 10 529 q-69 -2 -88 -4 l0 110 q28 2 92 3 l8 200 q9 54 56 60 q44 -3 50 -60 q-3 -46 -9 -199 l12 0 ZM787 755 q-1 1 -1 4 q3 46 57 49 q9 0 23 -7 q32 -19 83 -71 l-65 -75 q-25 16 -37 28 q-12 -22 -44 -25 l-140 -1 q0 -9 2 -29 l46 0 q89 0 147 -38 q53 -51 53 -122 l0 -26 q-3 -80 -28 -184 q-13 -23 -51 -23 q-51 0 -51 47 q2 16 7 28 q17 46 22 116 q0 64 -24 92 q-34 20 -90 20 l-27 -1 l1 -17 q0 -14 2 -36 l22 0 q73 0 73 -47 q-3 -36 -43 -39 l-49 0 l1 -33 l22 0 q73 0 73 -47 q-3 -36 -43 -39 l-49 0 l1 -65 l-102 0 l-1 61 q-55 -4 -76 -12 l0 86 q25 7 74 11 l-1 36 q-60 -3 -81 -6 l0 86 q23 3 78 6 q-2 32 -2 47 q-58 -9 -114 -21 q14 -126 33 -278 l-99 -19 q-35 286 -40 357 q1 46 43 49 q30 0 44 -20 q51 13 128 23 l-1 34 q-127 -6 -170 -16 l0 98 q40 8 165 14 l0 13 q0 48 46 48 q52 -2 52 -55 l0 -2 q32 0 114 2 l17 -1 ZM892 197 q51 -1 57 -51 q-3 -38 -45 -47 q-19 -3 -51 -3 q3 -24 3 -47 q0 -70 -31 -103 q-40 -39 -101 -39 q-60 0 -98 26 l-12 102 q53 -27 91 -27 q24 0 35 11 q15 11 15 36 q0 17 -5 37 q-35 -2 -106 -4 q-86 -4 -132 -4 q24 -20 63 -59 l-71 -83 q-52 39 -84 71 q-16 25 -16 40 q0 19 9 29 l-79 0 l0 97 q219 3 375 10 q-1 3 -1 10 q4 41 52 47 q29 -1 50 -28 q7 -15 12 -23 l70 2 Z" /><glyph glyph-name="" unicode="&#x4e0d;" d="M846 774 q80 -3 84 -55 q-3 -50 -58 -54 q-114 -1 -218 -3 q-5 -13 -17 -28 q-77 -72 -151 -145 q65 -99 96 -180 q31 -90 31 -187 q0 -95 -36 -137 q-45 -51 -116 -51 q-65 0 -109 22 l-13 113 q57 -21 101 -21 q27 0 42 18 q18 18 18 63 q0 67 -21 130 q-20 56 -81 145 q-127 -123 -258 -255 l-85 70 q221 252 436 440 l-192 -7 q-120 -8 -229 -9 l0 110 q237 17 776 21 ZM654 468 q19 0 38 -8 q126 -116 259 -137 l-28 -125 q-168 33 -291 151 q-30 30 -30 73 q4 42 52 46 Z" /><glyph glyph-name="" unicode="&#x5e03;" d="M854 700 q80 -3 84 -55 q-3 -51 -58 -55 q-167 -2 -245 -4 q0 -6 2 -16 q1 5 -8 -102 l21 0 q115 0 191 -44 q69 -61 69 -143 l0 -31 q-3 -91 -47 -220 q-13 -25 -54 -25 q-55 0 -55 50 q3 17 12 35 q28 60 35 142 q0 72 -35 105 q-53 22 -133 22 l-12 -1 q-2 -20 -2 -29 q-13 -198 -15 -414 l-114 0 q0 166 15 430 q-97 -19 -195 -65 q14 -117 33 -268 l-105 -17 l-40 294 l-90 -128 l-85 70 q118 193 221 335 q-93 -8 -178 -9 l0 110 q98 11 267 19 q38 52 76 97 q29 26 57 26 q44 -6 50 -50 q-1 -27 -24 -54 q-7 -8 -9 -13 q118 4 371 8 ZM513 458 q4 79 7 112 q0 4 2 12 l-121 -5 l-133 -188 l10 -4 q107 52 235 73 Z" /><glyph glyph-name="" unicode="&#x6b65;" d="M494 815 q63 -3 63 -66 q2 -10 6 -59 q64 7 191 10 q80 -3 84 -55 q-3 -51 -58 -55 q-117 -1 -186 -8 q-12 -3 -23 -3 l5 -88 q81 2 249 4 q93 0 93 -61 q-3 -47 -56 -51 q-122 0 -290 -2 q-3 -27 -6 -91 q0 -53 1 -75 q108 51 206 100 q23 16 47 19 q49 -6 55 -52 q0 -51 -32 -69 q-144 -86 -665 -315 l-62 120 q181 74 335 144 q-2 33 -2 128 l0 11 q0 45 5 77 q-259 -7 -349 -26 l0 112 q64 8 129 13 l-24 126 q3 75 56 81 q38 0 50 -26 q12 -24 12 -48 l22 -127 l105 5 l-7 137 l-7 99 q-3 20 -3 34 q0 57 56 57 ZM248 352 q49 -3 55 -51 q-5 -41 -79 -181 l-100 42 q10 39 67 146 q19 41 57 44 Z" /><glyph glyph-name="" unicode="&#x90e8;" d="M753 794 q73 0 117 -44 q52 -57 52 -119 q0 -73 -81 -157 q98 -66 98 -173 q0 -82 -69 -130 q-65 -50 -156 -50 q-16 0 -27 5 l4 -223 l-109 0 q-3 270 -7 376 l-7 185 q-2 24 -2 64 q0 51 51 51 q56 -2 56 -61 q3 -45 11 -266 q0 -17 1 -24 q12 -3 23 -3 q44 0 82 26 q36 21 36 50 q0 33 -14 69 q-18 30 -52 42 q-26 9 -31 36 q0 25 12 37 q22 20 50 61 q18 29 18 56 q0 88 -83 88 q-80 0 -167 -63 l-13 109 q121 58 207 58 ZM253 803 q35 -3 107 -102 l84 1 q75 -3 78 -51 q-1 -48 -53 -51 l-9 0 q-5 -45 -43 -160 l34 0 q88 0 88 -58 q-3 -44 -53 -47 q-356 0 -440 -18 l0 105 q29 4 89 9 q-15 118 -18 157 q-18 -2 -49 -2 l0 101 q48 5 152 10 l-5 5 q-20 26 -20 47 q3 51 58 54 ZM355 598 q-92 -2 -132 -4 l20 -158 q19 0 65 2 q11 52 47 160 ZM144 284 q30 -1 42 -21 q48 9 109 12 l26 0 q42 0 76 -6 q33 -10 67 -41 q34 -42 34 -109 l0 -26 q0 -67 -34 -109 q-54 -66 -145 -66 l-47 0 q-91 0 -145 36 q-59 52 -59 144 l0 11 q0 68 15 128 q21 44 61 47 ZM313 183 q-68 0 -131 -25 q-2 -14 -2 -40 q0 -67 23 -86 q26 -23 68 -23 l25 0 q53 0 74 34 q17 25 17 63 q0 37 -17 57 q-14 17 -57 20 Z" /><glyph glyph-name="" unicode="&#x624d;" d="M629 805 q42 -3 57 -50 q15 -56 23 -105 l129 1 q83 -3 87 -57 q-3 -52 -60 -56 q-100 -2 -140 -2 q11 -106 13 -237 q0 -194 -50 -285 q-51 -84 -143 -84 q-104 0 -182 51 l0 109 q74 -50 147 -50 q66 0 90 62 q25 72 25 216 l-1 34 q-153 -89 -524 -266 l-57 111 q304 136 558 275 q6 5 13 8 l-7 54 q-173 -4 -308 -11 q-125 -10 -226 -11 l0 114 q174 15 514 21 l-12 59 q-3 30 -3 45 q3 51 57 54 Z" /><glyph glyph-name="" unicode="&#x85cf;" d="M867 764 q71 -3 75 -49 q-3 -45 -51 -48 q-104 -2 -147 -2 q-10 -28 -19 -67 q4 -7 5 -13 q3 -26 9 -47 l77 1 l-13 30 q-14 14 -14 33 q3 37 40 42 q25 0 50 -23 q15 -21 38 -70 l-36 -22 q22 -12 25 -37 q-3 -44 -50 -47 l-98 -1 q21 -99 49 -187 q21 38 33 55 q15 31 51 34 q39 -3 45 -43 q0 -12 -6 -30 q-41 -71 -78 -140 q37 -91 87 -185 l-89 -45 q-31 48 -60 113 q-31 -62 -43 -92 l-94 48 q75 142 89 166 q-39 110 -76 271 l-7 33 q-140 -3 -203 -7 q-58 -5 -107 -6 q-7 -42 -19 -133 q-22 -181 -27 -380 l-98 0 q0 88 9 203 l-30 0 q-4 -18 -7 -26 q-22 -75 -37 -183 l-88 19 q24 132 39 186 q-28 -3 -40 -6 l0 92 q29 7 149 10 l22 -1 q2 28 4 42 q-7 -1 -19 -1 l-17 0 q-45 0 -78 24 q-36 30 -36 87 q0 59 42 140 q9 38 46 41 q41 -3 44 -41 q0 -10 -22 -51 q-20 -43 -20 -71 q0 -25 8 -33 q6 -10 22 -10 q21 0 40 4 q7 67 23 175 q9 54 53 58 q40 -3 47 -48 q127 7 282 11 q-4 21 -4 37 q0 14 5 24 l-24 5 q9 33 18 60 q-174 -4 -293 -9 l15 -67 l-113 -24 l-16 84 q-81 -6 -158 -6 l0 98 q60 5 138 9 q-2 10 -2 13 q3 53 48 56 q56 0 65 -61 l1 -3 q153 5 350 9 q10 23 14 27 q21 29 49 29 q46 -3 49 -50 l-1 -5 l85 1 ZM594 407 q70 0 70 -46 q-3 -35 -42 -38 l-23 0 q3 -24 9 -45 q26 -7 43 -21 q31 -28 33 -71 l0 -25 q0 -60 -33 -77 q-30 -15 -69 -18 q6 -36 10 -54 q10 1 56 8 l0 -86 q-90 -16 -156 -16 l-20 0 q-57 0 -95 38 q-31 30 -31 87 q0 184 43 352 q9 33 45 33 q35 -3 43 -27 q45 3 117 6 ZM507 4 l-13 62 q-40 4 -58 8 l0 -20 q0 -23 9 -34 q12 -16 43 -16 l19 0 ZM441 151 q52 -10 100 -13 q27 0 39 5 q14 3 14 28 q0 24 -18 33 q-17 5 -39 5 q-13 0 -90 -10 q-4 -25 -6 -48 ZM460 277 q40 4 60 5 q-6 22 -9 38 q-24 -1 -43 -3 l-8 -40 Z" /><glyph glyph-name="" unicode="&#x64cd;" d="M242 805 q45 0 48 -52 q4 -38 10 -112 l3 0 q80 -3 84 -54 q-3 -51 -58 -55 l-21 0 q6 -92 8 -133 q9 3 16 3 q30 -3 42 -19 l0 30 q0 58 35 87 q28 18 85 23 l21 0 q53 0 91 -32 q35 -30 37 -98 l0 -19 q0 -47 -31 -75 q-33 -26 -86 -26 l-28 0 q-65 0 -100 38 q-8 8 -13 22 q-7 -27 -35 -39 q-13 -10 -29 -18 q3 -94 3 -184 q-3 -173 -127 -177 q-66 0 -119 35 l-4 104 q50 -30 97 -30 q44 0 44 111 q0 26 -3 99 q-57 -17 -137 -31 l-25 114 q82 12 156 38 l-10 173 l-57 -4 q-40 -6 -77 -6 l0 110 q55 7 127 10 l-7 111 q0 53 60 56 ZM503 359 q31 0 39 8 q11 6 11 19 q0 25 -10 37 q-12 14 -34 14 q-30 0 -36 -8 q-9 -7 -9 -26 q0 -26 5 -35 q6 -9 34 -9 ZM663 811 q91 0 156 -34 q59 -32 62 -104 l0 -20 q0 -57 -52 -91 q-58 -32 -147 -32 l-46 0 q-105 0 -161 42 q-39 30 -39 93 l0 19 q0 67 57 100 q42 21 137 27 l33 0 ZM652 635 q75 0 94 10 q25 6 25 24 q0 18 -25 27 q-32 10 -91 10 q-67 0 -88 -7 q-22 -7 -22 -25 q0 -22 15 -31 q13 -8 92 -8 ZM807 528 q58 0 101 -29 q39 -30 40 -91 l0 -18 q0 -54 -32 -86 q-36 -30 -90 -30 l-29 0 q-69 0 -105 39 q-25 26 -25 86 l0 18 q0 59 35 88 q28 19 84 23 l21 0 ZM803 360 q32 0 41 13 q10 8 10 30 q0 20 -11 29 q-15 10 -42 10 q-26 0 -32 -8 q-8 -7 -8 -26 q0 -27 6 -39 q5 -9 36 -9 ZM882 241 q71 -3 75 -49 q-3 -46 -52 -49 l-194 -5 q0 -11 2 -35 q6 -145 6 -188 l-106 0 q-1 86 -3 147 q-46 -35 -202 -151 l-56 72 q63 54 148 122 l28 22 q-75 -9 -143 -12 l0 98 q76 11 218 19 q-1 9 -1 24 q0 49 48 49 q54 -1 54 -57 q0 -6 1 -11 q58 2 177 4 ZM782 102 q32 0 165 -84 l-52 -93 l-135 87 q-26 21 -28 48 q4 39 50 42 Z" /><glyph glyph-name="" unicode="&#x7b56;" d="M871 528 q74 -3 78 -51 q-3 -48 -53 -51 q-184 -3 -319 -6 q-1 -12 -1 -38 l59 3 l70 0 q89 0 143 -23 q51 -30 54 -93 q-2 -40 -22 -101 q-9 -40 -71 -40 q-40 0 -40 43 q14 41 20 81 q0 32 -112 32 q-54 0 -105 -3 q-8 -189 -8 -368 l-117 0 q0 98 1 156 q-120 -59 -351 -152 l-45 101 q191 81 398 177 q0 24 2 76 q-109 -11 -225 -35 q7 -52 18 -109 l-122 -26 q-21 143 -26 196 q3 56 51 59 q34 0 52 -20 q122 26 255 38 q0 28 1 42 q-76 -3 -156 -8 q-110 -11 -238 -14 l0 102 q144 15 398 24 q12 61 63 67 q51 -3 57 -64 q172 4 291 5 ZM659 157 q51 0 266 -134 l-57 -101 l-232 137 q-29 21 -31 52 q5 43 54 46 ZM195 809 q49 -3 52 -51 l-1 -4 q48 5 161 8 q85 0 85 -54 q-3 -44 -51 -47 l-92 -1 q16 -21 49 -69 l-80 -61 q-55 72 -90 103 q-9 8 -14 17 l-9 -1 q-24 -68 -37 -129 l-106 24 q61 211 83 234 q22 31 50 31 ZM602 813 q44 -3 50 -42 q92 4 207 5 q82 0 82 -53 q-3 -42 -48 -45 l-79 0 q28 -35 53 -73 l-80 -61 q-48 64 -79 93 q-17 15 -19 38 q-42 -1 -69 -3 q-15 -41 -24 -91 l-107 23 q47 160 62 178 q22 31 51 31 Z" /><glyph glyph-name="" unicode="&#x8336;" d="M495 579 q45 -3 48 -48 l0 -4 q22 -6 64 -20 q294 -87 331 -107 l-27 -101 q-168 60 -394 123 q-29 6 -42 22 q-148 -91 -373 -205 l-47 105 q219 119 399 223 q21 12 41 12 ZM751 288 q77 -3 81 -53 q-3 -49 -56 -53 l-190 0 q6 -37 6 -74 q0 -110 -32 -151 q-37 -46 -102 -46 q-70 0 -126 29 l22 112 q35 -24 67 -24 q15 0 27 6 q9 4 16 14 q11 19 11 79 q-2 30 -7 55 q-40 -1 -104 -1 q-58 -1 -165 -1 l0 106 l234 2 l-8 16 q-3 8 -3 13 q0 49 58 61 q48 0 63 -48 q4 -6 17 -42 l191 0 ZM310 155 q43 -6 47 -48 q-1 -25 -23 -53 q-116 -97 -156 -133 l-82 68 q78 81 159 141 q28 25 55 25 ZM698 131 q34 0 192 -100 l-57 -101 l-158 104 q-30 21 -30 52 q3 42 53 45 ZM857 739 q81 -3 84 -55 q-3 -51 -57 -54 l-164 0 q-8 -35 -19 -98 l-118 26 q8 42 15 71 q-180 -2 -232 -2 l12 -71 l-122 -25 l-14 95 q-124 -2 -180 -2 l0 109 q69 0 165 3 q-1 6 -1 14 q3 56 51 59 q62 0 71 -64 l1 -8 l276 1 q9 34 14 41 q25 34 56 34 q54 -3 57 -57 q0 -8 -3 -17 l108 0 Z" /><glyph glyph-name="" unicode="&#x67e5;" d="M227 416 q20 -3 30 -11 q99 27 239 36 l26 0 q94 0 185 -8 q103 -12 151 -56 q41 -36 41 -132 l0 -25 q0 -36 -26 -80 q-39 -56 -156 -73 q-84 -12 -214 -12 l-54 0 q-143 0 -215 32 q-96 38 -96 166 l0 10 q0 43 23 103 q19 44 66 50 ZM526 351 q-117 0 -269 -45 l162 -4 q203 -6 233 -6 q40 -11 40 -49 q-4 -42 -49 -43 q-103 0 -389 11 q13 -32 48 -44 q46 -26 205 -26 q118 0 192 10 q49 9 72 29 q19 25 19 54 q0 50 -15 68 q-30 30 -101 39 q-72 6 -148 6 ZM885 42 q54 -1 60 -53 q-3 -39 -47 -49 q-86 -6 -364 -15 q-204 -4 -434 -6 l0 101 q380 3 717 20 q48 2 68 2 ZM843 763 q71 -3 75 -49 q-3 -45 -52 -48 q-209 -2 -306 -4 l0 -10 q2 -63 4 -191 l-113 0 q0 22 -2 84 q-357 -111 -376 -111 l-18 95 q316 107 390 118 q-1 4 -1 12 q-149 -6 -135 -5 q-117 -7 -223 -9 l0 98 q106 7 352 14 l0 6 q9 62 62 68 q49 -3 55 -68 l0 -4 q93 2 288 4 ZM653 647 q51 0 269 -116 l-47 -82 q-146 70 -241 118 q-23 18 -25 42 q3 35 44 38 Z" /><glyph glyph-name="" unicode="&#x5e38;" d="M473 813 q61 0 70 -64 q2 -17 8 -43 l101 6 l23 50 q18 40 55 43 q48 -3 54 -49 q-1 -13 -14 -45 q70 -6 110 -23 q58 -31 61 -95 q-1 -38 -29 -105 q-9 -38 -68 -38 q-39 0 -39 41 q20 41 27 85 q0 42 -137 42 q-268 -6 -516 -80 q5 -33 17 -97 l-108 -21 q-22 122 -26 165 q3 49 47 52 q21 0 38 -10 q44 14 66 20 q-22 53 -22 79 q1 50 51 56 q41 -3 56 -36 q9 -31 30 -72 l101 18 q-8 51 -8 62 q3 56 52 59 ZM506 548 q181 0 231 -32 q56 -35 56 -91 l0 -28 q0 -56 -39 -76 q-63 -39 -193 -42 l1 -13 q0 -5 3 -32 l79 5 l68 0 q86 0 139 -25 q50 -32 53 -98 q0 -36 -16 -110 q-9 -41 -74 -41 q-42 0 -42 44 q10 41 15 88 q0 44 -102 44 q-40 -1 -113 -5 q0 -10 2 -26 q10 -175 10 -203 l-113 0 q-3 145 -9 218 q-113 -15 -220 -42 q15 -82 26 -133 l-114 -24 q-35 203 -38 230 q3 53 48 56 q42 0 57 -31 q116 29 234 43 q-1 5 -1 14 q-3 21 -3 38 l0 2 q-116 1 -171 29 q-56 31 -56 87 l0 24 q0 64 60 97 q45 27 168 33 l54 0 ZM490 372 q110 0 177 16 q24 5 24 35 q0 21 -31 27 q-46 4 -168 4 q-112 0 -143 -11 q-24 -9 -24 -28 q0 -30 20 -34 q33 -9 145 -9 Z" /><glyph glyph-name="" unicode="&#x957f;" d="M376 42 q80 9 121 30 l0 -121 q-125 -38 -147 -38 q-89 0 -133 42 q-45 45 -45 149 q0 109 9 220 q-55 -3 -107 -3 l0 117 l120 8 q25 186 52 310 q15 47 63 51 q55 -6 58 -63 q0 -13 -8 -58 q-20 -108 -38 -235 q210 6 522 9 q86 -3 91 -59 q-3 -54 -62 -59 q-376 -3 -566 -12 q-13 -113 -13 -199 q0 -53 23 -70 q20 -19 60 -19 ZM544 261 q27 0 60 -12 q95 -61 334 -172 l-42 -128 q-263 123 -355 184 q-61 25 -61 72 q6 50 64 56 ZM796 738 q58 -3 61 -57 q-3 -36 -41 -54 q-313 -102 -331 -102 l-22 111 q282 99 333 102 Z" /><glyph glyph-name="" unicode="&#x6210;" d="M172 696 q39 -3 51 -43 l120 -8 q66 -4 165 -5 q-4 60 -4 95 q1 66 58 70 q52 -4 55 -64 q0 -71 2 -102 q45 -1 149 -1 q-33 38 -55 57 q-25 21 -25 58 q5 50 56 56 q29 0 57 -24 q30 -23 86 -98 l-64 -49 l37 0 q68 -3 74 -55 q-6 -48 -66 -54 q-165 0 -241 2 q12 -121 42 -193 q6 -18 18 -50 q57 72 121 143 q27 27 56 27 q44 -6 50 -50 q-2 -27 -23 -55 l-141 -180 q23 -35 55 -62 q42 -42 136 -81 l-54 -108 q-134 47 -216 148 l-113 -148 l-85 71 q68 103 130 186 q-38 78 -60 175 q-18 79 -27 179 q-175 3 -296 10 q-6 -56 -12 -140 q43 9 92 12 l24 0 q71 0 108 -46 q38 -53 41 -154 l0 -46 q0 -109 -45 -205 q-14 -34 -61 -34 q-49 0 -49 49 q45 114 45 192 q0 82 -22 113 q-21 21 -59 21 q-43 -2 -82 -15 q-13 -189 -14 -371 l-114 0 q0 257 37 710 q9 61 63 67 Z" /><glyph glyph-name="" unicode="&#x7a0b;" d="M562 794 q41 0 47 -32 q42 6 91 12 l18 0 q45 0 90 -7 q55 -14 91 -45 q36 -33 36 -102 l0 -16 q0 -63 -17 -102 q-17 -47 -69 -59 q-36 -13 -109 -13 l-21 0 q-134 0 -182 18 q-63 24 -63 133 l0 18 q6 113 37 160 q17 32 51 35 ZM707 672 q-63 -2 -121 -16 q-7 -28 -7 -53 q0 -53 17 -59 q50 -12 110 -12 q51 0 81 3 q27 6 35 35 l7 39 q0 43 -38 55 q-38 8 -84 8 ZM852 379 q87 0 87 -58 q-2 -44 -52 -48 l-129 -1 l-5 -66 l56 1 q87 0 87 -58 q-2 -44 -52 -48 l-100 -1 q-3 -33 -3 -65 l131 3 q77 -3 81 -53 q-3 -47 -56 -53 q-218 -3 -329 -12 q-70 -6 -130 -9 l0 105 q73 9 194 15 q0 19 2 67 q-98 -6 -129 -13 l0 105 q35 7 135 13 q2 45 4 66 q-126 -6 -167 -16 l0 105 q81 17 375 21 ZM373 801 q59 -3 62 -56 q-3 -36 -41 -55 l-73 -23 q2 -8 2 -12 l-3 -112 l24 0 q94 0 94 -62 q-1 -47 -56 -52 l-66 0 q-2 -32 -2 -48 q-2 -44 -2 -62 q51 -22 146 -81 l-60 -105 q-40 25 -88 57 q-3 -136 -3 -279 l-110 0 q0 118 3 278 q-25 -33 -73 -99 l-89 74 q66 104 138 188 q15 13 27 20 q0 36 1 54 q-103 -5 -135 -13 l0 113 q35 8 138 13 q0 29 2 93 q-109 -34 -121 -34 l-23 112 q259 88 308 91 Z" /><glyph glyph-name="" unicode="&#x6301;" d="M242 805 q45 0 48 -52 q4 -38 10 -112 l3 0 q80 -3 84 -54 q-3 -51 -58 -55 l-21 0 q6 -92 8 -133 q9 3 16 3 q50 -4 55 -54 q-2 -38 -37 -54 q-13 -10 -29 -18 q3 -94 3 -184 q-3 -173 -127 -177 q-66 0 -119 35 l-4 104 q50 -30 97 -30 q44 0 44 111 q0 26 -3 99 q-57 -17 -137 -31 l-25 114 q82 12 156 38 l-10 173 l-57 -4 q-40 -6 -77 -6 l0 110 q55 7 127 10 l-7 111 q0 53 60 56 ZM819 723 q85 0 85 -54 q-3 -44 -50 -47 l-124 0 l3 -81 l142 3 q74 -3 78 -51 q-3 -48 -54 -51 q-226 -4 -351 -17 q-59 -7 -140 -11 l0 101 q77 12 211 21 l-6 84 q-115 -3 -167 -10 l0 102 q53 5 161 8 q-1 2 -1 8 q3 75 56 81 q39 0 51 -26 q12 -24 12 -48 q0 -9 1 -13 l93 1 ZM854 331 q77 -3 81 -53 q-3 -49 -56 -53 l-16 0 q7 -59 7 -99 q0 -119 -34 -165 q-36 -50 -107 -50 q-74 0 -131 33 l20 101 q38 -29 78 -29 q17 0 33 8 q13 7 19 20 q13 24 13 99 q-1 38 -9 79 q-107 -4 -188 -11 q-71 -10 -125 -11 l0 105 q101 16 287 23 l-6 19 q-3 9 -3 15 q0 45 54 57 q44 0 59 -45 q2 -4 12 -43 l12 0 ZM487 176 q26 0 52 -23 q30 -25 77 -96 l-91 -70 q-37 54 -67 84 q-23 17 -23 53 q3 47 52 52 Z" /><glyph glyph-name="" unicode="&#x5145;" d="M834 684 q80 -3 84 -54 q-3 -51 -58 -55 q-320 -4 -513 -17 l-7 -10 q-70 -92 -70 -120 q0 -88 100 -88 q59 0 154 19 q59 10 155 35 l-37 38 q-23 17 -23 51 q5 45 51 51 q43 0 86 -46 q48 -48 129 -186 l-87 -67 q-32 47 -50 71 q-129 -38 -232 -55 q-104 -16 -150 -16 l0 -4 q-3 -23 -18 -59 q-42 -110 -73 -261 l-118 26 q67 266 92 311 q-30 12 -51 33 q-46 36 -46 113 q0 60 63 154 q-68 -4 -133 -6 l0 109 q129 15 354 24 q-18 13 -38 31 q-23 30 -23 50 q3 56 69 61 q20 0 35 -9 q48 -29 123 -100 l-25 -29 l257 5 ZM621 255 q55 -3 58 -63 q0 -6 -9 -32 q-10 -47 -10 -69 q0 -63 72 -63 q76 0 170 27 l0 -105 q-101 -28 -175 -28 l-36 0 q-54 0 -106 44 q-42 39 -42 106 q0 40 17 118 q6 62 61 65 Z" /><glyph glyph-name="" unicode="&#x521d;" d="M764 755 q87 0 123 -59 q50 -52 52 -294 l0 -33 q-1 -196 -75 -414 q-14 -44 -59 -44 q-54 0 -54 50 q75 228 75 413 q0 187 -22 242 q-27 29 -61 29 l-36 -3 q-4 -10 -7 -14 q-42 -132 -95 -373 q-47 -214 -66 -340 l-106 30 q108 520 152 674 q-53 -14 -99 -34 l-25 107 q114 54 265 63 l38 0 ZM162 798 q26 0 54 -25 q30 -25 81 -99 l-28 -21 l13 0 q55 -3 81 -31 q32 -27 32 -79 q0 -48 -41 -115 q-13 -19 -11 -17 q28 -11 108 -52 l-53 -93 q-52 29 -109 63 q-3 2 -3 3 q-4 -4 -10 -12 q6 -15 6 -32 q2 -14 5 -51 l39 1 q88 0 88 -58 q-3 -44 -53 -48 l-67 0 l1 -9 q10 -187 10 -216 l-110 0 q-3 140 -8 235 l-5 73 q-22 -22 -32 -33 q-24 -21 -46 -21 q-49 0 -49 49 q0 22 17 43 q167 170 197 229 q16 35 16 44 q0 22 -21 22 q-93 -12 -193 -61 l-24 103 q75 35 133 49 q-32 39 -47 53 q-24 20 -24 53 q4 47 53 53 Z" /><glyph glyph-name="" unicode="&#x51fa;" d="M258 739 q57 -3 60 -57 q0 -11 -17 -30 q-63 -81 -63 -106 q0 -48 44 -71 q32 -15 144 -18 l21 271 q10 64 65 70 q51 -3 57 -70 l-24 -274 l24 0 q142 0 174 35 q23 21 23 65 q0 33 -65 118 q-10 12 -12 26 q5 46 61 49 q37 0 65 -37 q76 -103 76 -200 q0 -71 -55 -112 q-66 -54 -231 -54 l-68 0 q-10 -167 -13 -296 l45 0 q158 0 195 27 q25 16 25 50 q0 27 -31 101 q-6 12 -6 23 q5 46 60 49 q39 0 66 -38 q36 -91 36 -179 q0 -62 -59 -97 q-74 -46 -250 -46 l-45 0 q-105 0 -243 8 q-118 11 -165 31 q-82 33 -82 96 q0 84 53 172 q28 34 65 37 q57 -3 60 -57 q0 -11 -12 -26 q-41 -70 -41 -95 q0 -30 50 -43 q32 -8 161 -11 q2 137 13 299 q-39 2 -78 6 q-108 11 -153 39 q-75 39 -75 120 q0 92 80 188 q28 34 65 37 Z" /><glyph glyph-name="" unicode="&#x9664;" d="M261 770 q62 0 100 -43 q45 -55 45 -118 l-1 -18 q108 113 207 193 q28 25 55 25 q42 -6 48 -48 l-1 -10 q74 -34 237 -154 l-53 -92 q-118 79 -246 167 q-78 -72 -140 -132 q63 8 239 11 q85 0 85 -54 q-3 -44 -51 -47 l-71 0 q8 -22 28 -109 l0 -2 l117 1 q74 -1 79 -50 q-3 -48 -54 -51 l-126 -1 q4 -52 4 -79 q51 -16 190 -112 l-56 -101 l-142 98 q-9 -49 -25 -76 q-34 -57 -102 -57 q-69 0 -127 35 l21 104 q36 -30 71 -30 q16 0 31 9 q12 9 18 24 q11 31 11 124 q-2 38 -4 58 q-12 -1 -30 -1 q-3 -21 -22 -47 q-91 -108 -198 -245 l-82 68 q81 117 170 217 q-18 -1 -52 -1 l0 102 q72 6 194 9 q-13 46 -27 89 q-3 11 -3 18 l0 2 q-84 -4 -114 -12 l0 79 q-9 -8 -26 -25 l-24 -23 l-54 46 q-17 -31 -37 -58 q71 -62 71 -159 q0 -75 -55 -122 q-51 -45 -122 -45 q-11 0 -15 2 q5 -185 5 -226 l-110 0 q-3 254 -9 383 l-7 188 q-3 38 -3 66 q0 50 50 50 q56 -2 56 -60 q2 -18 13 -273 l1 -26 l13 0 q28 0 51 22 q23 17 23 41 q0 30 -9 61 q-12 27 -31 37 q-25 9 -31 35 q0 23 13 36 q13 17 37 61 q13 31 13 57 q0 86 -64 86 q-65 0 -139 -56 l-13 109 q105 50 180 50 Z" /><glyph glyph-name="" unicode="&#x50a8;" d="M244 739 q60 -3 63 -58 q-3 -35 -42 -55 l-49 -29 l1 -11 q1 -12 14 -296 q11 -314 11 -387 l-107 0 q-3 244 -10 416 l-11 217 q-49 -28 -54 -28 l-24 114 q176 114 208 117 ZM375 756 q25 0 136 -78 l-59 -103 q-68 54 -101 81 q-30 21 -32 53 q4 44 56 47 ZM451 39 q8 0 36 17 q18 7 20 7 q34 -3 38 -57 q-3 -40 -24 -53 q-41 -25 -85 -25 q-112 0 -112 123 q0 30 8 79 q14 87 45 219 q3 15 3 21 q0 29 -41 29 q-11 0 -74 -39 l-13 110 q63 39 104 39 q57 0 93 -33 q37 -42 37 -95 q0 -21 -10 -73 q-29 -116 -37 -182 q-8 -45 -8 -68 q0 -19 20 -19 ZM758 706 q63 0 75 -33 q3 4 10 11 q7 7 10 11 q25 22 48 22 q38 -3 42 -42 q-1 -21 -20 -46 l-96 -114 q36 0 54 1 q69 -3 72 -47 q-3 -44 -50 -47 q-73 -1 -158 -5 l-77 -95 q43 17 89 20 l34 0 q55 0 76 -12 q39 -16 57 -62 q19 -40 19 -137 l0 -17 q0 -73 -21 -124 q-29 -70 -126 -70 l-54 0 q-75 0 -124 34 q-59 47 -59 163 l0 13 q0 31 3 61 l-26 -32 l-72 59 q74 102 138 185 q-48 -7 -91 -9 l0 94 q45 9 113 15 l-7 107 q-65 -2 -83 -4 l0 94 l78 4 q-3 38 -3 54 q2 48 45 51 q51 0 60 -55 l3 -48 l41 0 ZM780 245 q-62 0 -117 -25 l-5 -37 q37 4 76 5 q78 0 78 -51 q-2 -40 -46 -43 q-54 0 -106 -4 q6 -33 19 -46 q21 -27 91 -27 q25 0 44 9 q15 6 24 33 q7 16 8 67 q0 78 -16 104 q-10 15 -50 15 ZM776 612 l-53 0 q2 -30 3 -57 l50 57 Z" /><glyph glyph-name="" unicode="&#x5904;" d="M346 794 q47 -6 51 -52 q-1 -28 -24 -57 q-15 -24 -27 -45 q49 7 79 7 q62 -3 96 -37 q37 -32 37 -93 q0 -72 -49 -176 q-33 -69 -87 -153 q76 -40 159 -68 q177 -70 342 -72 l-13 -119 q-147 0 -350 75 q-122 45 -204 86 q-37 -53 -93 -127 q-29 -26 -55 -26 q-59 0 -59 58 q0 24 22 50 l76 107 q-17 10 -37 26 q-42 22 -45 65 q6 47 55 53 q26 0 54 -13 q18 -15 41 -30 q72 114 93 171 q21 56 21 74 q0 36 -27 36 q-65 -6 -137 -30 q-52 -89 -142 -246 l-89 74 q128 254 253 434 q30 28 59 28 ZM755 444 q-7 -138 -9 -286 l-115 0 q0 203 22 555 q9 62 64 68 q51 -3 55 -68 q-1 -31 -9 -144 q116 -71 196 -135 l-53 -107 q-66 59 -151 117 Z" /><glyph glyph-name="" unicode="&#x521b;" d="M367 805 q45 -6 51 -50 q-2 -22 -13 -41 q99 -69 221 -200 l-88 -76 q-78 87 -110 114 q-36 32 -96 75 q-3 0 -3 2 q-146 -157 -213 -230 l-88 72 q135 171 281 308 q29 26 58 26 ZM418 442 q50 0 82 -32 q30 -33 30 -78 l0 -11 q0 -38 -9 -100 q-13 -64 -27 -102 q-12 -34 -70 -34 q-42 0 -42 58 q18 53 27 99 q9 42 9 69 q0 13 -6 19 q-8 8 -17 8 q-57 -1 -116 -20 q-2 -6 -4 -20 q-18 -144 -18 -204 q0 -73 108 -73 q86 0 194 24 l0 -101 q-113 -23 -200 -23 l-42 0 q-65 0 -127 44 q-49 42 -49 110 q0 103 32 317 q7 62 61 65 q38 -2 50 -30 q51 12 109 15 l25 0 ZM681 721 q57 -1 57 -62 q2 -17 13 -240 q10 -272 10 -315 l-114 0 q-3 250 -8 340 q-3 43 -8 167 q-3 33 -3 58 q0 52 53 52 ZM869 815 q45 0 48 -53 q30 -340 30 -669 q-3 -174 -142 -180 q-75 0 -135 31 l-4 104 q55 -26 112 -26 q60 0 60 114 q0 73 -29 622 q0 54 60 57 Z" /><glyph glyph-name="" unicode="&#x6b64;" d="M358 783 q49 -3 55 -68 q1 8 -17 -237 q33 2 75 3 q74 -3 78 -51 q-3 -47 -54 -50 q-66 -3 -106 -6 q-9 -153 -12 -317 q57 12 135 42 l0 -105 q-107 -52 -196 -52 l-36 0 q-97 0 -163 74 q-55 56 -55 166 q0 175 32 328 q11 41 54 41 q52 -3 55 -47 q-1 -25 -8 -69 q-23 -121 -23 -239 q0 -69 26 -101 q21 -33 65 -42 q3 251 33 662 q9 62 62 68 ZM681 370 q-7 -81 -7 -150 q0 -111 30 -147 q23 -41 75 -41 q85 6 129 20 l0 -98 q-131 -28 -150 -28 q-97 0 -144 60 q-50 59 -50 210 q0 129 12 255 q17 182 37 295 q13 41 57 46 q50 -6 53 -57 q0 -9 -5 -49 q-18 -113 -27 -206 q110 -6 176 -20 q50 -13 53 -51 q-2 -48 -61 -51 q-101 1 -178 12 Z" /><glyph glyph-name="" unicode="&#x6b21;" d="M119 694 q14 -1 33 -5 q47 -22 164 -22 l-11 -124 q-122 0 -197 25 q-46 24 -49 73 q5 50 60 53 ZM268 244 q51 -5 56 -56 q-1 -39 -39 -57 q-53 -35 -210 -59 l-25 118 q101 12 181 45 q23 9 37 9 ZM531 801 q52 -3 55 -54 q-3 -24 -26 -61 q78 15 148 18 q99 0 163 -47 q70 -58 70 -158 q-2 -79 -64 -164 q-18 -30 -50 -30 q-46 1 -48 50 q53 112 53 135 q0 112 -140 112 q-59 0 -193 -40 q-42 -95 -72 -202 l-115 25 q125 346 165 383 q24 33 54 33 ZM637 512 q44 -3 50 -48 q0 -11 -7 -34 q-73 -138 -126 -243 q190 -109 383 -130 l-27 -116 q-239 33 -408 141 q-48 -100 -72 -160 l-106 54 q217 439 255 497 q18 36 58 39 Z" /><glyph glyph-name="" unicode="&#x4ece;" d="M445 766 q48 -3 54 -52 q0 -12 -7 -37 q-98 -192 -174 -350 q59 -30 159 -97 l-60 -104 q-107 71 -148 99 q-62 -130 -104 -236 l-113 58 q278 593 332 677 q18 39 61 42 ZM848 739 q47 -3 53 -52 q0 -16 -6 -37 q-147 -260 -223 -405 q89 -41 266 -163 l-61 -109 q-161 102 -260 167 q-80 -154 -112 -229 l-113 57 q334 643 394 729 q18 39 62 42 Z" /><glyph glyph-name="" unicode="&#x5b58;" d="M857 723 q81 -3 84 -54 q-3 -50 -57 -55 q-265 -3 -439 -9 l-165 -160 q5 -17 5 -30 q2 -16 13 -217 q9 -219 9 -283 l-121 0 q-3 203 -9 306 l-5 121 l-57 -54 l-72 92 l201 215 q-90 -6 -174 -6 l0 109 q111 9 287 15 q101 96 164 96 q50 -3 53 -58 q0 -18 -11 -32 q199 2 294 4 ZM620 559 q87 0 144 -43 q62 -51 62 -143 q-2 -58 -52 -119 l69 1 q92 0 92 -60 q-3 -46 -55 -50 l-125 0 q4 -32 4 -47 q0 -95 -35 -139 q-46 -52 -115 -52 q-81 0 -132 27 l-12 110 q71 -28 125 -28 q27 0 42 21 q17 20 17 68 q0 14 -4 38 q-217 -6 -291 -22 l0 109 q63 12 226 18 q-10 20 -10 38 q4 45 56 51 q32 -3 54 -30 l3 -5 q30 48 30 62 q0 90 -109 90 q-62 0 -206 -79 l-15 107 q126 71 237 77 Z" /><glyph glyph-name="" unicode="&#x9519;" d="M193 813 q49 -3 55 -51 q-3 -26 -13 -60 q30 2 66 3 q97 0 97 -64 q-3 -50 -58 -53 q-95 0 -146 -6 q-14 -38 -27 -71 q36 5 127 8 q98 0 98 -63 q-3 -49 -59 -54 l-55 -1 q-2 -19 -7 -86 l41 1 q98 0 98 -63 q-3 -49 -58 -54 l-87 -1 q-2 -33 -2 -91 q0 -42 8 -58 q6 -16 21 -16 q41 0 111 55 l0 -118 q-67 -54 -107 -54 l-21 0 q-58 0 -97 48 q-32 41 -32 131 q0 65 2 97 q-62 -6 -86 -15 l0 118 q22 7 91 14 q2 42 6 84 q-31 -5 -41 -10 l0 40 l-89 37 q14 78 108 309 q18 41 56 44 ZM769 706 q9 49 16 64 q23 31 51 31 q49 -3 52 -50 q-1 -15 -8 -46 q61 -9 61 -56 q-3 -44 -52 -48 l-31 0 q-12 -58 -21 -127 l17 0 q91 0 91 -59 q-3 -46 -54 -50 q-367 0 -465 -13 l0 110 q32 3 98 6 q0 80 1 128 l-60 -4 l0 106 l62 3 l0 34 q9 57 58 63 q46 -3 52 -63 l-1 -31 q33 0 133 2 ZM750 601 q-90 -2 -117 -2 q-2 -84 -2 -128 q28 0 98 2 l21 128 ZM519 325 q28 0 40 -18 q65 11 129 12 q54 0 112 -7 q46 -6 85 -41 q43 -29 43 -161 l0 -18 q0 -83 -62 -128 q-58 -47 -163 -47 l-22 0 q-138 0 -202 59 q-46 42 -46 129 q0 67 33 175 q12 42 53 45 ZM683 221 q-32 0 -136 -21 q-5 -23 -5 -26 q94 -5 161 -15 q40 -10 43 -41 q-2 -40 -49 -41 q-88 1 -154 9 q6 -29 23 -43 q32 -29 120 -29 q80 0 108 27 q28 23 28 79 q-6 83 -51 92 q-48 9 -88 9 Z" /><glyph glyph-name="" unicode="&#x642d;" d="M229 805 q45 0 48 -52 l9 -112 q74 -4 79 -54 q-3 -50 -57 -55 l-15 0 l7 -131 l11 1 q41 -3 50 -36 q114 113 241 211 q28 25 54 25 q40 -6 47 -41 q74 -23 253 -124 l-53 -93 q-133 68 -253 132 q-74 -64 -110 -96 l205 0 q85 0 85 -55 q-3 -44 -51 -47 l-290 0 l0 57 q-29 -27 -77 -69 l-58 49 q-9 -13 -26 -21 q-12 -10 -24 -17 q3 -93 3 -185 q-3 -173 -119 -177 q-62 0 -112 35 l-4 104 q45 -30 89 -30 q36 0 36 111 q0 25 -3 97 q-56 -18 -120 -29 l-25 114 q71 11 140 37 l-8 174 l-49 -4 q-37 -6 -70 -6 l0 110 q50 7 113 10 l-6 111 q0 53 60 56 ZM895 747 q56 -3 62 -55 q-3 -42 -49 -51 q-33 0 -56 1 q-11 -59 -16 -98 l-103 23 l14 75 l-91 0 q-60 0 -90 1 q2 -24 8 -72 l-104 -18 q-2 11 -13 90 l-101 0 l0 106 l89 0 q8 56 51 60 q36 0 48 -24 q8 -17 10 -36 q75 -1 215 -1 q7 26 10 32 q21 29 50 29 q46 -3 49 -50 q0 -4 -2 -12 l19 0 ZM485 231 q30 0 43 -18 q59 17 108 20 l21 0 q153 0 207 -39 q48 -32 47 -105 l2 -16 q0 -84 -40 -115 q-42 -34 -209 -34 l-68 0 q-103 0 -144 29 q-35 29 -35 95 l0 22 q0 51 13 120 q18 41 55 41 ZM671 135 q-65 0 -140 -21 q-5 -25 -5 -47 q0 -25 13 -31 q21 -14 76 -14 l37 0 q89 0 128 14 q24 11 24 44 q-3 34 -29 45 q-33 10 -104 10 Z" /><glyph glyph-name="" unicode="&#x6253;" d="M238 794 q45 0 48 -54 q4 -26 16 -125 l5 0 q91 0 91 -60 q-3 -47 -54 -50 l-31 0 l8 -99 q12 3 21 3 q53 -5 56 -57 q-1 -38 -39 -56 q-20 -10 -31 -14 q5 -112 5 -198 q-3 -172 -132 -177 q-69 0 -123 27 l-4 106 q49 -23 101 -23 q48 0 48 111 q0 15 -7 123 q-59 -13 -140 -24 l-25 119 q77 8 156 28 l-10 128 q-109 -6 -143 -18 l0 110 q38 11 134 17 l-5 62 q-4 48 -6 64 q0 54 61 57 ZM847 728 q97 0 97 -63 q-3 -49 -58 -54 l-133 -1 q21 -73 32 -115 q29 -125 29 -251 q0 -188 -46 -255 q-48 -78 -145 -78 q-100 0 -180 47 l22 104 q63 -42 123 -42 q31 1 58 15 q23 12 33 36 q22 47 22 191 q-6 163 -74 346 q-158 -6 -212 -18 l0 118 q98 16 432 20 Z" /><glyph glyph-name="" unicode="&#x2f24;&#x5927;" d="M857 610 q81 -3 84 -55 q-3 -49 -57 -54 q-233 -3 -395 -9 l-76 -137 q144 -92 525 -269 l-41 -121 q-404 190 -543 283 q-115 -212 -166 -326 l-113 58 q161 305 272 506 q-24 -3 -44 -3 q-121 -9 -233 -12 l0 110 q136 13 342 20 q72 129 97 162 q18 39 61 42 q48 -3 54 -51 q0 -13 -7 -38 l-64 -111 q178 4 304 5 Z" /><glyph glyph-name="" unicode="&#x5355;" d="M184 647 q26 -3 40 -17 q44 17 84 30 q-38 32 -60 53 q-18 27 -18 44 q3 53 68 58 q14 0 27 -8 q37 -25 97 -86 l-35 -41 q56 11 103 14 l101 0 q35 52 72 94 q32 29 66 29 q50 -6 56 -57 q-3 -29 -27 -62 l-19 -24 q70 -21 104 -71 q40 -46 40 -167 l0 -20 q0 -91 -48 -154 q-61 -86 -274 -86 l0 -57 q124 3 236 9 q48 2 68 2 q60 -3 67 -58 q-3 -44 -52 -54 q-81 -6 -318 -12 l0 -95 l-117 0 l-1 92 q-121 -3 -372 -5 l0 111 q214 2 372 7 l0 60 q-137 1 -224 36 q-115 49 -115 169 l0 16 q0 107 23 206 q18 38 56 44 ZM558 492 l72 -4 q48 -12 48 -59 q-6 -49 -61 -50 q-34 0 -58 1 q0 -59 1 -91 l0 -6 q62 0 114 11 q46 6 74 45 q22 21 25 90 q0 108 -53 140 q-34 20 -165 20 l3 -97 ZM442 385 q-92 3 -226 12 q6 -65 61 -89 q47 -21 166 -24 l-1 101 ZM441 582 q-118 -15 -215 -60 q-2 -12 -2 -16 q61 -3 160 -6 q28 -1 58 -3 l-1 85 Z" /><glyph glyph-name="" unicode="&#x4f46;" d="M331 798 q61 -3 64 -59 q-3 -36 -43 -57 l-85 -62 q2 -14 2 -22 q1 -12 14 -301 q12 -304 12 -394 l-113 0 q-3 268 -11 424 l-11 217 q-77 -55 -86 -55 l-23 115 q238 190 280 194 ZM506 774 q30 0 43 -19 q63 20 108 21 l18 0 q42 0 98 -7 q59 -12 106 -65 q57 -70 57 -217 l0 -45 q0 -66 -11 -121 q-15 -72 -45 -108 q-29 -47 -92 -70 q-47 -16 -103 -19 l-33 0 q-114 0 -186 60 q-76 69 -76 190 l0 15 q0 119 61 330 q15 55 55 55 ZM666 678 q-40 0 -121 -31 q-23 -63 -34 -129 q92 -3 178 -13 q50 -13 53 -51 q-1 -48 -60 -51 q-99 0 -182 8 q-1 -9 -1 -25 l0 -15 q0 -76 39 -111 q45 -39 108 -39 l33 0 q32 0 65 12 q30 10 46 43 q23 31 29 83 q7 53 7 93 l0 29 q0 116 -29 150 q-26 32 -72 41 q-31 6 -59 6 ZM865 57 q80 -3 84 -54 q-3 -49 -57 -55 q-247 -3 -373 -18 q-89 -8 -150 -11 l0 109 q144 23 496 29 Z" /><glyph glyph-name="" unicode="&#x6863;" d="M394 723 q28 0 56 -26 q39 -46 102 -163 l-100 -61 q-50 110 -89 164 q-15 17 -15 38 q3 43 46 48 ZM903 719 q44 -6 50 -49 q-2 -27 -23 -55 l-107 -142 l-85 71 q56 89 109 149 q28 26 56 26 ZM645 809 q48 -3 54 -67 q0 -13 5 -116 q2 -49 4 -149 q100 0 159 -59 q59 -57 59 -191 l0 -80 q0 -131 -53 -179 q-66 -49 -163 -49 l-22 0 q-174 5 -321 57 l19 106 q139 -49 303 -58 q68 0 98 26 q29 24 29 107 q0 144 -44 186 q-31 29 -101 29 q-72 0 -240 -49 l-21 105 q97 29 186 40 q-3 91 -14 274 q9 61 63 67 ZM658 261 q88 0 88 -57 q-3 -44 -53 -48 q-223 0 -283 -5 l0 105 q64 4 248 5 ZM288 614 q90 0 90 -59 q-3 -44 -54 -49 l-44 0 q2 -73 4 -107 q26 -3 120 -61 l-58 -103 q-37 27 -59 44 q6 -274 6 -364 l-111 0 q-6 351 -5 327 q-44 -42 -66 -62 l-68 87 l44 39 q29 25 43 38 q24 23 44 31 l-1 47 q-2 56 -2 80 q-85 -6 -112 -16 l0 107 q35 10 109 16 q-2 44 -2 63 q-3 48 -3 85 q0 52 52 52 q56 -2 56 -61 l6 -134 l11 0 Z" /><glyph glyph-name="" unicode="&#x5bfc;" d="M623 802 q121 0 182 -41 q55 -37 55 -118 q0 -78 -43 -109 q-59 -37 -146 -37 q-233 0 -402 20 q6 -40 31 -65 q30 -31 113 -31 q175 0 467 43 l0 -102 q-87 -15 -180 -25 q5 -8 13 -28 q4 -16 10 -52 l161 0 q67 -3 73 -55 q-6 -48 -65 -54 q-107 0 -157 1 l1 -54 q0 -101 -41 -150 q-39 -44 -112 -44 q-80 0 -144 29 l0 114 q54 -30 108 -30 q43 0 57 23 q15 24 15 77 l-1 36 q-307 3 -546 18 l0 109 q59 0 215 -12 q80 -5 316 -7 l-6 28 q-1 8 -1 19 q0 10 4 22 q-89 -8 -193 -8 q-135 0 -192 57 q-60 62 -60 154 q0 146 31 253 q18 38 54 38 q52 0 55 -42 q159 23 328 23 ZM279 677 q-6 -34 -9 -60 q181 -23 366 -23 q60 0 93 13 q22 9 22 36 q0 31 -23 46 q-38 16 -127 16 q-173 -5 -322 -28 ZM273 143 q42 -3 123 -108 l-79 -75 q-52 36 -87 74 q-21 27 -21 48 q3 58 64 61 Z" /><glyph glyph-name="" unicode="&#x5230;" d="M498 741 q80 -3 84 -55 q-3 -51 -58 -55 q-138 -2 -199 -4 q-4 -8 -11 -15 q-82 -98 -99 -131 q-16 -29 -16 -46 q0 -14 22 -14 q66 0 170 26 l-12 13 q-22 16 -22 47 q4 43 49 49 q35 0 68 -36 q37 -37 101 -147 l-83 -64 l-31 48 q-67 -18 -119 -27 l8 -78 q24 0 82 2 q88 0 88 -58 q-3 -44 -53 -48 l-109 -1 q3 -52 6 -87 q73 7 112 14 q20 3 38 3 q58 -3 64 -57 q-3 -43 -51 -53 q-44 -8 -210 -25 q-113 -11 -251 -13 l0 110 q111 3 186 11 q-2 64 -4 93 q-118 -7 -162 -23 l0 105 q44 14 153 21 q-2 14 -4 47 q-2 8 -2 20 q-12 -1 -31 -1 l-26 -1 q-52 0 -81 29 q-29 28 -29 73 q0 80 106 207 q-61 -4 -117 -6 l0 109 q133 15 443 18 ZM656 661 q56 -2 56 -61 q4 -23 17 -209 q13 -229 13 -273 l-109 0 q-5 203 -13 296 l-11 146 q-4 25 -4 50 q0 51 51 51 ZM844 798 q45 0 48 -53 q38 -337 38 -654 q-3 -171 -154 -176 q-80 0 -143 39 l-4 104 q59 -34 121 -34 q70 0 70 110 q0 64 -37 607 q0 54 61 57 Z" /><glyph glyph-name="" unicode="&#x9053;" d="M445 811 q38 -3 51 -33 q11 -24 33 -54 q40 0 144 2 q9 18 24 45 q18 39 54 42 q46 -3 52 -48 q-2 -13 -12 -38 l59 1 q69 -3 72 -47 q-3 -44 -50 -47 q-164 -2 -215 -2 l-6 -17 q-4 -10 -10 -32 q46 -2 67 -4 q69 -10 125 -53 q66 -57 66 -173 l0 -35 q0 -48 -11 -87 q-18 -52 -51 -78 q-35 -34 -103 -50 q-43 -11 -117 -14 l-35 0 q-123 0 -201 51 q-82 58 -82 160 l0 11 q0 80 51 225 q14 53 52 53 q30 0 44 -22 q50 11 88 15 l15 48 l-77 -1 q-93 -5 -160 -5 l0 93 q68 2 97 4 q-11 22 -11 38 q1 46 47 52 ZM582 490 q-53 0 -149 -27 l-11 -33 q95 7 226 10 q71 0 71 -46 q-3 -35 -42 -38 q-181 0 -271 -10 q-2 -12 -2 -31 q71 7 244 10 q71 0 71 -46 q-3 -35 -42 -38 q-154 0 -252 -7 q10 -13 24 -20 q50 -31 123 -31 l39 0 q45 0 81 8 q38 6 58 26 q28 20 35 52 q9 29 9 58 l0 20 q0 84 -39 108 q-34 23 -95 31 q-56 4 -78 4 ZM176 446 q53 -3 54 -52 q0 -18 -15 -86 q-14 -73 -14 -121 q0 -80 41 -114 q37 -37 127 -37 q240 0 533 44 l0 -108 q-274 -42 -519 -42 l-37 0 q-104 0 -177 52 q-81 63 -81 183 q0 104 29 230 q12 48 59 51 ZM139 704 q25 0 138 -73 l-64 -113 q-34 24 -102 76 q-31 24 -33 58 q6 49 61 52 Z" /><glyph glyph-name="" unicode="&#x5fb7;" d="M848 778 q78 0 78 -51 q-3 -40 -47 -43 q-88 0 -206 -2 l-15 -34 q-3 -6 -3 -8 q39 0 75 -3 q67 -6 119 -36 q63 -39 63 -120 l0 -24 q0 -29 -10 -56 q-15 -35 -43 -51 q-29 -22 -87 -32 q-41 -8 -97 -9 l-34 0 q-121 0 -196 34 q-80 40 -80 110 l0 7 q0 48 24 136 q12 49 49 49 q28 0 39 -19 q44 8 64 11 l17 42 q-136 -6 -187 -18 l0 94 q63 12 229 18 l4 7 q21 35 60 37 q41 -6 45 -41 q39 0 139 2 ZM622 555 l-3 -8 q-15 -48 -24 -113 l-84 19 q12 61 21 92 l-60 -14 q-9 -39 -9 -73 l0 -7 q0 -29 45 -41 q51 -15 123 -15 l38 0 q35 0 64 4 q32 3 46 13 q23 9 29 25 q6 14 6 28 l0 12 q0 45 -37 60 l-22 6 l-2 -7 q-13 -45 -22 -114 l-84 19 q15 80 24 113 l-49 1 ZM805 294 q78 0 78 -51 q-3 -40 -47 -43 q-354 0 -438 -24 l0 94 q88 19 407 24 ZM375 161 q40 -3 46 -43 q-3 -31 -54 -143 l-84 35 q7 33 44 114 q16 34 48 37 ZM520 169 q46 0 46 -48 l-1 -8 q-14 -53 -14 -67 q0 -26 11 -34 q12 -11 50 -11 q42 0 193 36 l0 -90 q-135 -35 -184 -36 l-29 0 q-68 0 -105 28 q-38 32 -38 91 q0 28 14 95 q15 41 57 44 ZM657 176 q6 0 18 -4 q24 -18 63 -60 l-55 -64 q-39 29 -62 55 q-12 20 -12 31 q3 39 48 42 ZM824 169 q16 0 29 -9 q39 -30 100 -103 l-58 -68 q-58 42 -102 87 q-20 29 -20 49 q3 41 51 44 ZM255 778 q58 -3 61 -57 q-3 -36 -41 -54 q-185 -73 -195 -73 l-22 112 q166 69 197 72 ZM282 551 q59 -3 62 -56 q-3 -36 -41 -55 l-73 -25 l1 -12 q3 -36 11 -210 q8 -227 8 -274 l-109 0 q-3 214 -7 296 l-7 147 q-1 6 -1 19 q-50 -17 -58 -17 l-22 111 q198 73 236 76 Z" /><glyph glyph-name="" unicode="&#x5f97;" d="M844 348 q78 0 78 -50 q-3 -40 -47 -43 l-36 0 l18 -61 l29 0 q71 -3 75 -49 q-3 -46 -52 -49 l-38 0 l0 -12 q0 -99 -34 -136 q-36 -41 -108 -41 q-76 0 -135 33 l18 94 q42 -29 85 -29 q16 0 33 5 q13 5 19 15 q11 16 13 69 q-137 -3 -226 -6 q26 -35 50 -72 l-84 -64 q-34 53 -66 88 q-21 15 -21 42 q-22 -2 -63 -2 l0 97 q130 10 392 15 q-12 36 -25 62 q-257 -3 -317 -11 l0 94 q84 8 442 11 ZM272 778 q59 -3 62 -57 q-3 -36 -41 -54 q-200 -73 -212 -73 l-22 112 q180 69 213 72 ZM302 551 q58 -3 61 -56 q-3 -36 -41 -55 q-40 -13 -80 -25 q3 -34 12 -213 q9 -219 9 -283 l-114 0 q-2 132 -7 306 l-7 157 q-61 -18 -67 -18 l-22 111 q214 73 256 76 ZM508 801 q27 0 38 -20 q65 7 114 11 l12 0 q37 0 107 -5 q55 -10 92 -38 q52 -31 52 -170 l0 -33 q0 -48 -14 -70 q-20 -40 -69 -56 q-52 -23 -148 -23 l-39 0 q-134 0 -185 42 q-60 47 -60 121 l0 13 q0 73 35 175 q15 53 65 53 ZM656 702 q-70 -6 -122 -23 q-2 -6 -4 -16 q-2 -11 -3 -13 q91 -3 168 -11 q44 -10 47 -45 q-1 -42 -54 -45 q-84 0 -168 7 q6 -33 32 -50 q42 -19 139 -19 q78 0 100 19 q19 12 22 72 q0 97 -35 112 q-64 12 -122 12 Z" /><glyph glyph-name="" unicode="&#x7684;" d="M330 768 q61 -3 61 -45 q0 -43 -46 -55 q-93 -39 -156 -67 q0 -1 1 -2 q42 7 78 11 q74 0 96 -12 q34 -12 58 -51 q14 -21 21 -58 q100 201 147 271 q28 26 60 26 q46 0 49 -58 q0 -27 -22 -62 l-10 -16 q51 8 99 11 l34 0 q67 0 109 -68 q40 -72 40 -164 l0 -24 q0 -82 -25 -226 q-31 -147 -64 -231 q-12 -37 -76 -37 q-45 0 -45 63 q46 137 68 253 q21 111 21 180 q0 65 -13 102 q-15 42 -41 42 q-95 -3 -182 -33 q-46 -85 -68 -138 l-75 53 q2 -26 2 -40 q0 -195 -34 -285 q-54 -131 -164 -131 q-106 0 -154 81 q-46 83 -46 244 q0 134 44 254 q4 14 12 25 l-27 87 q191 97 248 100 ZM262 508 q-48 -7 -75 -13 q-18 -67 -23 -112 q12 -2 22 -2 l73 -7 q50 -14 50 -61 q-6 -52 -63 -54 q-19 0 -87 9 q1 -98 17 -137 q18 -52 65 -52 q61 0 83 71 q22 77 22 223 q0 111 -19 120 q-14 12 -32 13 l-33 2 ZM563 356 q35 0 183 -110 l-59 -105 q-98 73 -148 114 q-29 21 -31 53 q5 45 55 48 Z" /><glyph glyph-name="" unicode="&#x767b;" d="M303 805 q69 0 108 -30 q53 -33 53 -106 q0 -47 -54 -98 q-10 -11 -32 -31 q110 6 295 9 q-88 39 -162 96 q-27 27 -27 63 q5 35 46 39 q16 0 32 -8 q24 -17 44 -29 q17 27 38 56 q18 40 55 43 q48 -3 54 -50 q-3 -24 -51 -102 q28 -15 56 -24 q19 36 63 103 q18 39 54 42 q46 -3 52 -48 q-3 -29 -64 -131 q42 -10 76 -14 l-24 -108 q-70 11 -131 30 l1 -10 q-3 -42 -49 -45 q-372 0 -463 -20 l0 23 q-38 -28 -103 -70 q-21 -17 -42 -17 q-50 0 -50 54 q0 22 26 45 q49 25 100 59 q-34 12 -58 22 q-34 19 -37 44 q3 50 48 53 q18 0 36 -9 q56 -17 109 -35 l2 2 q50 42 50 61 q0 16 -17 31 q-19 13 -54 13 q-98 -6 -190 -40 l-23 97 q121 37 233 40 ZM227 387 q26 0 38 -15 q119 29 238 35 l38 0 q205 0 278 -35 q66 -30 64 -96 l2 -16 q0 -96 -48 -129 q-23 -17 -77 -26 q8 -10 11 -31 q-3 -16 -21 -50 l109 0 q74 -3 79 -51 q-3 -46 -54 -51 l-782 0 l0 101 l160 0 q-10 27 -10 45 q0 25 14 41 q-34 6 -58 17 q-62 32 -62 103 l0 18 q0 41 27 101 q18 39 54 39 ZM619 24 q21 34 38 57 q3 8 8 15 q-26 -2 -81 -2 l-122 0 q-60 0 -105 3 l5 -9 q12 -32 31 -65 l226 1 ZM556 305 q-129 0 -298 -31 q-6 -18 -6 -27 q0 -29 33 -35 q55 -16 193 -16 l93 0 q119 0 176 18 q32 12 32 53 q-5 25 -47 31 q-61 7 -176 7 Z" /><glyph glyph-name="" unicode="&#x7b49;" d="M755 518 q71 -3 75 -49 q-3 -45 -52 -48 q-125 -1 -226 -3 l5 -62 l298 3 q74 -3 79 -51 q-3 -48 -54 -51 q-55 -1 -153 -1 l22 -63 l63 1 q74 -3 79 -51 q-3 -48 -54 -51 l-72 -1 l1 -15 q0 -97 -39 -133 q-42 -40 -121 -40 q-83 0 -149 39 l20 98 q48 -35 97 -35 q16 0 40 4 q15 5 23 14 q15 15 15 67 q-192 -3 -306 -9 q25 -25 66 -85 l-87 -68 q-41 58 -70 86 q-23 17 -23 51 q0 3 2 11 q-46 -3 -89 -3 l0 101 q160 12 485 18 q-9 23 -24 52 q-2 4 -2 10 q-201 -3 -292 -7 q-132 -7 -226 -8 l0 101 q105 7 352 14 l-6 61 q-29 -2 -96 -4 q-108 -7 -177 -7 l0 98 q114 7 265 11 q6 68 56 74 q41 0 53 -28 q10 -21 12 -43 q60 0 210 2 ZM195 809 q49 -3 52 -51 l-1 -4 q48 5 161 8 q85 0 85 -54 q-3 -44 -51 -47 l-92 -1 q16 -21 49 -69 l-80 -61 q-55 72 -90 103 q-9 8 -14 17 l-9 -1 q-24 -68 -37 -129 l-106 24 q61 211 83 234 q22 31 50 31 ZM602 813 q44 -3 50 -42 q92 4 207 5 q82 0 82 -53 q-3 -42 -48 -45 l-77 0 q22 -27 59 -84 l-84 -64 q-48 69 -82 103 q-20 15 -20 42 l-68 -3 q-16 -50 -27 -101 l-107 23 q48 170 64 188 q22 31 51 31 Z" /><glyph glyph-name="" unicode="&#x5730;" d="M51 559 l104 -1 q4 102 7 148 q9 58 61 64 q48 -3 52 -64 l-8 -148 l36 0 q70 -3 76 -57 q-7 -50 -68 -56 l-50 0 q-7 -122 -10 -283 q24 7 31 10 q30 9 48 9 q53 -5 57 -55 q-1 -39 -39 -57 q-75 -38 -281 -63 l-25 118 q46 4 99 14 q1 128 9 307 l-99 1 l0 113 ZM656 619 q3 38 11 114 q9 59 61 65 q46 -3 52 -65 l-12 -113 q72 -6 123 -39 q58 -58 58 -133 l0 -29 q-3 -86 -34 -201 q-14 -26 -57 -26 q-56 0 -56 53 q4 20 8 31 q20 48 26 125 q0 61 -25 92 q-23 11 -55 16 q-17 -179 -20 -360 l-109 0 q0 146 19 359 q-26 -3 -74 -11 q-27 -204 -27 -304 q0 -88 31 -129 q28 -40 87 -40 q87 0 282 61 l0 -115 q-194 -55 -278 -55 l-30 0 q-72 0 -130 49 q-71 65 -71 219 q0 119 18 284 l-52 -19 l-25 107 q48 20 91 32 q14 105 20 139 q5 48 55 48 q49 0 55 -53 q0 -26 -10 -109 q25 3 68 7 Z" /><glyph glyph-name="" unicode="&#x7b2c;" d="M679 563 q65 0 102 -18 q-41 57 -72 88 q-20 15 -20 42 l-68 -3 q-16 -50 -27 -101 l-107 23 q48 170 64 188 q22 31 51 31 q44 -3 50 -42 q92 4 207 5 q82 0 82 -53 q-3 -42 -48 -45 l-77 0 q22 -27 59 -84 l-78 -59 q3 -3 9 -7 q38 -43 38 -117 q0 -73 -26 -101 q-39 -40 -119 -40 q-85 0 -123 1 q-1 -4 -1 -12 q-2 -20 -2 -30 q63 6 106 6 q92 0 156 -33 q63 -34 63 -93 q0 -60 -39 -171 l-113 11 q39 86 39 128 q0 23 -31 38 q-42 15 -96 15 q-26 0 -90 -4 q-6 -103 -6 -211 l-101 0 q0 98 4 199 l-37 -6 q-8 -2 -11 -2 q-8 -18 -19 -30 q-87 -87 -148 -154 l-82 69 q32 39 79 90 q-12 -2 -26 -2 q-104 0 -104 103 q0 80 25 186 q15 32 53 35 q43 -3 52 -31 q111 -8 230 -9 l6 97 q0 2 1 3 q-163 -16 -293 -32 l0 90 l120 18 q-49 65 -83 94 q-9 8 -14 17 l-9 -1 q-24 -68 -37 -129 l-106 24 q61 211 83 234 q22 31 50 31 q49 -3 52 -51 l-1 -4 q48 5 161 8 q85 0 85 -54 q-3 -44 -51 -47 l-92 -1 q16 -21 49 -69 l-65 -50 q184 22 346 22 ZM589 460 q-3 -53 -7 -99 q30 -1 92 -1 q40 0 55 11 q9 9 9 44 q0 36 -12 48 q-13 10 -48 10 q-39 0 -90 -3 l1 -10 ZM472 272 q-146 2 -235 7 l-14 -77 q0 -18 26 -18 q12 0 33 4 q56 10 187 29 l3 55 Z" /><glyph glyph-name="" unicode="&#x70b9;" d="M752 752 q92 0 92 -60 q-3 -46 -55 -50 q-239 0 -359 -13 q1 -24 5 -70 l40 3 l71 0 q125 0 175 -14 q90 -18 130 -67 q44 -42 44 -151 l0 -19 q0 -74 -50 -129 q-64 -72 -287 -72 l-104 0 q-147 0 -239 31 q-114 45 -114 153 l0 15 q0 99 36 198 q18 41 59 47 q38 -3 50 -27 q44 11 79 18 l-16 186 q3 72 53 78 q37 0 49 -25 q12 -22 12 -46 l0 -2 q100 11 329 16 ZM534 453 q-168 0 -303 -42 q-13 -49 -13 -85 q0 -64 60 -85 q59 -22 250 -22 q84 0 147 9 q49 6 76 32 q23 15 26 66 q0 87 -58 111 q-40 16 -185 16 ZM289 79 q44 0 116 -30 q56 -25 90 -25 q28 0 87 25 q33 10 56 10 q39 -3 42 -54 q0 -31 -16 -49 q-58 -38 -160 -41 q-53 0 -122 30 q-61 24 -97 24 q-40 0 -75 -8 q-35 -8 -101 -39 l-12 110 q45 25 85 35 q48 12 107 12 ZM803 102 q27 0 53 -23 q30 -25 82 -96 l-91 -70 q-41 56 -74 84 q-23 17 -23 52 q4 47 53 53 Z" /><glyph glyph-name="" unicode="&#x6389;" d="M242 805 q45 0 48 -52 q4 -38 10 -112 l3 0 q80 -3 84 -54 q-3 -51 -58 -55 l-21 0 q6 -92 8 -133 q9 3 16 3 q50 -4 55 -54 q-2 -38 -37 -54 q-13 -10 -29 -18 q3 -94 3 -184 q-3 -173 -127 -177 q-66 0 -119 35 l-4 104 q50 -30 97 -30 q44 0 44 111 q0 26 -3 99 q-57 -17 -137 -31 l-25 114 q82 12 156 38 l-10 173 l-57 -4 q-40 -6 -77 -6 l0 110 q55 7 127 10 l-7 111 q0 53 60 56 ZM850 769 q88 0 88 -57 q-3 -44 -53 -48 q-133 0 -204 -6 l7 -52 q28 -1 89 -5 q60 -9 109 -50 q57 -52 57 -165 l0 -33 q0 -39 -10 -76 q-15 -45 -44 -68 q-31 -31 -89 -43 q-23 -6 -49 -9 l1 -6 q-1 -12 -6 -42 q67 2 133 3 q77 -3 81 -53 q-3 -49 -56 -53 l-172 -3 q-5 -52 -5 -96 l-110 0 q0 47 4 92 q-38 -1 -84 -5 q-76 -6 -146 -9 l0 105 q81 10 242 16 l6 45 q0 2 1 3 q-92 3 -157 43 q-75 51 -75 138 l0 9 q0 74 24 209 q14 53 52 53 q31 0 44 -22 q24 5 49 12 l-21 143 q3 72 53 78 q37 0 49 -25 q8 -16 11 -31 q49 5 181 8 ZM667 505 q-49 0 -141 -27 q-4 -19 -8 -59 q76 4 166 5 q82 0 82 -52 q-3 -42 -49 -45 q-125 0 -202 -5 q4 -32 37 -47 q43 -20 106 -20 l33 0 q39 0 66 5 q27 4 46 20 q22 16 28 39 q7 25 7 43 l0 19 q0 71 -31 93 q-28 21 -77 27 q-44 4 -63 4 Z" /><glyph glyph-name="" unicode="&#x9876;" d="M343 746 q88 0 88 -58 q-3 -44 -53 -48 l-71 0 q47 -287 47 -556 q-3 -150 -145 -154 q-76 0 -137 43 l-4 113 q56 -38 113 -38 q68 0 68 78 q0 62 -47 511 q-106 -6 -137 -17 l0 105 q60 16 278 21 ZM837 790 q85 0 85 -55 q-3 -44 -51 -47 l-120 -1 q-4 -18 -18 -52 l32 0 q75 0 109 -34 q46 -30 47 -168 l0 -17 q-1 -105 -39 -222 q-15 -43 -59 -43 q-52 0 -52 49 q40 117 40 206 q0 87 -18 111 q-22 14 -48 14 q-89 -6 -182 -54 q-7 -73 -7 -69 q-11 -114 -13 -250 l-105 0 q0 151 23 395 q9 57 58 63 q29 -2 41 -25 q20 9 49 19 q9 27 30 75 q-139 -6 -183 -16 l0 101 q85 16 381 20 ZM718 462 q42 -3 48 -46 q0 -11 -7 -34 q-54 -149 -80 -226 l11 1 q42 0 226 -146 l-57 -100 q-144 110 -192 148 q-10 7 -16 16 q-40 -117 -56 -180 l-102 52 q144 424 169 477 q16 35 56 38 Z" /><glyph glyph-name="" unicode="&#x52a8;" d="M357 728 q98 0 98 -63 q-3 -49 -59 -54 q-243 0 -300 -24 l0 117 q57 18 261 24 ZM404 482 q98 0 98 -63 q-3 -49 -59 -54 q-68 0 -162 -2 l-3 -6 q-83 -172 -83 -223 q0 -31 20 -45 q26 -24 72 -24 q35 0 80 14 q-21 103 -24 130 q3 54 50 57 q59 0 68 -62 q24 -126 52 -244 l-117 -24 q-6 25 -9 44 q-69 -20 -119 -20 q-86 0 -139 31 q-59 43 -59 110 q0 64 77 256 q-61 -6 -86 -13 l0 118 q78 16 343 20 ZM653 690 q15 73 27 97 q23 32 52 32 q51 -3 54 -53 q-4 -41 -11 -75 q82 -12 121 -62 q52 -68 53 -230 l0 -48 q0 -193 -56 -391 q-9 -49 -65 -49 q-49 0 -49 58 q57 189 57 363 q0 171 -24 204 q-21 37 -64 46 q-69 -290 -117 -673 l-110 24 q66 426 108 642 q-63 -13 -125 -41 l-25 107 q79 37 174 49 Z" /><glyph glyph-name="" unicode="&#x90fd;" d="M337 711 q88 0 88 -58 q-3 -44 -53 -48 l-73 0 l4 -125 l3 0 q88 94 137 135 q25 22 52 22 q39 0 42 -49 q0 -40 -53 -85 l-11 -11 l18 1 q57 -3 63 -55 q-3 -42 -49 -51 q-30 -4 -150 -11 q-23 -23 -61 -63 l48 6 l11 0 q18 0 82 -4 q42 -9 70 -34 q39 -25 39 -148 l0 -28 q0 -59 -12 -86 q-15 -48 -56 -71 q-42 -25 -123 -27 l-31 0 q-105 0 -145 40 q-47 45 -47 115 l0 13 q0 24 2 36 q-5 -5 -9 -11 l-86 60 q93 110 168 195 q-70 -3 -143 -3 l0 105 q47 0 131 4 l-2 128 q-86 -3 -110 -7 l0 106 q31 3 107 6 l-1 50 q0 51 50 51 q56 -2 56 -60 q0 -17 2 -39 l42 1 ZM337 229 q-45 -4 -84 -18 q-9 -38 -10 -45 l65 1 q75 0 75 -49 q-3 -38 -45 -41 l-102 -1 q3 -33 23 -48 q27 -18 93 -18 q53 0 71 28 q14 17 15 99 q0 74 -23 83 q-42 9 -78 9 ZM766 794 q72 0 114 -44 q51 -57 51 -120 q0 -75 -77 -160 q96 -60 96 -157 q0 -84 -68 -137 q-66 -51 -155 -51 q-14 0 -25 4 l4 -226 l-109 0 q-3 270 -7 376 q-3 111 -6 185 q-2 24 -2 64 q0 51 51 51 q55 -2 55 -61 l10 -266 q0 -14 1 -20 q12 -3 22 -3 q43 0 81 28 q35 24 35 56 q0 28 -14 59 q-18 26 -51 36 q-25 9 -31 36 q0 24 13 37 q16 17 47 62 q16 32 16 57 q0 90 -79 90 q-76 0 -163 -63 l-13 109 q119 58 204 58 Z" /><glyph glyph-name="" unicode="&#x8bfb;" d="M171 788 q30 0 161 -83 l-64 -113 q-54 36 -124 86 q-32 24 -34 58 q6 49 61 52 ZM282 51 q9 0 40 17 q18 7 21 7 q37 -3 42 -65 q-3 -43 -28 -58 q-42 -24 -92 -24 q-124 0 -124 138 q0 26 7 76 q17 96 47 214 q3 14 3 20 q0 33 -46 33 q-9 0 -89 -34 l-13 123 q74 34 122 34 q61 0 104 -38 q41 -46 41 -106 q0 -21 -10 -71 q-31 -121 -38 -178 q-9 -51 -9 -65 q0 -23 22 -23 ZM785 741 q91 0 91 -59 q-3 -46 -55 -50 l-129 -1 q-4 -30 -4 -45 l52 3 l53 0 q64 0 109 -36 q45 -36 45 -90 q-1 -48 -20 -108 q-6 -40 -72 -40 q-41 0 -41 49 q13 46 13 63 q0 61 -65 61 q-106 -3 -205 -18 q36 -23 82 -83 l-63 -60 q-37 24 -71 61 q-19 23 -19 39 q0 19 10 31 q-58 -13 -106 -27 l-24 100 q89 27 196 42 q0 25 5 53 q-96 -6 -136 -17 l0 108 q45 12 158 18 l6 21 q21 60 72 63 q47 -3 53 -60 l-3 -19 q44 0 68 1 ZM829 238 q92 0 92 -60 q-3 -46 -55 -49 q-87 0 -207 -2 l-6 -11 l18 -7 q165 -64 263 -115 l-50 -101 q-120 72 -261 127 q-6 3 -14 9 q-43 -87 -61 -132 l-106 54 l89 171 q-112 -6 -157 -18 l0 110 q36 6 105 12 q-29 19 -51 41 q-18 21 -18 34 q3 48 54 51 q32 -3 98 -75 l-50 -49 q26 2 77 4 q68 130 88 157 q17 36 57 39 q44 -3 50 -47 q0 -12 -7 -35 l-60 -110 q32 0 112 2 Z" /><glyph glyph-name="" unicode="&#x5ea6;" d="M845 554 q71 -3 75 -48 q-3 -46 -52 -49 l-47 -1 q3 -27 3 -51 q0 -55 -45 -85 q-53 -40 -189 -40 l-23 0 q-58 0 -117 7 q-57 9 -80 28 q-40 27 -40 85 q0 21 1 31 q-58 -4 -110 -6 l0 98 q53 6 123 12 q8 36 13 54 q12 16 29 26 q-24 -2 -33 -2 q-78 -6 -147 -9 q-9 -158 -13 -212 q-11 -216 -13 -477 l-110 0 q0 285 26 756 q9 58 60 64 q29 -2 41 -23 q95 6 231 12 q-10 16 -10 29 q3 53 61 56 q32 -3 95 -81 l275 5 q77 -3 81 -53 q-3 -49 -56 -52 q-78 -2 -111 -2 q14 -11 23 -22 l17 -51 l42 1 ZM691 625 q-21 0 -251 -7 q25 -12 27 -44 q0 -14 -6 -31 q124 6 227 8 l-6 16 q-6 14 -6 27 q3 19 15 31 ZM558 378 q112 0 138 23 q19 14 19 42 l-1 11 q-181 -6 -274 -13 q-1 -6 -1 -14 q0 -26 16 -38 q17 -11 103 -11 ZM631 265 q103 0 170 -29 q66 -34 66 -86 q-3 -45 -47 -68 q-29 -21 -64 -38 q131 -33 154 -43 l-26 -97 q-118 34 -289 73 q-81 -28 -205 -67 q-25 -9 -47 -9 q-57 0 -57 53 q0 25 29 51 l77 18 q-38 15 -38 52 q4 43 55 49 q21 0 106 -22 l82 -19 q3 0 7 2 q117 41 133 64 q0 21 -110 21 q-132 -3 -318 -64 l-22 93 q160 55 344 66 Z" /><glyph glyph-name="" unicode="&#x7aef;" d="M683 805 q48 -3 51 -45 q0 -11 -8 -69 q-10 -49 -11 -115 q55 3 80 13 q25 8 25 40 q-5 45 -5 57 q0 37 50 41 q41 -5 56 -41 q4 -53 5 -99 q0 -46 -44 -69 q-69 -33 -195 -33 l-66 0 q-97 0 -142 26 q-40 25 -40 90 q1 43 6 92 q15 34 54 34 q43 0 49 -44 q0 -14 -3 -49 q0 -39 22 -48 q16 -7 45 -8 q3 128 24 200 q19 24 47 27 ZM867 452 q82 0 82 -53 q-3 -42 -49 -45 q-86 0 -206 -2 q-8 -25 -22 -55 q16 2 50 4 l40 0 q83 0 140 -46 q55 -58 55 -127 l0 -27 q-9 -80 -35 -153 q-18 -37 -65 -37 q-41 0 -41 53 q36 83 36 140 q0 66 -30 87 l-14 8 l-13 -78 q-13 -80 -14 -159 l-90 0 q0 93 26 249 q-36 -2 -53 -4 l-9 -85 q-8 -80 -8 -157 l-89 0 q0 94 11 227 l-67 -18 q12 -112 27 -234 l-99 -19 q-31 252 -34 312 q0 46 42 49 q31 0 46 -20 q28 8 75 19 q9 26 30 67 q-136 -7 -186 -21 l0 97 q100 22 464 28 ZM184 743 q10 0 24 -7 q34 -25 87 -82 l-46 -54 q20 0 72 2 q85 0 85 -54 q-3 -44 -51 -47 q-250 0 -312 -20 l0 102 q40 9 155 15 q-35 29 -57 52 q-16 25 -16 42 q3 48 59 51 ZM109 450 q48 0 55 -51 l35 -254 q12 2 17 4 q57 243 76 271 q20 26 44 26 q41 -3 44 -44 q-3 -26 -17 -60 q-27 -77 -49 -177 q54 -5 57 -55 q-3 -34 -40 -53 q-270 -60 -283 -60 l-22 107 l78 19 q-32 232 -36 280 q1 44 41 47 Z" /><glyph glyph-name="" unicode="&#x5bf9;" d="M851 613 q94 0 94 -62 q-3 -47 -56 -51 l-29 0 q11 -94 13 -211 q0 -200 -41 -291 q-41 -86 -113 -86 q-83 0 -146 30 l0 125 q54 -30 106 -30 q46 0 61 60 q18 69 18 210 q0 88 -18 191 q-175 -5 -224 -19 l0 113 q51 12 200 18 l-25 94 q-3 30 -3 46 q2 52 57 55 q41 -3 58 -51 q24 -66 39 -141 l9 0 ZM545 383 q30 0 59 -31 q36 -33 91 -125 l-87 -67 q-54 85 -91 122 q-23 17 -23 51 q5 46 51 50 ZM288 704 q68 0 116 -48 q53 -64 53 -126 l0 -27 q0 -74 -58 -196 q-18 -36 -36 -66 q22 -27 92 -119 l-95 -82 q-54 77 -63 89 q-58 -91 -106 -148 q-25 -23 -48 -23 q-54 0 -54 57 q0 28 23 54 q59 75 110 154 q-34 36 -105 104 q-31 23 -31 54 q3 58 60 61 q19 0 50 -22 q40 -34 88 -87 l8 16 q48 92 48 147 q0 47 -18 71 q-21 27 -45 27 q-81 -12 -170 -82 l-25 112 q92 70 206 80 Z" /><glyph glyph-name="" unicode="&#x591a;" d="M619 781 q54 0 89 -22 q46 -35 46 -108 q0 -58 -79 -104 q-178 -111 -507 -255 q-18 -9 -45 -12 q-52 0 -55 68 q0 22 30 35 q113 43 212 87 l-51 38 q-16 11 -24 28 l-127 -76 l-45 101 q210 132 382 249 q22 11 40 11 q43 -3 46 -46 l0 -2 q30 4 88 8 ZM433 664 q-30 -21 -102 -68 q42 -23 106 -67 q91 44 166 85 q39 20 42 30 q0 47 -49 47 q-68 -3 -163 -27 ZM723 529 q46 -6 50 -48 q0 -21 -5 -34 q10 0 34 2 q56 0 92 -24 q47 -39 47 -121 q0 -63 -91 -115 q-207 -121 -590 -280 q-24 -10 -52 -13 q-56 0 -59 73 q0 24 32 37 q153 55 274 107 q-53 39 -82 63 q-12 9 -18 19 l-142 -74 l-57 111 q294 144 523 279 q21 15 44 18 ZM589 172 q100 45 185 90 q47 23 50 35 q0 50 -49 50 q-72 -1 -183 -23 q-70 -40 -123 -68 q48 -30 120 -84 Z" /><glyph glyph-name="" unicode="&#x2f06;&#x4e8c;" d="M792 655 q83 -3 87 -57 q-3 -52 -60 -56 q-309 -3 -499 -13 q-104 -8 -199 -9 l0 113 q198 17 671 22 ZM872 152 q63 -3 69 -62 q-3 -44 -54 -55 q-124 -8 -380 -16 q-227 -8 -452 -8 l0 118 q408 3 747 21 q50 2 70 2 Z" /><glyph glyph-name="" unicode="&#x53d1;" d="M521 813 q48 -3 54 -52 q0 -12 -7 -37 q-42 -87 -72 -151 q58 5 83 8 q112 13 316 52 l0 -109 q-128 -29 -266 -46 q-102 -14 -186 -17 l-40 -87 l35 9 q93 21 202 24 q89 0 141 -33 q51 -36 51 -73 l0 -12 q0 -30 -17 -73 q-26 -61 -88 -132 q117 -36 228 -36 l-13 -115 q-114 0 -272 51 l-29 10 q-58 -52 -88 -77 q-28 -24 -54 -24 q-54 0 -54 58 q0 30 24 57 q33 26 43 35 q-68 29 -114 61 q-40 22 -43 63 q6 44 53 50 q29 0 53 -12 q62 -44 145 -78 l17 17 q45 43 70 86 q22 33 22 50 q0 10 -22 18 q-26 7 -61 7 q-61 0 -135 -17 q-74 -17 -153 -44 q-97 -215 -141 -333 l-114 57 q155 350 221 493 q-95 5 -142 31 q-64 33 -64 105 q0 59 18 119 q25 49 77 52 q47 -3 50 -63 q0 -7 -4 -25 q-15 -42 -15 -63 q0 -28 31 -37 q33 -10 99 -10 q74 159 99 201 q18 39 62 42 ZM700 803 q14 0 28 -7 q37 -24 98 -83 l-68 -80 q-52 34 -98 77 q-18 27 -18 43 q3 47 58 50 Z" /><glyph glyph-name="" unicode="&#x6cd5;" d="M822 653 q80 -3 84 -55 q-3 -51 -57 -54 l-146 -3 q-4 -73 -6 -149 l165 5 q83 -3 87 -57 q-3 -52 -59 -56 q-179 -5 -295 -12 l-5 -8 q-98 -116 -98 -157 q0 -79 104 -79 q77 0 169 43 q-36 59 -44 70 q-18 18 -18 42 q3 47 50 52 q30 0 61 -29 q57 -68 137 -225 l-108 -66 l-33 70 q-126 -66 -227 -66 l-21 0 q-72 0 -138 45 q-57 42 -57 109 q0 76 76 183 q-60 -7 -115 -9 l0 113 q94 17 243 26 q0 56 5 149 q-17 -2 -55 -4 q-69 -8 -130 -9 l0 109 q70 9 191 15 l6 89 q11 68 68 74 q56 -3 62 -74 q-3 -42 -7 -84 q33 0 111 2 ZM103 485 q30 0 168 -82 l-63 -110 q-83 51 -132 85 q-31 22 -33 56 q6 48 60 51 ZM146 755 q32 0 175 -85 l-62 -111 q-110 68 -140 88 q-31 24 -33 57 q6 48 60 51 ZM232 150 q52 -4 57 -56 q-1 -38 -39 -56 q-48 -32 -187 -56 l-25 118 q95 12 162 41 q20 9 32 9 Z" /><glyph glyph-name="" unicode="&#x7e41;" d="M240 817 q28 -3 37 -24 q123 -3 228 -11 q39 -10 42 -41 q-1 -39 -49 -40 q-153 2 -258 9 l-22 -22 q13 -5 19 -14 q67 7 119 8 q51 0 90 -6 q36 -4 69 -33 q24 -18 31 -77 l4 0 q40 -1 46 -40 q-3 -31 -36 -37 l-11 -1 q-3 -62 -53 -97 l1 -8 q-2 -17 -15 -29 q-51 -31 -59 -39 q-10 -9 -10 -14 q0 -9 19 -9 q34 0 78 8 q93 35 122 35 q45 -1 45 -45 q0 -21 -19 -31 q-24 -12 -64 -28 l-133 -53 q-78 -31 -78 -47 q0 -5 33 -5 q86 0 164 14 q40 5 85 17 q-6 14 -6 23 q1 43 44 48 q35 -3 47 -31 q19 -37 76 -97 l-86 -55 l-27 35 q-54 -17 -121 -28 q-12 -3 -22 -3 q3 -9 3 -15 q0 -7 -8 -36 q-9 -33 -9 -90 l-107 13 q0 75 16 117 q-14 -1 -37 -1 q-95 0 -133 26 q-39 26 -39 69 q0 46 56 78 q10 6 36 19 q-13 6 -22 15 q-24 23 -24 60 q0 21 32 47 l-4 0 q-115 0 -166 38 q-37 28 -37 83 l-61 0 l0 77 q46 0 68 1 q4 25 14 66 q-16 -16 -23 -24 l-69 58 q66 80 138 146 q23 21 46 21 ZM351 613 l50 -22 l-19 -33 q48 2 72 4 q-11 36 -34 42 q-36 9 -67 9 l-2 0 ZM307 555 q-2 0 -3 1 q-21 15 -21 34 q0 7 3 13 l-57 -13 q-4 -14 -8 -38 q44 0 86 3 ZM456 483 q-30 -2 -91 -4 l31 -15 l-23 -41 q43 5 62 22 q15 12 21 38 ZM298 423 q-1 0 -2 1 q-22 17 -23 40 q0 6 3 12 q-20 -2 -58 -2 q3 -24 20 -36 q20 -12 60 -15 ZM696 817 q38 -4 42 -42 q-2 -20 -13 -37 q91 -3 180 -11 q44 -12 44 -55 q-5 -36 -40 -39 q-18 0 -30 2 q-4 -16 -18 -34 l-65 -71 q92 -46 145 -77 l-45 -92 q-80 52 -166 96 l-84 -95 l-69 58 q21 28 65 80 q-30 15 -33 40 q3 46 44 49 q15 0 34 -8 q12 -6 18 -8 q29 33 68 72 l-117 5 q-36 -46 -53 -69 l-73 59 q60 90 117 155 q25 22 49 22 ZM233 48 q43 -1 49 -45 q-3 -19 -42 -93 l-89 37 q3 16 32 62 q16 37 50 39 ZM761 44 q18 0 36 -15 q20 -17 55 -62 l-76 -57 q-24 31 -40 46 q-19 16 -19 44 q3 39 44 44 Z" /><glyph glyph-name="" unicode="&#x70e6;" d="M100 643 q42 -3 57 -38 q8 -31 27 -71 q43 197 62 233 q24 32 53 32 q51 -2 54 -52 q-5 -64 -37 -158 l-10 -39 l28 23 q40 32 62 32 q49 -3 52 -57 q0 -31 -37 -53 q-37 -33 -94 -80 l-34 43 q-27 -114 -47 -221 l16 -7 q70 -54 146 -63 l-26 -117 q-90 15 -158 65 q-24 -140 -34 -214 l-111 24 q62 352 100 536 l-66 -42 q-56 119 -56 167 q1 51 53 57 ZM855 790 q87 0 87 -57 q-3 -44 -51 -47 l-135 -1 q-2 -14 -10 -28 q-9 -22 -19 -55 l2 0 q104 0 150 -38 q44 -39 46 -136 l0 -28 q0 -106 -21 -214 q-9 -46 -61 -46 q-46 0 -46 56 q20 98 20 185 q0 84 -19 103 q-21 24 -72 24 q-86 -3 -164 -39 q-3 -105 -4 -123 q0 -138 6 -207 l-106 0 q-6 48 -6 207 l0 23 q0 89 7 167 q9 56 58 59 q29 -1 40 -26 q29 11 51 17 q22 75 31 97 q-143 -5 -188 -13 l0 103 q92 14 404 17 ZM727 420 q46 -6 49 -52 q0 -21 -12 -39 q-38 -80 -77 -193 l9 1 q49 0 262 -136 l-53 -93 q-154 91 -231 140 q-9 6 -12 12 q-32 -95 -44 -150 l-109 31 q114 367 153 440 q22 37 65 39 Z" /><glyph glyph-name="" unicode="&#x2f45;&#x65b9;" d="M848 662 q82 -3 86 -56 q-3 -52 -59 -56 q-211 -3 -421 -10 q-3 -18 -13 -32 q-26 -53 -44 -98 q96 24 207 30 l46 0 q91 0 149 -47 q55 -52 55 -115 l0 -17 q0 -54 -19 -152 q-23 -95 -48 -156 q-12 -38 -78 -38 q-47 0 -47 65 q33 86 51 160 q16 75 16 115 q0 34 -25 53 q-31 23 -79 23 q-145 -3 -280 -51 q-12 -30 -28 -78 q-62 -177 -87 -280 l-121 35 q148 451 205 576 q-5 -1 -13 -1 q-112 -10 -229 -13 l0 112 q127 13 390 23 q-31 25 -50 43 q-27 30 -27 53 q3 60 66 63 q51 -3 151 -121 l-36 -35 q166 4 282 5 Z" /><glyph glyph-name="" unicode="&#x9632;" d="M261 778 q68 0 111 -43 q50 -58 50 -118 q0 -71 -74 -156 q77 -62 77 -160 q0 -75 -60 -122 q-56 -47 -136 -47 q-14 0 -23 4 q7 -198 7 -229 l-109 0 q-3 240 -11 378 q-11 195 -10 186 q-3 36 -3 65 q0 51 51 51 q56 -2 56 -61 l14 -269 q0 -12 1 -17 q12 -3 22 -3 q32 0 60 21 q28 19 28 43 q0 27 -10 60 q-12 26 -35 37 q-26 9 -32 36 q0 24 13 37 q22 23 45 61 q16 30 16 56 q0 86 -76 86 q-73 0 -159 -55 l-12 109 q115 50 199 50 ZM650 798 q45 -3 134 -127 l78 1 q95 0 95 -62 q-3 -47 -57 -52 q-96 0 -216 -2 q-4 -45 -27 -114 q-6 -20 -8 -30 q42 13 100 20 l25 0 q76 0 112 -50 q40 -56 43 -166 l0 -51 q0 -119 -39 -227 q-13 -33 -61 -33 q-49 0 -49 49 q39 126 39 213 q0 102 -22 140 q-23 28 -60 28 q-59 -3 -115 -36 q-39 -179 -69 -394 l-107 23 q86 499 124 625 q-88 -4 -132 -11 l0 113 q53 8 186 12 q-9 9 -10 11 q-26 35 -26 61 q3 56 62 59 Z" /><glyph glyph-name="" unicode="&#x8bbf;" d="M171 788 q30 0 161 -83 l-64 -113 q-54 36 -124 86 q-32 24 -34 58 q6 49 61 52 ZM283 55 q7 0 43 18 q19 7 23 7 q39 -3 44 -67 q-3 -45 -28 -60 q-47 -25 -99 -25 q-120 0 -120 133 q0 29 8 74 q12 69 49 209 l4 20 q0 34 -45 34 q-13 0 -99 -42 l-14 127 q80 42 133 42 q60 0 100 -36 q40 -45 40 -103 q0 -23 -11 -70 q-32 -111 -40 -174 q-10 -46 -10 -63 q0 -24 22 -24 ZM625 807 q45 -3 132 -129 l101 1 q95 0 95 -61 q-3 -47 -57 -52 q-100 0 -228 -2 q-5 -47 -28 -114 q-7 -22 -8 -29 q46 14 100 19 l28 0 q79 0 118 -50 q42 -57 45 -166 l0 -52 q0 -118 -47 -226 q-13 -33 -61 -33 q-48 0 -48 49 q46 129 46 212 q0 104 -25 141 q-24 27 -65 27 q-64 -3 -120 -32 q-43 -171 -77 -395 l-110 24 q91 494 133 622 q-112 -4 -156 -12 l0 114 q58 7 206 12 q-8 8 -11 12 q-26 35 -26 62 q3 55 63 58 Z" /><glyph glyph-name="" unicode="&#x653e;" d="M652 786 q48 -3 54 -50 q-3 -39 -33 -123 l184 2 q92 0 92 -60 q-3 -46 -54 -49 q-195 0 -264 -3 q-35 -85 -76 -182 l-98 41 q19 100 140 381 q18 40 55 43 ZM871 430 q44 0 47 -55 q0 -40 -39 -85 l-77 -100 q98 -86 141 -125 l-62 -110 l-156 129 q-81 -113 -118 -181 l-97 68 q70 110 124 190 q-34 27 -54 46 q-31 22 -33 56 q6 48 59 51 q27 0 99 -49 q69 99 107 141 q27 24 59 24 ZM194 790 q31 0 60 -26 q32 -26 90 -104 l-41 -31 l93 1 q81 -3 84 -55 q-1 -50 -57 -55 l-120 -1 q-5 -36 -25 -91 q-4 -12 -5 -17 q15 2 43 4 l21 0 q59 0 89 -48 q32 -55 34 -160 l0 -50 q0 -115 -51 -217 q-13 -33 -60 -33 q-49 0 -49 49 q51 120 51 203 q0 88 -16 123 q-15 23 -40 23 q-28 -2 -52 -9 q-43 -176 -74 -377 l-110 24 q82 436 122 572 l-19 -1 q-72 -4 -103 -4 l0 110 q105 6 152 7 q-27 30 -48 48 q-25 21 -25 58 q6 51 56 57 Z" /><glyph glyph-name="" unicode="&#x5206;" d="M367 751 q47 0 50 -60 q0 -26 -31 -60 q-149 -170 -213 -275 l-105 73 q161 222 236 295 q29 27 63 27 ZM574 781 q20 0 38 -9 q162 -141 331 -168 l-28 -125 q-211 41 -363 183 q-31 30 -31 73 q6 40 53 46 ZM615 481 q99 0 159 -51 q58 -53 58 -124 l0 -17 q0 -59 -19 -167 q-21 -104 -45 -170 q-12 -37 -77 -37 q-45 0 -45 63 q35 103 49 179 q16 83 16 127 q0 41 -29 62 q-37 26 -92 26 q-51 -1 -111 -8 l1 -12 q-3 -31 -27 -82 q-63 -153 -105 -359 l-115 25 q81 309 120 402 q-49 -14 -105 -35 l-25 108 q147 58 343 70 l49 0 Z" /><glyph glyph-name="" unicode="&#x4efd;" d="M565 762 q42 -6 48 -48 q-1 -24 -23 -52 q-87 -88 -180 -189 l-82 69 q90 111 183 195 q28 25 54 25 ZM715 464 q83 0 138 -49 q49 -54 49 -121 l0 -18 q0 -58 -22 -163 q-27 -105 -58 -167 q-10 -33 -68 -33 q-41 0 -41 56 q41 93 61 178 q19 81 19 126 q0 40 -24 61 q-30 24 -79 24 q-25 -1 -48 -3 q3 -9 3 -16 q0 -19 -12 -37 q-42 -72 -91 -201 q-46 -112 -64 -182 l-103 29 q113 312 158 393 q-73 -16 -134 -38 l-24 104 q129 48 298 57 l42 0 ZM331 798 q61 -3 64 -59 q-3 -36 -43 -57 l-85 -62 q2 -14 2 -22 q1 -12 14 -301 q12 -304 12 -394 l-113 0 q-3 268 -11 424 l-11 217 q-77 -55 -86 -55 l-23 115 q238 190 280 194 ZM692 782 q16 0 34 -8 q110 -143 225 -170 l-25 -111 q-149 41 -254 182 q-27 27 -27 66 q3 36 47 41 Z" /><glyph glyph-name="" unicode="&#x5426;" d="M834 774 q80 -3 84 -55 q-3 -50 -58 -54 q-144 -1 -258 -3 q-6 -26 -27 -38 q-20 -13 -43 -26 q5 -20 5 -33 l26 -180 l-116 -18 l-28 167 q-133 -71 -307 -153 l-45 102 q200 102 337 174 l-97 -3 q-104 -5 -221 -7 l0 109 q227 15 748 18 ZM671 590 q47 0 246 -110 l-57 -100 q-147 76 -213 113 q-29 21 -30 52 q5 42 54 45 ZM191 344 q35 -3 47 -24 q132 31 239 34 l65 0 q127 0 179 -13 q91 -17 133 -63 q44 -38 44 -140 l0 -16 q0 -74 -51 -124 q-66 -71 -294 -71 l-99 0 q-141 0 -228 30 q-109 42 -109 139 l0 15 q0 97 19 189 q16 38 55 44 ZM530 249 q-164 0 -296 -38 q-7 -48 -7 -85 q0 -56 58 -74 q56 -19 239 -19 q97 0 156 8 q51 6 81 32 q25 16 28 62 q0 77 -62 100 q-42 14 -197 14 Z" /><glyph glyph-name="" unicode="&#x670d;" d="M574 790 q29 -2 41 -27 q66 21 142 27 l29 0 q62 0 104 -39 q40 -48 40 -106 l0 -20 q-9 -66 -31 -119 q-19 -41 -71 -41 q-46 0 -46 60 q30 54 30 94 q0 38 -14 50 q-19 11 -47 11 q-66 -3 -128 -25 q-2 -112 -2 -248 q71 25 137 31 q70 0 115 -30 q57 -52 57 -96 q0 -71 -38 -152 l-25 -52 l85 -60 l-56 -98 l-86 56 l-49 -71 q-28 -28 -50 -28 q-46 0 -55 45 q0 26 20 50 q19 28 42 65 l-89 60 q-6 3 -6 6 q0 -125 5 -222 l-110 0 q-6 111 -6 480 l0 40 q0 198 2 296 q9 60 60 63 ZM622 214 q13 7 30 8 q32 0 122 -54 l19 44 q18 51 18 71 q0 52 -56 52 q-58 -9 -134 -39 q0 -56 1 -82 ZM320 786 q58 0 101 -35 q43 -43 43 -181 q0 -131 -34 -616 q-9 -47 -63 -47 q-47 0 -47 56 q34 359 34 601 q0 120 -53 120 q-56 -3 -109 -21 l4 -126 q46 -3 93 -13 q50 -13 53 -51 q-2 -48 -61 -51 q-42 0 -82 5 q0 -35 1 -51 q0 -37 2 -93 q40 -3 71 -9 q50 -13 53 -51 q-1 -48 -60 -51 q-33 0 -62 3 q3 -189 3 -260 l-109 0 q-3 329 -6 496 q-5 144 -6 244 q-2 32 -2 84 q0 51 51 51 q34 -2 46 -23 q55 16 114 19 l25 0 Z" /><glyph glyph-name="" unicode="&#x590d;" d="M315 813 q42 0 45 -52 q150 8 475 11 q66 -3 69 -45 q-3 -42 -48 -45 q-253 -3 -429 -10 q-64 -5 -135 -7 q-81 -91 -121 -153 l-94 67 q125 157 182 210 q26 24 56 24 ZM316 653 q29 0 39 -24 q91 7 168 11 l17 0 q28 0 136 -4 q69 -9 114 -33 q65 -26 65 -147 l0 -29 q0 -42 -16 -61 q-24 -34 -84 -51 q-65 -19 -180 -19 l-50 0 q-65 0 -105 4 q-6 -19 -24 -37 q-2 -3 -7 -8 q-5 -5 -7 -8 q108 22 221 29 q105 0 172 -29 q69 -33 69 -84 q-3 -45 -54 -72 q-30 -19 -74 -40 q95 -22 200 -31 l-23 -102 q-180 20 -345 67 q-105 -36 -246 -75 q-28 -9 -54 -9 q-55 0 -55 51 q0 25 29 51 q80 15 167 37 q-59 23 -121 56 q-4 3 -8 9 q-29 -34 -48 -65 l-90 63 q120 156 183 219 q-12 4 -17 7 q-77 38 -77 96 l0 12 q0 66 42 163 q15 53 63 53 ZM564 90 q135 43 153 68 q0 20 -118 20 q-92 -3 -203 -27 q80 -34 168 -61 ZM525 552 q-100 -4 -190 -24 l-6 -20 q71 5 269 8 q72 0 72 -47 q-3 -36 -43 -39 q-196 0 -303 -7 q12 -18 45 -27 q61 -13 205 -13 q112 0 143 17 q26 10 31 59 q0 75 -51 85 q-98 8 -172 8 Z" /><glyph glyph-name="" unicode="&#x8be5;" d="M171 788 q30 0 161 -83 l-64 -113 q-54 36 -124 86 q-32 24 -34 58 q6 49 61 52 ZM282 55 q9 0 46 15 q18 6 25 6 q40 -3 43 -67 q-1 -45 -27 -60 q-46 -21 -104 -21 q-124 0 -124 138 q0 27 7 77 q14 87 45 216 q3 14 3 20 q0 34 -46 34 q-10 0 -88 -43 l-14 127 q74 43 122 43 q61 0 104 -38 q41 -46 41 -106 q0 -22 -10 -72 q-30 -117 -36 -180 q-9 -49 -9 -65 q0 -24 22 -24 ZM844 545 q41 -6 47 -44 q0 -44 -28 -60 q-95 -90 -438 -332 l-53 104 q84 56 151 104 l-6 0 q-115 0 -115 107 q4 65 78 169 l-89 -4 l0 105 q59 3 208 6 q-11 9 -14 13 q-19 26 -19 44 q3 53 65 56 q14 0 27 -8 q36 -22 100 -86 l-15 -17 l118 1 q88 0 88 -58 q-3 -44 -53 -48 l-283 -1 q-97 -122 -97 -148 q0 -29 20 -29 q73 0 172 34 q64 50 96 76 q19 13 40 16 ZM896 336 q43 -6 49 -46 q0 -46 -28 -63 q-43 -39 -126 -98 q51 -31 158 -110 l-59 -104 q-114 81 -198 144 l-212 -143 l-53 107 q231 145 427 296 q19 14 42 17 Z" /><glyph glyph-name="" unicode="&#x6539;" d="M308 762 q85 0 128 -40 q45 -48 48 -136 l0 -42 q0 -84 -37 -161 q26 -15 26 -46 q-3 -46 -55 -50 q-120 0 -208 -2 q-19 -143 -19 -181 q0 -33 17 -49 q18 -19 64 -19 q60 0 197 46 l0 -109 q-127 -46 -211 -47 q-85 0 -128 37 q-44 39 -48 102 q0 179 28 319 q17 35 54 35 q37 0 48 -26 l119 3 q40 89 40 150 q0 65 -29 89 q-28 18 -76 18 q-86 -3 -170 -49 l-26 108 q91 43 208 50 l30 0 ZM666 813 q52 -3 55 -55 q-3 -26 -21 -67 q-12 -34 -17 -51 q70 3 178 6 q88 0 88 -57 q-3 -44 -53 -48 q-160 0 -243 -8 q-16 -60 -31 -138 l-114 26 q78 324 103 359 q24 33 55 33 ZM841 476 q49 -6 52 -54 q0 -19 -13 -40 q-45 -76 -96 -202 q80 -45 167 -103 l-53 -108 q-70 52 -156 106 q-36 -91 -56 -165 l-114 32 q46 123 72 190 q-28 14 -80 42 q-36 20 -39 49 q3 54 52 57 q16 0 39 -10 q40 -22 68 -35 q62 154 90 200 q24 40 67 41 Z" /><glyph glyph-name="" unicode="&#x611f;" d="M758 766 q22 -2 32 -4 q7 31 44 36 q23 0 44 -21 q24 -19 67 -83 l-77 -59 q-23 32 -40 52 q-13 -21 -46 -22 l-61 -1 q27 -87 63 -168 q14 16 42 44 q26 23 51 23 q41 -4 45 -45 q-2 -24 -22 -49 q-48 -55 -67 -75 q36 -74 84 -148 l-102 -50 q-34 51 -63 106 q-54 -62 -81 -94 l-76 62 q61 81 107 135 q-24 53 -49 125 q-31 87 -44 133 q-149 -3 -266 -8 q-64 -4 -122 -6 l-7 -60 q-6 -43 -9 -75 q-17 -151 -19 -330 l-114 0 q0 190 37 523 q9 61 63 67 q28 -2 41 -21 q150 8 375 11 q3 49 47 53 q44 -3 56 -50 l0 -2 l67 1 ZM507 612 q75 0 75 -49 q-3 -38 -45 -41 q-232 0 -291 -19 l0 89 q59 16 261 20 ZM301 477 q25 0 32 -21 q31 6 65 9 l8 0 q16 0 76 -2 q39 -6 65 -23 q37 -18 37 -100 l0 -19 q0 -35 -11 -51 q-15 -30 -53 -42 q-43 -16 -116 -16 l-24 0 q-85 0 -114 29 q-37 33 -37 86 l0 7 q0 39 18 99 q12 44 54 44 ZM393 387 q-40 -5 -72 -19 q-3 -15 -3 -26 q0 -31 17 -42 q20 -10 68 -10 q57 0 75 12 q13 9 16 47 q0 31 -23 34 q-56 4 -78 4 ZM176 161 q47 -3 53 -50 q-3 -37 -81 -169 l-97 41 q9 33 69 135 q19 40 56 43 ZM355 192 q49 0 54 -49 q-1 -9 -8 -25 q-18 -46 -18 -57 q0 -20 13 -29 q12 -12 48 -12 q53 0 116 8 q-43 55 -73 78 q-22 18 -22 51 q5 45 51 51 q27 0 54 -24 q30 -23 82 -95 l-77 -59 q81 9 193 30 q-22 17 -27 22 q-26 33 -26 55 q3 48 58 51 q22 0 39 -11 q54 -33 141 -117 l-68 -79 q-30 18 -65 42 l0 -61 q-234 -49 -390 -51 q-77 0 -115 29 q-37 30 -42 82 q0 76 29 136 q15 34 53 34 Z" /><glyph glyph-name="" unicode="&#x521a;" d="M137 758 q23 -1 35 -20 q97 31 218 40 l40 0 q88 0 132 -79 q35 -68 37 -176 l0 -43 q0 -86 -5 -209 q-7 -129 -22 -302 q-6 -41 -49 -41 q-57 0 -57 59 l13 160 l-83 -50 l-54 112 q-34 -97 -52 -165 l-102 29 q48 145 90 254 q-33 57 -76 118 q-14 14 -14 35 q3 40 41 44 q28 0 52 -24 q19 -23 42 -56 q25 62 39 86 q21 35 61 37 q43 -6 46 -49 q0 -18 -12 -36 q-30 -55 -67 -146 q42 -75 90 -168 l7 105 q6 117 6 212 q0 102 -19 146 q-22 45 -74 45 q-114 -3 -219 -43 q-3 -102 -12 -336 q0 -250 7 -362 l-103 0 q-6 84 -6 362 l0 48 q0 191 14 356 q9 54 56 57 ZM707 715 q56 -2 56 -60 q3 -21 12 -229 q10 -257 10 -298 l-109 0 q-3 212 -9 323 l-8 159 q-3 30 -3 55 q0 50 51 50 ZM883 821 q45 0 48 -53 q30 -345 30 -679 q-3 -176 -143 -182 q-74 0 -134 31 l-4 105 q57 -27 112 -27 q60 0 60 116 q0 83 -30 632 q0 54 61 57 Z" /><glyph glyph-name="" unicode="&#x544a;" d="M300 794 q46 -6 52 -52 q-2 -29 -25 -57 l-16 -22 l154 7 q-4 34 -5 50 q3 81 60 87 q41 0 53 -28 q13 -26 13 -51 q2 -38 4 -55 l197 3 q80 -3 84 -54 q-3 -51 -58 -55 q-147 -2 -215 -4 l9 -117 q75 2 231 4 q80 -3 84 -55 q-3 -51 -58 -55 q-324 -3 -503 -14 q-112 -10 -201 -11 l0 109 q111 11 326 19 l-11 116 l-106 -5 q-67 -5 -143 -7 l-91 -128 l-89 73 q100 160 195 274 q31 28 59 28 ZM207 278 q42 -4 52 -34 q136 23 247 26 l77 0 q116 0 163 -11 q81 -12 121 -50 q41 -32 41 -114 l0 -13 q0 -61 -50 -103 q-63 -57 -284 -57 l-100 0 q-141 0 -235 25 q-112 36 -112 121 l0 12 q0 78 22 153 q18 39 58 45 ZM572 169 q-182 0 -328 -30 q-4 -21 -4 -41 q0 -44 60 -59 q58 -16 247 -16 q84 0 145 6 q45 3 77 22 q23 11 26 44 q0 50 -54 65 q-34 9 -169 9 Z" /><glyph glyph-name="" unicode="&#x4e2a;" d="M524 809 q44 -6 50 -50 q-1 -20 -14 -42 q8 -4 12 -5 q319 -123 356 -148 l-31 -108 q-181 83 -422 168 q-4 0 -6 2 q-163 -157 -314 -309 l-85 70 q197 226 398 396 q28 26 56 26 ZM496 532 q61 0 70 -65 q20 -196 56 -524 l-122 -25 q-51 473 -56 554 q3 57 52 60 Z" /><glyph glyph-name="" unicode="&#x7ed9;" d="M357 117 q55 -5 59 -58 q-1 -40 -40 -58 q-74 -45 -280 -78 l-28 123 q135 16 242 59 q29 12 47 12 ZM238 270 q51 0 139 55 l0 -110 q-93 -54 -166 -54 q-60 0 -98 34 q-37 37 -37 88 q0 45 53 122 q11 15 33 40 q-27 6 -45 16 q-64 33 -64 93 q0 47 42 105 q49 64 123 113 q27 17 54 18 q57 -3 60 -39 q-2 -27 -20 -41 q-124 -124 -124 -153 q0 -14 55 -14 q14 0 30 3 q12 9 34 27 q29 24 58 27 q42 -3 57 -24 q100 116 207 212 q28 25 55 25 q43 -6 47 -48 q-2 -18 -10 -32 l36 -13 q126 -43 146 -53 q48 -12 48 -59 q-6 -49 -60 -51 q-52 0 -251 86 q-82 -84 -121 -125 q75 14 267 19 q92 0 92 -60 q-3 -46 -55 -50 q-266 0 -329 -24 l0 89 q-20 -20 -29 -30 l-58 48 l-2 -2 q-139 -114 -166 -155 q-30 -33 -30 -63 q0 -20 29 -20 ZM539 358 q29 0 42 -19 q57 22 96 23 l16 0 q41 0 93 -5 q54 -7 100 -44 q52 -49 52 -145 l0 -30 q0 -46 -8 -86 q-13 -49 -38 -77 q-25 -31 -76 -49 q-41 -10 -87 -13 l-30 0 q-104 0 -172 51 q-70 60 -70 164 l0 7 q0 64 29 170 q15 53 53 53 ZM684 256 q-35 0 -110 -28 q-12 -49 -12 -95 l0 -7 q0 -57 35 -80 q40 -28 95 -28 l31 0 q26 0 48 7 q23 6 36 23 q15 18 21 47 q5 28 5 52 l0 14 q0 56 -27 72 q-25 16 -68 21 q-38 2 -54 2 Z" /><glyph glyph-name="" unicode="&#x66f4;" d="M837 784 q77 -3 81 -53 q-3 -49 -56 -53 q-153 -1 -270 -3 l1 -11 q0 -21 -14 -41 l-2 -5 q78 -4 115 -7 q114 -15 171 -67 q47 -42 47 -157 l0 -28 q0 -48 -25 -109 q-40 -79 -153 -100 q-79 -16 -209 -16 l-66 0 q-35 0 -49 1 q-9 -27 -15 -51 q443 -61 508 -77 l-26 -96 q-234 38 -509 72 q-14 -52 -20 -84 l-117 33 q3 13 19 65 l-104 13 q-52 12 -54 57 q6 43 56 49 q27 0 133 -16 q5 20 14 47 q-61 9 -100 27 q-119 48 -119 213 l0 19 q0 68 36 174 q19 44 66 50 q35 -5 45 -31 q95 15 226 21 q2 6 22 52 l-154 -5 q-127 -7 -217 -8 l0 105 q234 16 739 20 ZM534 513 q-20 -52 -29 -79 q62 -5 97 -10 q47 -12 50 -48 q-1 -46 -58 -49 q-66 0 -125 3 q-10 -28 -28 -86 l0 -2 q26 -2 87 -2 q111 0 186 15 q47 12 67 43 q20 37 20 79 q0 59 -17 84 q-36 34 -121 45 q-57 5 -129 7 ZM351 335 q-80 3 -161 11 q14 -53 66 -71 q24 -14 70 -21 l25 81 ZM408 511 q-101 -9 -211 -31 q-4 -16 -6 -29 q131 -4 195 -8 l22 68 Z" /><glyph glyph-name="" unicode="&#x2f2f;&#x5de5;" d="M818 753 q80 -3 84 -55 q-3 -50 -57 -55 q-296 -3 -421 -8 q-5 -26 -29 -96 q-29 -107 -29 -127 q0 -15 23 -15 q186 33 282 39 q46 0 86 -46 q34 -48 34 -125 q0 -92 -38 -201 l108 1 q80 -3 84 -55 q-3 -48 -57 -54 q-379 -3 -571 -18 q-121 -9 -227 -12 l0 110 q165 17 532 26 q43 117 43 174 q0 91 -43 91 q-189 -15 -235 -29 q-37 -10 -69 -10 q-75 3 -78 73 q0 104 57 269 q-99 -5 -190 -6 l0 109 q224 16 711 20 Z" /><glyph glyph-name="" unicode="&#x529f;" d="M342 677 q92 0 92 -59 q-3 -46 -55 -50 l-84 0 l-5 -161 q-3 -87 -3 -179 q27 6 66 17 q20 4 28 4 q58 -3 64 -57 q-3 -44 -50 -53 q-41 -14 -158 -35 q-87 -18 -186 -18 l0 109 q54 3 122 13 q0 118 5 358 q-91 -3 -116 -7 l0 110 q50 5 280 8 ZM760 661 q93 0 132 -53 q52 -46 55 -261 l0 -29 q-3 -171 -60 -363 q-15 -44 -60 -44 q-54 0 -54 50 q61 201 61 358 q0 160 -25 207 q-31 25 -70 25 l-47 -3 q-36 -112 -72 -252 q-64 -240 -90 -377 l-109 31 q98 394 152 580 q-45 -10 -108 -31 l-26 107 q74 28 169 44 q22 74 38 112 q22 37 65 39 q47 -4 50 -51 q0 -19 -13 -39 l-18 -50 l30 0 Z" /><glyph glyph-name="" unicode="&#x4f9b;" d="M743 625 q16 97 26 120 q22 31 50 31 q49 -3 52 -51 q-3 -39 -16 -93 q-1 -2 -1 -5 q79 -5 79 -58 q-3 -44 -53 -48 l-46 0 q-19 -109 -32 -218 l65 1 q92 0 92 -59 q-3 -46 -55 -50 q-450 0 -562 -28 l0 109 q42 9 126 15 l-10 113 q-8 90 -9 107 q-60 -5 -85 -10 l0 105 q34 5 76 8 q-2 17 -4 53 q1 72 53 78 q37 0 49 -26 q12 -21 12 -46 q2 -34 4 -53 l189 5 ZM577 297 q82 2 118 4 l31 219 q-94 -1 -165 -3 q3 -61 16 -220 ZM526 139 q44 -6 50 -50 q-1 -26 -23 -54 q-38 -38 -122 -130 l-85 70 q57 74 124 138 q28 26 56 26 ZM761 131 q38 0 199 -98 l-60 -105 q-41 25 -164 102 q-29 21 -31 54 q4 44 56 47 ZM326 798 q61 -3 64 -59 q-3 -36 -43 -57 l-85 -62 q2 -14 2 -22 q4 -34 14 -301 q12 -304 12 -394 l-113 0 q-3 268 -11 424 l-11 217 q-77 -55 -86 -55 l-23 115 q238 190 280 194 Z" /><glyph glyph-name="" unicode="&#x516c;" d="M340 758 q47 0 50 -59 q0 -28 -32 -62 q-149 -176 -212 -281 l-105 73 q165 233 235 303 q31 26 64 26 ZM608 794 q63 0 334 -236 l-61 -108 q-173 136 -298 238 q-31 24 -32 56 q5 47 57 50 ZM445 526 q58 -3 62 -54 q0 -16 -12 -31 q-132 -189 -132 -256 q0 -130 149 -130 q92 0 200 46 q-50 94 -50 145 q1 51 53 57 q42 -3 57 -38 q45 -113 152 -278 l-105 -66 l-53 84 q-148 -71 -268 -71 l-26 0 q-87 0 -172 64 q-70 58 -70 151 q0 129 147 336 q27 38 68 41 Z" /><glyph glyph-name="" unicode="&#x6784;" d="M324 615 q92 0 92 -60 q-3 -46 -55 -49 l-57 0 q0 -37 3 -76 q25 0 134 -91 l-59 -104 q-47 42 -72 67 q7 -343 7 -387 l-113 0 l-5 351 l-82 -86 l-69 88 q48 50 98 98 q28 30 50 39 q-1 6 -1 17 q-3 42 -3 80 q-96 -6 -126 -17 l0 109 q40 10 123 16 l-1 61 q-3 48 -3 85 q0 53 52 53 q58 -2 58 -62 q2 -20 6 -133 l23 1 ZM632 794 q42 -6 48 -48 q-1 -26 -24 -53 q-3 -3 -3 -5 q20 4 60 8 l28 0 q77 0 137 -54 q69 -64 69 -224 l0 -42 q0 -102 -15 -234 q-14 -123 -34 -190 q-8 -37 -62 -37 q-43 0 -43 52 q28 125 40 258 q9 110 9 168 q0 129 -42 172 q-31 25 -91 25 q-75 -3 -142 -41 l-69 -115 l-82 69 q83 155 161 265 q28 26 55 26 ZM663 274 q28 0 57 -35 q30 -36 85 -144 l-77 -58 q-12 24 -24 45 q-79 -50 -140 -50 l-24 0 q-57 0 -84 28 q-30 27 -30 71 q0 42 29 103 q32 76 97 178 q26 30 59 32 q45 -3 51 -46 q0 -17 -15 -32 q-80 -141 -92 -170 q-12 -30 -12 -42 q0 -17 48 -17 q32 0 68 18 l-21 29 q-20 16 -20 45 q3 41 45 45 Z" /><glyph glyph-name="" unicode="&#x4f30;" d="M669 798 q52 -3 58 -70 q-10 -70 -14 -94 q41 0 141 2 q87 0 87 -57 q-3 -44 -52 -48 q-80 0 -190 -2 q-8 -81 -10 -119 q18 -2 52 -4 q63 -11 112 -52 q59 -56 59 -171 l0 -35 q0 -45 -10 -87 q-14 -52 -43 -79 q-26 -32 -85 -49 q-43 -11 -96 -14 l-34 0 q-119 0 -196 56 q-80 65 -80 179 l0 9 q0 65 34 179 q17 57 57 57 q28 0 42 -16 q36 14 70 22 q3 57 9 121 q-155 -6 -211 -20 l0 106 q63 11 222 18 l13 98 q10 64 65 70 ZM628 301 q-45 0 -132 -35 q-15 -55 -15 -105 l0 -9 q0 -64 41 -92 q47 -32 114 -32 l35 0 q29 0 57 7 q26 6 40 23 q19 17 25 47 q6 26 6 53 l0 18 q0 73 -31 95 q-28 21 -77 27 q-33 3 -63 3 ZM331 798 q61 -3 64 -59 q-3 -36 -43 -57 l-93 -68 q2 -12 2 -20 q4 -34 14 -299 q12 -303 12 -392 l-113 0 q-3 266 -11 422 l-10 213 q-71 -49 -79 -49 l-23 115 q238 190 280 194 Z" /><glyph glyph-name="" unicode="&#x6302;" d="M817 687 q88 0 88 -57 q-3 -44 -52 -48 l-122 -1 q-4 -69 -5 -101 q39 0 135 2 q92 0 92 -60 q-3 -45 -55 -49 q-399 0 -495 -21 l0 110 q60 9 208 15 l5 100 q-121 -6 -165 -20 l0 106 q48 12 172 18 q2 36 4 53 q9 62 62 67 q49 -3 55 -67 q-4 -33 -5 -49 q22 0 78 2 ZM828 254 q88 0 88 -58 q-3 -44 -53 -48 l-137 -1 q-4 -74 -5 -110 q40 0 144 2 q88 0 88 -58 q-3 -42 -53 -48 q-421 0 -515 -20 l0 105 q73 10 222 16 q0 29 4 109 q-131 -7 -181 -23 l0 105 q50 14 186 22 q0 26 3 53 q9 62 63 68 q48 -3 54 -68 l-3 -48 q27 0 95 2 ZM242 805 q45 0 48 -52 q4 -38 10 -112 l3 0 q80 -3 84 -54 q-3 -51 -58 -55 l-21 0 q6 -92 8 -133 q9 3 16 3 q50 -4 55 -54 q-2 -38 -37 -54 q-13 -10 -29 -18 q3 -94 3 -184 q-3 -173 -127 -177 q-66 0 -119 35 l-4 104 q50 -30 97 -30 q44 0 44 111 q0 26 -3 99 q-57 -17 -137 -31 l-25 114 q82 12 156 38 l-10 173 l-57 -4 q-40 -6 -77 -6 l0 110 q55 7 127 10 l-7 111 q0 53 60 56 Z" /><glyph glyph-name="" unicode="&#x5173;" d="M293 792 q45 -3 60 -39 q25 -64 83 -156 l139 3 q21 50 91 163 q21 42 59 45 q50 -3 56 -52 q-6 -40 -70 -154 l54 1 q94 0 94 -61 q-3 -48 -56 -52 l-216 -1 l-5 -19 l-100 -152 q165 6 315 15 q48 2 68 2 q59 -3 65 -57 q-3 -44 -51 -53 q-100 -8 -369 -17 q-35 -2 -101 -4 q-133 -210 -178 -301 l-113 58 q71 117 149 240 q-64 -2 -197 -2 l0 109 q96 1 268 5 q74 117 113 173 q-229 -6 -306 -21 l0 114 q49 6 146 12 q-53 96 -53 140 q1 55 55 61 ZM579 156 q65 0 337 -152 l-60 -105 q-208 106 -301 155 q-31 23 -32 54 q4 45 56 48 Z" /><glyph glyph-name="" unicode="&#x5b98;" d="M285 551 q25 -2 38 -18 q115 26 239 26 q130 0 179 -39 q40 -32 40 -80 l0 -32 q0 -83 -50 -116 q-47 -32 -131 -32 l-61 0 q-100 0 -223 15 q-2 -20 -4 -60 q101 15 318 18 q97 0 146 -32 q48 -33 48 -121 q0 -91 -53 -130 q-53 -31 -142 -31 q-164 0 -329 20 q-1 -9 -1 -28 l-106 0 q0 215 35 578 q8 58 57 62 ZM303 37 q138 -15 296 -25 q65 0 91 13 q21 12 21 55 q0 59 -99 59 q-110 0 -306 -28 q-3 -37 -3 -74 ZM326 373 q93 -12 233 -15 q70 0 95 11 q18 8 18 45 q0 28 -18 40 q-19 8 -100 8 q-126 -3 -222 -27 l-6 -62 ZM469 821 q33 -3 94 -73 q42 3 125 7 l83 0 q72 0 118 -32 q47 -40 50 -83 l0 -17 q-2 -49 -33 -143 q-10 -30 -64 -30 q-40 0 -40 38 q24 87 24 116 q0 45 -94 45 q-284 -5 -552 -64 l13 -123 l-113 -24 q-17 173 -22 234 q3 52 47 55 q45 0 60 -36 q127 29 251 43 q-10 14 -10 28 q3 56 63 59 Z" /><glyph glyph-name="" unicode="&#x5f52;" d="M156 645 q46 -3 52 -62 l-17 -137 q-12 -112 -15 -236 l-106 0 q0 138 29 373 q7 56 57 62 ZM357 799 q47 -1 53 -64 l-32 -300 q-25 -258 -28 -516 l-110 0 q0 288 57 816 q9 59 60 64 ZM756 698 q93 0 138 -98 q43 -91 43 -285 q0 -191 -42 -263 q-60 -90 -143 -90 q-176 0 -309 62 l17 109 q130 -62 253 -62 q55 0 87 62 q19 49 19 182 q0 137 -13 202 q-21 72 -75 72 q-137 -7 -265 -50 l-17 109 q145 50 307 50 ZM681 403 q94 0 94 -62 q-3 -47 -56 -51 q-232 0 -286 -27 l0 114 q51 20 248 26 Z" /><glyph glyph-name="" unicode="&#x8d35;" d="M185 751 q29 -1 41 -21 q100 20 187 28 q4 53 52 56 q53 0 67 -50 l8 0 q178 0 247 -25 q75 -24 75 -111 l0 -15 q0 -65 -57 -85 q-61 -22 -170 -22 l-83 0 q0 -16 3 -31 l299 6 q72 -3 76 -49 q-3 -46 -52 -49 q-395 -6 -577 -23 q-35 -3 -59 -6 q29 -7 41 -38 q141 32 321 40 l56 0 q77 0 135 -32 q51 -33 52 -92 l0 -7 q-3 -54 -18 -99 q-18 -50 -71 -50 q-50 0 -50 56 q21 44 21 75 q-1 29 -21 45 q-28 11 -64 11 q-187 -3 -366 -45 q-3 -9 -3 -15 q-11 -63 -13 -136 l-125 0 q0 81 23 215 q9 56 49 69 q-80 -7 -139 -8 l0 98 q122 16 361 29 q-2 24 -2 36 l-117 0 q-117 0 -159 21 q-46 24 -46 80 l0 16 q0 44 22 88 q21 37 56 40 ZM423 595 l-5 72 q-106 -10 -205 -33 q0 -24 10 -33 q9 -6 18 -6 l182 0 ZM540 674 l6 -79 l58 0 q108 0 133 12 q20 6 20 31 q0 16 -31 27 q-39 9 -177 9 l-9 0 ZM518 239 q48 -6 54 -55 q-3 -31 -26 -59 q-157 -129 -276 -234 l-93 77 q138 138 279 243 q31 28 62 28 ZM590 95 q12 0 62 -14 q207 -57 235 -69 l-30 -104 q-131 40 -270 73 q-57 15 -58 63 q6 45 61 51 Z" /><glyph glyph-name="" unicode="&#x679c;" d="M223 782 q32 -3 43 -28 q93 20 212 26 l26 0 q103 0 199 -11 q110 -17 164 -80 q45 -51 45 -184 l0 -34 q0 -47 -28 -106 q-42 -76 -165 -98 q-59 -11 -157 -14 q0 -23 2 -61 q168 4 286 5 q80 -3 84 -55 q-3 -51 -58 -54 l-98 -1 q40 -33 97 -113 l-80 -61 q-60 71 -110 111 q-21 18 -21 47 q0 8 3 14 q-54 -3 -100 -3 l4 -171 l-117 0 q-1 85 -3 167 l-126 -7 q4 -8 8 -24 q-4 -30 -85 -140 l-95 39 q10 29 75 106 q4 8 7 12 q-72 -5 -153 -7 l0 110 q126 13 367 22 q-2 44 -2 63 l-11 0 q-154 2 -226 39 q-103 46 -103 206 l0 22 q0 85 47 211 q21 46 69 52 ZM543 674 q2 -25 6 -99 l43 1 q92 0 92 -60 q-3 -46 -55 -50 l-75 0 l5 -108 q85 3 143 13 q51 12 75 42 q22 36 22 76 q0 80 -16 112 q-32 47 -112 64 q-64 6 -128 9 ZM442 381 q-3 45 -3 84 q-141 -3 -213 -9 q12 -48 52 -66 q41 -26 165 -31 l-1 22 ZM434 574 q-2 26 -2 38 q-4 42 -4 57 q-90 -10 -183 -35 q-12 -37 -18 -69 q74 6 207 9 Z" /><glyph glyph-name="" unicode="&#x8fc7;" d="M176 446 q53 -3 54 -52 q0 -18 -15 -86 q-14 -73 -14 -121 q0 -79 41 -111 q38 -36 127 -36 q240 0 533 41 l0 -112 q-274 -39 -519 -39 l-37 0 q-104 0 -177 52 q-81 63 -81 183 q0 104 29 230 q12 48 59 51 ZM139 704 q26 0 140 -87 l-64 -112 q-27 22 -104 89 q-31 24 -33 58 q6 49 61 52 ZM848 661 q74 -3 78 -51 q-3 -48 -54 -51 q-68 -2 -95 -2 l1 -4 q22 -107 22 -218 q0 -117 -33 -168 q-42 -63 -107 -63 q-79 0 -129 27 l-11 109 q66 -26 121 -26 q22 0 35 29 q14 30 14 98 q0 77 -13 160 l-13 53 q-111 -4 -183 -9 q-75 -8 -155 -10 l0 101 q106 13 305 21 l-19 51 q-16 22 -16 48 q5 45 55 51 q34 -3 54 -29 q33 -86 44 -118 l99 1 ZM422 482 q28 0 56 -26 q33 -33 83 -110 l-91 -70 q-45 67 -77 101 q-24 18 -24 52 q4 47 53 53 Z" /><glyph glyph-name="" unicode="&#x6d77;" d="M103 485 q30 0 168 -82 l-63 -110 q-83 51 -132 85 q-31 22 -33 56 q6 48 60 51 ZM146 755 q32 0 175 -85 l-62 -111 q-110 68 -140 88 q-31 24 -33 57 q6 48 60 51 ZM232 150 q52 -4 57 -56 q-1 -38 -39 -56 q-48 -32 -187 -56 l-25 118 q95 12 162 41 q20 9 32 9 ZM536 809 q42 0 45 -53 q0 -13 -10 -30 q108 6 291 9 q84 0 84 -55 q-3 -43 -50 -46 q-288 0 -403 -13 q-53 -72 -86 -132 l-93 65 q117 176 166 232 q26 23 56 23 ZM529 555 q23 0 30 -18 q67 11 121 16 q94 0 124 -15 q46 -15 74 -69 q30 -43 36 -159 q47 -11 50 -48 q-3 -47 -50 -50 q-7 -123 -42 -183 q-67 -108 -207 -108 q-143 0 -212 58 q-63 60 -63 175 q0 23 1 35 q-30 -2 -42 -2 l0 102 l53 5 q16 106 62 210 q15 50 65 51 ZM674 456 q-75 -9 -129 -24 q-24 -73 -36 -130 q58 3 134 6 q-19 13 -32 23 q-24 18 -26 46 q3 37 47 40 q19 0 100 -48 l-33 -60 l113 3 q-6 110 -29 119 q-24 20 -54 21 q-44 4 -55 4 ZM812 210 q-203 -5 -303 -13 q-6 -1 -16 -1 q-2 -14 -2 -38 q0 -81 33 -108 q35 -32 129 -32 q92 0 127 56 q28 49 32 136 ZM629 182 q21 0 115 -59 l-51 -89 l-85 62 q-25 20 -26 46 q3 37 47 40 Z" /><glyph glyph-name="" unicode="&#x548c;" d="M590 696 q22 0 31 -17 q38 13 103 23 q87 0 112 -21 q42 -21 67 -92 q32 -65 35 -270 q0 -172 -42 -247 q-70 -112 -206 -112 q-112 0 -164 88 q-49 89 -49 263 q0 172 43 329 q16 53 70 56 ZM718 596 q-59 -11 -102 -28 q-30 -151 -30 -252 q0 -145 18 -193 q21 -58 74 -58 q86 0 119 57 q31 59 31 176 q0 245 -24 263 q-19 27 -42 30 q-30 5 -44 5 ZM384 801 q58 -3 61 -56 q-3 -36 -41 -55 q-25 -7 -74 -23 q0 -5 2 -15 q-2 -31 -3 -110 l25 1 q95 0 95 -62 q-3 -48 -56 -52 l-68 0 q-2 -30 -2 -46 q-2 -44 -2 -65 q45 -20 148 -80 l-60 -105 q-39 23 -92 57 q-3 -130 -3 -268 l-113 0 q0 114 3 267 q-52 -66 -77 -99 l-89 74 q71 106 145 188 q12 12 24 18 l1 55 q-100 -6 -138 -20 l0 113 q43 13 141 19 l3 96 q-114 -35 -126 -35 l-23 112 q268 88 319 91 Z" /><glyph glyph-name="" unicode="&#x4f55;" d="M838 752 q92 0 92 -60 q-3 -46 -55 -50 l-16 0 q15 -53 35 -135 q28 -131 28 -256 q0 -192 -42 -261 q-46 -79 -131 -79 q-90 0 -163 35 l21 104 q54 -30 107 -30 q28 2 50 15 q20 12 29 38 q19 48 19 195 q-5 171 -73 364 q-2 3 -2 9 q-250 -4 -323 -23 l0 109 q90 19 424 25 ZM445 563 q23 0 31 -22 q22 6 34 8 q85 0 112 -12 q40 -12 67 -56 q31 -40 34 -163 q0 -113 -32 -163 q-47 -74 -149 -74 q-103 0 -149 56 q-45 57 -45 169 q0 109 32 205 q15 50 65 52 ZM504 452 q-17 -5 -39 -14 q-16 -73 -16 -128 q0 -77 17 -101 q18 -31 64 -31 q52 0 73 30 q18 30 18 90 q0 126 -25 135 q-20 14 -46 16 q-27 3 -46 3 ZM331 798 q61 -3 64 -59 q-3 -36 -43 -57 l-85 -62 q3 -10 3 -23 q1 -12 14 -300 q12 -304 12 -394 l-115 0 q-3 268 -11 424 l-11 216 q-78 -54 -85 -54 l-23 115 q238 190 280 194 Z" /><glyph glyph-name="" unicode="&#x5408;" d="M519 813 q49 -6 55 -56 q-2 -16 -7 -27 l44 -16 q301 -96 338 -117 l-29 -104 q-166 63 -401 133 q-27 6 -40 19 l-151 -115 q126 5 353 6 q85 0 85 -55 q-3 -44 -51 -47 q-408 0 -504 -12 l0 18 l-63 -49 l-94 78 q199 180 402 316 q31 28 63 28 ZM219 368 q50 -6 54 -46 q117 42 220 48 l69 0 q119 0 164 -12 q83 -15 122 -54 q41 -33 41 -122 l0 -14 q0 -90 -46 -154 q-58 -87 -263 -87 l-103 0 q-144 0 -240 37 q-114 54 -114 179 l0 13 q0 85 38 167 q18 39 58 45 ZM550 264 q-173 0 -312 -67 q-2 -9 -2 -24 q0 -84 62 -111 q58 -29 254 -29 q75 0 132 12 q41 6 68 45 q20 22 23 91 q0 57 -54 73 q-38 10 -171 10 Z" /><glyph glyph-name="" unicode="&#x5f88;" d="M718 790 q84 0 136 -58 q48 -57 48 -186 l0 -79 q0 -129 -54 -174 q-13 -10 -26 -17 l17 -12 q57 -48 57 -120 q0 -51 -26 -91 q38 -8 92 -13 l-13 -109 q-52 0 -156 27 l-21 7 q-83 -46 -176 -46 q-122 0 -192 64 q-60 62 -60 201 q0 165 84 555 q11 59 52 62 q36 -3 51 -24 q87 11 187 13 ZM582 24 q30 0 57 6 q-18 13 -28 23 q-43 43 -43 93 q0 55 38 99 q-80 3 -151 15 q-6 -57 -6 -97 q0 -69 31 -101 q37 -38 102 -38 ZM743 198 q-29 0 -54 -14 q-15 -12 -15 -35 q0 -26 68 -59 q7 -4 14 -5 q35 29 35 59 q0 21 -14 38 q-16 16 -34 16 ZM518 619 l-10 -46 q30 -2 62 -3 q110 -6 126 -6 q46 -12 46 -56 q-6 -47 -57 -49 q-40 0 -198 9 q-12 -53 -18 -101 q97 -16 189 -19 q71 0 104 27 q31 22 31 102 q0 140 -34 180 q-22 27 -78 27 q-47 0 -150 -14 l-13 -51 ZM272 778 q59 -3 62 -57 q-3 -36 -41 -54 q-201 -73 -213 -73 l-22 112 q180 69 214 72 ZM302 551 q58 -3 61 -56 q-3 -36 -41 -55 q-40 -13 -80 -25 q4 -46 11 -213 q9 -219 9 -283 l-114 0 q-3 220 -7 306 l-7 157 q-60 -18 -66 -18 l-22 111 q214 73 256 76 Z" /><glyph glyph-name="" unicode="&#x5019;" d="M377 581 q44 -3 48 -58 l-10 -173 q-9 -141 -9 -297 l-97 0 q0 187 14 470 q9 53 54 58 ZM302 798 q60 -3 63 -59 q-3 -36 -43 -57 l-76 -62 q2 -14 2 -20 q1 -12 14 -302 q10 -340 10 -395 l-109 0 q-3 248 -10 426 q-3 53 -8 210 q-63 -50 -71 -50 l-23 115 q214 190 251 194 ZM739 790 q61 0 102 -26 q36 -36 36 -84 l0 -17 q-2 -34 -10 -69 l8 0 q74 -3 78 -50 q-3 -48 -54 -51 q-180 -3 -282 -12 q2 -6 4 -20 q-3 -18 -15 -45 l-5 -13 q86 11 227 14 q85 0 85 -55 q-3 -44 -51 -47 l-73 -1 q-2 -12 -11 -26 q-21 -47 -31 -72 q39 6 78 15 q24 4 32 4 q57 -3 63 -55 q-3 -41 -49 -50 q-49 -14 -165 -31 q-3 -6 -3 -9 q-40 -119 -53 -179 l-106 30 q15 52 45 145 q-45 -5 -110 -5 l0 105 q77 3 147 12 q22 66 41 112 q-65 -5 -100 -12 q-11 -36 -19 -79 l-99 23 q51 191 71 230 q-44 -4 -63 -4 l0 102 q107 16 300 22 q11 22 14 54 q0 28 -9 41 q-15 9 -38 9 q-95 -1 -185 -27 l-21 92 q86 25 194 29 l27 0 ZM800 81 q27 0 147 -87 l-55 -97 l-116 90 q-26 19 -28 50 q5 41 52 44 Z" /><glyph glyph-name="" unicode="&#x540e;" d="M807 792 q60 -3 60 -45 q0 -42 -46 -56 q-314 -42 -611 -90 q-2 -24 -4 -75 q215 30 636 39 q80 -3 84 -55 q-3 -50 -58 -54 q-336 -7 -514 -29 q-87 -13 -156 -17 q-1 -5 -1 -13 q-12 -228 -15 -478 l-114 0 q0 267 30 756 q9 62 62 68 q35 -1 47 -33 q459 79 600 82 ZM340 363 q40 -4 52 -31 q90 23 169 27 l56 0 q98 0 140 -13 q69 -15 102 -58 q36 -36 36 -132 l0 -17 q0 -83 -40 -141 q-48 -80 -222 -80 l-86 0 q-120 0 -198 32 q-95 46 -95 154 l0 15 q0 102 26 197 q18 41 60 47 ZM605 250 q-124 0 -225 -33 q-9 -46 -9 -81 q0 -65 46 -87 q44 -22 187 -22 q59 0 102 10 q32 6 53 39 q15 18 18 78 q0 65 -42 84 q-27 12 -130 12 Z" /><glyph glyph-name="" unicode="&#x6237;" d="M473 817 q15 0 32 -7 q45 -22 117 -78 l-49 -57 q82 5 145 5 q98 0 142 -49 q42 -55 42 -161 q0 -102 -29 -139 q-46 -56 -142 -56 q-317 0 -509 21 q-11 -162 -14 -377 l-109 0 q0 249 36 705 q9 58 60 64 q47 -3 53 -61 q141 31 274 44 q-46 26 -85 54 q-23 26 -23 41 q3 48 59 51 ZM229 389 q224 -24 477 -24 q43 0 61 21 q10 23 10 89 q0 73 -12 95 q-12 20 -48 20 q-149 0 -476 -58 l-12 -143 Z" /><glyph glyph-name="" unicode="&#x82b1;" d="M842 719 q80 -3 84 -54 q-3 -51 -58 -55 l-120 -1 q-14 -50 -25 -112 l-122 27 q10 42 21 82 q-168 -5 -256 -10 q9 -33 18 -63 l-126 -26 l-20 81 q-80 -5 -172 -7 l0 109 l146 11 q-7 32 -8 39 q3 58 54 61 q64 0 73 -67 q4 -18 7 -27 q136 6 314 9 q15 49 24 62 q24 35 58 35 q56 -3 59 -58 q-4 -20 -10 -37 l59 1 ZM337 501 q58 -3 61 -57 q-3 -36 -41 -55 l-77 -52 l1 -5 q0 -10 7 -154 q5 -113 7 -263 l-113 0 q0 118 -14 347 q-88 -58 -96 -58 l-22 111 q243 182 287 186 ZM537 505 q54 0 57 -43 q0 -43 -15 -109 q-4 -24 -5 -34 l211 95 q23 10 38 10 q41 -3 44 -43 q0 -42 -29 -60 q-110 -58 -276 -128 q0 -89 22 -130 q18 -39 70 -39 q106 0 287 66 l0 -109 q-157 -66 -294 -66 q-106 0 -152 67 q-43 65 -46 163 l-89 -36 l-44 98 q90 38 135 58 q6 112 29 200 q22 40 57 40 Z" /><glyph glyph-name="" unicode="&#x5316;" d="M365 758 q66 -3 69 -63 q-3 -38 -46 -60 q-79 -45 -117 -65 q3 -28 21 -286 q17 -297 17 -373 l-118 0 q-5 266 -15 401 l-15 199 q-72 -38 -81 -38 l-25 123 q261 159 310 162 ZM862 587 q45 -3 48 -48 q0 -46 -32 -64 q-124 -68 -320 -155 q-6 -54 -6 -100 q0 -92 21 -137 q28 -52 83 -52 q81 0 275 82 l0 -109 q-51 -37 -129 -58 q-73 -24 -135 -24 l-18 0 q-96 0 -151 58 q-60 75 -60 221 q0 34 3 67 l-83 -35 l-46 106 q94 42 141 64 q0 5 2 17 q15 109 63 299 q31 43 69 46 q46 -3 49 -51 q0 -20 -11 -48 q-30 -118 -45 -204 l241 113 q21 12 41 12 Z" /><glyph glyph-name="" unicode="&#x8bdd;" d="M171 788 q30 0 161 -83 l-64 -113 q-54 36 -124 86 q-32 24 -34 58 q6 49 61 52 ZM278 55 q9 0 41 16 q15 6 22 6 q39 -3 44 -67 q-3 -45 -28 -60 q-44 -22 -96 -22 q-120 0 -120 133 q0 27 7 80 q13 77 49 225 q3 14 3 20 q0 35 -45 35 q-11 0 -91 -44 l-14 127 q76 44 125 44 q58 0 100 -37 q40 -45 40 -102 q0 -26 -11 -75 q-30 -124 -39 -187 q-9 -52 -9 -68 q0 -24 22 -24 ZM479 301 q18 -1 31 -8 q31 10 81 17 q2 47 6 100 q-143 -6 -199 -17 l0 106 q60 9 208 15 l13 123 q-84 -6 -174 -6 l0 106 q207 6 378 30 q18 3 35 3 q57 -3 63 -55 q-3 -41 -49 -50 q-42 -8 -138 -17 q-7 -44 -17 -131 q40 0 148 2 q88 0 88 -57 q-3 -44 -53 -48 l-193 -1 q-4 -49 -6 -98 q49 -2 89 -6 q48 -12 91 -44 q47 -42 47 -113 l0 -26 q0 -79 -40 -127 q-64 -78 -171 -78 l-61 0 q-117 0 -186 39 q-76 55 -76 156 l0 11 q0 69 24 127 q21 44 61 47 ZM678 217 q-90 0 -167 -37 q-4 -21 -4 -45 q0 -71 37 -93 q45 -24 107 -24 l41 0 q71 0 100 41 q22 31 22 80 q0 39 -30 58 q-27 17 -106 20 Z" /><glyph glyph-name="" unicode="&#x6b22;" d="M286 704 q67 0 115 -48 q52 -64 52 -126 l0 -27 q0 -76 -57 -196 l-32 -61 q41 -54 91 -124 l-95 -82 l-62 92 q-56 -90 -107 -151 q-25 -23 -48 -23 q-54 0 -54 57 q0 28 23 54 q61 78 112 161 q-45 52 -107 112 q-31 25 -31 55 q3 58 60 61 q20 0 50 -24 q47 -44 90 -92 q1 1 2 4 l1 3 q47 92 47 147 q0 46 -17 71 q-21 27 -44 27 q-81 -12 -168 -82 l-25 112 q91 70 204 80 ZM632 801 q46 -3 49 -49 q-3 -26 -21 -65 q52 14 110 17 q77 0 126 -47 q53 -58 53 -158 q-1 -78 -53 -164 q-18 -30 -49 -30 q-46 1 -48 50 q41 112 41 135 q0 112 -86 112 q-45 0 -139 -38 q-31 -99 -53 -204 l-103 23 q93 349 123 389 q21 29 50 29 ZM706 512 q44 -3 50 -48 q0 -11 -7 -34 q-66 -174 -88 -238 l2 -1 q134 -112 274 -134 l-27 -116 q-170 32 -289 136 q-29 -83 -50 -155 l-105 54 q152 434 182 497 q18 36 58 39 Z" /><glyph glyph-name="" unicode="&#x73af;" d="M281 685 q85 0 85 -54 q-3 -44 -51 -47 l-63 0 l1 -154 q7 0 19 2 q12 2 19 2 q57 -3 63 -54 q-3 -42 -49 -51 q-27 -5 -51 -7 l1 -168 q24 6 36 10 q12 3 21 3 q57 -3 63 -55 q-3 -42 -49 -51 q-31 -12 -122 -27 q-67 -15 -144 -15 l0 106 q55 3 95 10 l-1 178 q-39 -3 -82 -3 l0 106 q54 2 81 4 q-2 79 -2 163 q-73 -1 -100 -3 l0 101 q41 2 230 4 ZM868 756 q73 -1 78 -50 q-3 -48 -53 -51 q-68 -2 -97 -2 q-7 -20 -20 -36 q-62 -62 -124 -127 q0 -2 2 -2 q69 -108 98 -192 q29 -89 29 -188 q0 -94 -35 -137 q-45 -50 -115 -50 q-67 0 -110 23 l-11 109 q55 -23 101 -23 q27 0 42 19 q19 21 19 66 q0 67 -20 132 q-18 58 -81 157 q-61 -62 -134 -142 l-80 66 q148 179 300 322 q-69 -3 -118 -6 q-67 -5 -142 -7 l0 102 q133 14 471 17 ZM800 401 q16 0 32 -8 q56 -38 118 -46 l-24 -107 q-84 13 -146 59 q-26 26 -26 63 q5 35 46 39 Z" /><glyph glyph-name="" unicode="&#x8fd8;" d="M846 778 q77 -3 81 -53 q-3 -49 -56 -53 q-88 -1 -160 -3 q-6 -21 -22 -38 l-77 -76 l13 -13 q48 -73 68 -127 q21 -57 21 -123 q0 -92 -36 -133 q-46 -49 -117 -49 q-68 0 -110 21 l-12 110 q57 -22 102 -22 q28 0 44 19 q19 19 19 60 q0 40 -12 76 q-13 35 -60 97 l-2 3 q-53 -53 -163 -165 l-82 69 q134 155 277 285 l-73 -5 q-74 -8 -152 -10 l0 106 q154 19 509 24 ZM176 446 q53 -3 54 -52 q0 -18 -15 -86 q-14 -73 -14 -121 q0 -79 41 -111 q38 -36 127 -36 q240 0 533 41 l0 -112 q-274 -39 -519 -39 l-37 0 q-104 0 -177 52 q-81 63 -81 183 q0 104 29 230 q12 48 59 51 ZM139 704 q26 0 140 -87 l-64 -112 q-27 22 -104 89 q-31 24 -33 58 q6 49 61 52 ZM768 513 q14 0 33 -7 q68 -58 144 -70 l-25 -111 q-101 18 -173 82 q-27 27 -27 65 q5 37 48 41 Z" /><glyph glyph-name="" unicode="&#x6362;" d="M436 495 q30 0 46 -19 q93 48 205 60 l13 0 q29 55 29 72 q0 49 -59 49 q-61 -6 -111 -34 q-50 -80 -70 -120 l-91 64 q99 171 148 231 q25 23 55 23 q41 0 44 -52 q0 -13 -6 -25 l13 3 l23 0 q63 0 115 -25 q56 -30 56 -90 q0 -40 -33 -108 q26 -9 48 -21 q50 -47 50 -109 l0 -23 q-1 -51 -11 -125 q50 -9 53 -47 q-3 -47 -52 -50 q-148 -4 -266 -14 l-2 -6 q-51 -147 -68 -222 l-102 29 l61 187 q-2 -1 -5 -1 q-84 -17 -154 -20 l0 99 q30 7 58 12 q-29 193 -32 230 q1 49 45 52 ZM561 231 q54 153 74 190 q8 14 18 22 q-77 -12 -149 -51 q16 -108 25 -164 l32 3 ZM723 448 q17 -13 18 -39 q0 -19 -12 -36 q-30 -64 -56 -133 l116 5 q0 6 2 14 q11 42 14 95 q0 53 -20 78 q-23 14 -62 16 ZM742 107 q34 0 189 -100 l-56 -97 q-98 63 -155 102 q-29 21 -30 50 q5 42 52 45 ZM230 803 q45 0 48 -52 q4 -38 10 -110 l15 0 q80 -3 84 -54 q-3 -51 -58 -55 l-33 -1 q6 -94 8 -135 q17 6 28 6 q50 -4 55 -54 q-2 -38 -37 -54 q-17 -13 -41 -24 q3 -93 3 -180 q-1 -172 -126 -177 q-67 0 -120 35 l-4 104 q50 -30 97 -30 q44 0 44 111 q0 26 -3 98 q-65 -18 -125 -28 l-25 114 q81 12 144 34 l-10 176 q-27 -1 -45 -3 q-40 -6 -77 -6 l0 110 q35 5 115 10 l-7 109 q0 53 60 56 Z" /><glyph glyph-name="" unicode="&#x56de;" d="M176 798 q40 0 49 -37 q58 13 103 20 q121 17 234 17 l61 0 q117 0 193 -71 q53 -53 83 -157 q35 -139 37 -298 l0 -18 q0 -94 -14 -181 q-14 -67 -72 -103 q-45 -29 -139 -33 q-112 -7 -232 -11 l-54 0 q-83 0 -148 15 q-73 16 -128 53 q-45 34 -68 101 q-13 56 -13 141 l0 32 q0 126 11 276 q12 119 34 205 q26 49 63 49 ZM556 688 q-105 -6 -183 -15 q-77 -11 -161 -32 q-20 -104 -26 -208 q-4 -81 -4 -150 l0 -27 q0 -54 4 -105 q6 -52 39 -74 q31 -29 86 -31 q46 -10 104 -10 l55 0 q73 0 117 2 q100 0 151 18 q65 13 74 67 l10 133 l0 41 q-1 108 -27 225 q-21 91 -61 126 q-43 40 -109 40 l-69 0 ZM371 544 q30 0 43 -22 q46 13 95 16 q50 0 89 -6 q35 -6 65 -38 q34 -28 34 -148 l0 -15 q0 -81 -56 -126 q-50 -46 -149 -46 l-16 0 q-106 0 -154 55 q-35 39 -35 122 q0 63 31 163 q13 42 53 45 ZM503 432 q-24 0 -105 -26 q-5 -21 -5 -47 q0 -50 15 -71 q18 -24 66 -24 q69 0 93 24 q25 20 25 70 q-5 61 -33 67 q-35 7 -56 7 Z" /><glyph glyph-name="" unicode="&#x4f1a;" d="M689 521 q92 0 92 -59 q-3 -46 -54 -50 q-412 0 -528 -18 l-57 -54 l-92 76 q195 211 387 361 q31 28 60 28 q48 -6 54 -53 l-1 -6 l41 -17 q322 -118 358 -142 l-30 -114 q-182 79 -427 163 q-16 4 -22 8 q-72 -64 -144 -132 q135 6 363 9 ZM219 193 q-60 -5 -129 -7 l0 110 q222 29 748 37 q80 -3 84 -55 q-3 -51 -58 -55 q-343 -6 -505 -17 q-36 -73 -36 -95 q0 -82 82 -82 q62 0 152 14 q66 8 144 25 l-34 30 q-22 18 -22 51 q3 45 50 51 q49 0 97 -46 q57 -49 146 -186 l-87 -67 q-39 49 -63 76 q-138 -30 -240 -45 q-105 -12 -160 -12 l-33 0 q-71 0 -120 44 q-45 36 -45 108 q0 51 29 121 Z" /><glyph glyph-name="" unicode="&#x2f55;&#x706b;" d="M127 706 q53 -3 67 -60 q33 -125 108 -235 l-121 -59 q-45 67 -79 170 q-32 90 -32 117 q3 61 57 67 ZM866 667 q50 -6 56 -56 q-3 -30 -26 -61 q-102 -123 -195 -241 l-95 78 q100 146 198 251 q31 29 62 29 ZM598 805 q51 -3 57 -55 q0 -14 -7 -39 q-296 -555 -400 -804 l-121 61 q342 696 405 792 q20 42 66 45 ZM520 262 q17 0 44 -10 q225 -110 374 -206 l-61 -124 q-160 116 -371 220 q-41 23 -45 55 q3 62 59 65 Z" /><glyph glyph-name="" unicode="&#x6216;" d="M788 696 q-22 18 -22 51 q4 45 50 51 q25 0 52 -22 q32 -27 77 -89 l-55 -42 q4 -11 5 -19 q-3 -51 -58 -55 q-106 -2 -147 -2 q37 -154 74 -250 l3 -9 q48 52 51 56 q30 25 61 25 q46 0 49 -57 q0 -33 -36 -72 q-44 -50 -70 -83 q42 -94 110 -212 l-106 -52 q-46 64 -89 157 q-63 -82 -97 -138 l-101 72 q57 81 142 195 q-57 143 -104 343 l-6 23 q-220 -8 -279 -11 q-106 -8 -218 -10 l0 109 q162 14 472 21 q-10 47 -10 73 q3 54 50 60 q51 -4 60 -47 q9 -45 18 -84 q44 0 142 2 l-18 16 ZM176 501 q22 0 35 -11 q40 11 75 13 l15 0 q32 0 92 -4 q53 -7 97 -39 q53 -42 53 -128 l0 -27 q0 -36 -10 -69 q-13 -40 -41 -62 q-26 -26 -82 -40 q-36 -8 -94 -10 l-26 0 q-92 0 -150 40 q-62 44 -62 124 l0 8 q0 54 43 150 q15 55 55 55 ZM291 397 q-30 0 -84 -17 q-19 -45 -19 -88 l0 -7 q0 -29 26 -41 q30 -15 73 -15 l23 0 q32 0 54 5 q26 3 39 16 q19 10 25 30 q6 18 6 35 l0 11 q0 42 -27 54 q-22 12 -63 15 q-38 2 -53 2 ZM443 88 q49 -5 53 -52 q-1 -35 -36 -53 q-84 -33 -323 -57 l-24 111 q156 12 276 42 q33 9 54 9 Z" /><glyph glyph-name="" unicode="&#x51fb;" d="M760 669 q80 -3 84 -55 q-3 -51 -58 -55 q-125 -1 -226 -3 q0 -48 2 -148 q96 6 240 17 q36 3 67 3 q59 -3 65 -56 q-3 -44 -51 -53 q-97 -11 -319 -22 q2 -180 4 -271 q97 4 168 26 q47 12 47 47 q-10 38 -25 100 q3 49 51 56 q42 -5 62 -44 q25 -87 25 -149 q0 -64 -53 -94 q-46 -24 -136 -38 q-109 -15 -211 -15 l-65 0 q-164 0 -238 19 q-76 25 -76 104 q0 54 29 150 q15 38 57 43 q54 -3 54 -46 q-9 -45 -27 -98 q0 -41 49 -50 q57 -11 172 -13 l-6 266 q-174 -9 -363 -9 l0 109 q188 3 360 12 q-2 50 -4 150 l-102 -5 q-94 -7 -180 -9 l0 109 q123 11 280 16 l-1 62 q3 78 57 84 q40 0 53 -27 q12 -24 12 -49 q0 -45 1 -67 l202 3 Z" /><glyph glyph-name="" unicode="&#x57fa;" d="M833 737 q77 -3 81 -53 q-3 -49 -56 -53 l-61 -1 q-18 -127 -30 -277 l99 1 q72 -3 75 -49 q-3 -46 -51 -49 l-46 0 q29 -25 82 -75 l-69 -79 q-81 48 -143 101 q-25 34 -25 50 l-118 -3 q12 -18 15 -47 l-1 -8 l75 1 q78 0 78 -51 q-3 -40 -47 -43 l-113 -1 q-2 -18 -4 -56 q73 2 220 4 q77 -2 81 -52 q-3 -47 -56 -53 q-307 -3 -463 -15 q-84 -7 -184 -10 l0 105 q105 12 288 18 q0 27 3 57 q-127 -3 -170 -12 l0 93 q48 7 175 12 l1 11 q5 29 18 44 q-106 -4 -183 -9 l-4 0 q-3 -21 -21 -42 q-89 -98 -116 -129 l-76 63 q44 59 82 98 q-68 -4 -99 -4 l0 98 q84 9 169 14 q2 -16 -26 274 q-72 -4 -104 -4 l0 106 l93 7 q3 78 56 82 q39 0 51 -26 q11 -24 11 -48 l0 -2 q199 8 375 10 q4 29 8 45 q24 33 55 33 q51 -3 54 -55 l-1 -21 l22 0 ZM353 342 q132 6 298 9 q17 163 30 278 q-220 -4 -351 -12 l3 -40 q62 5 228 8 q68 0 68 -45 q-3 -34 -41 -37 q-164 0 -248 -6 l3 -41 q85 7 220 8 q66 0 66 -42 q-3 -33 -39 -36 q-144 0 -240 -7 q1 -19 3 -37 Z" /><glyph glyph-name="" unicode="&#x673a;" d="M504 715 q29 -2 41 -22 q41 15 87 26 q44 12 80 12 q81 0 121 -49 q42 -54 45 -134 q-2 -31 -12 -82 q-37 -151 -51 -236 q-5 -47 -5 -105 q0 -81 50 -81 q15 0 40 8 q13 5 24 5 q34 -3 37 -60 q-2 -34 -27 -49 q-59 -14 -106 -14 q-62 0 -95 41 q-37 37 -37 112 q0 123 57 360 q12 47 12 76 q0 51 -21 76 q-21 23 -54 23 l-38 -7 q-51 -17 -97 -34 q1 16 -7 -194 q-9 -216 -9 -453 l-109 0 q0 196 5 393 l-52 -92 q-39 33 -79 69 q8 -315 8 -389 l-113 0 l-5 353 l-91 -88 l-70 88 q52 50 104 98 q31 30 53 39 q-1 6 -1 17 q-3 42 -3 80 q-104 -6 -134 -17 l0 109 q42 10 130 16 q-2 42 -2 61 q-3 48 -3 85 q0 53 52 53 q58 -2 58 -62 q2 -20 6 -133 l30 1 q92 0 92 -60 q-3 -46 -55 -49 l-62 0 q0 -37 3 -76 q25 0 134 -86 q4 208 8 307 q9 59 61 64 Z" /><glyph glyph-name="" unicode="&#x5373;" d="M385 786 q69 0 111 -60 q41 -58 41 -192 l0 -80 q0 -133 -45 -180 q-54 -51 -138 -51 l-18 0 q-81 0 -161 16 q-1 -20 -1 -54 q0 -81 20 -115 q16 -34 52 -34 q57 0 144 24 l-42 44 q-22 18 -22 50 q4 44 50 50 q43 0 82 -44 q45 -45 124 -180 l-85 -65 l-38 56 q-132 -45 -209 -45 l-24 0 q-70 0 -119 67 q-39 56 -39 181 q0 291 75 564 q12 44 60 44 q26 -1 36 -18 q70 19 146 22 ZM211 556 l79 3 q85 0 85 -54 q-3 -44 -51 -47 q-69 0 -129 -4 q-8 -51 -13 -111 q75 -15 156 -18 q48 0 72 27 q22 25 22 111 q0 148 -25 193 q-17 28 -57 28 q-39 0 -120 -29 l-19 -99 ZM637 501 q57 -1 57 -63 q6 -21 27 -228 q19 -244 19 -299 l-113 0 q-6 208 -20 323 q-7 71 -17 159 q-6 30 -6 55 q0 53 53 53 ZM806 684 q72 0 102 -41 q42 -36 44 -206 l0 -22 q-2 -134 -43 -279 q-13 -44 -59 -44 q-54 0 -54 50 q43 151 43 267 q0 116 -15 147 q-17 19 -39 19 q-100 -6 -205 -72 l-25 107 q93 62 219 74 l32 0 Z" /><glyph glyph-name="" unicode="&#x7ea7;" d="M354 117 q54 -4 58 -58 q-1 -40 -40 -58 q-74 -45 -280 -78 l-28 123 q135 16 242 59 q29 12 48 12 ZM239 258 q63 0 169 66 l0 -106 q-106 -65 -195 -65 q-56 0 -95 33 q-36 36 -36 85 q0 48 53 126 q12 16 38 46 q-32 6 -55 18 q-69 32 -69 89 q0 48 43 107 q55 69 124 115 q25 16 53 18 q55 -3 58 -38 q-1 -27 -19 -40 q-128 -128 -128 -159 q0 -14 71 -14 q15 0 25 2 q12 11 38 31 q27 23 57 26 q60 -3 65 -49 q0 -23 -27 -41 q-141 -121 -168 -164 q-30 -36 -30 -67 q0 -19 28 -19 ZM680 798 q90 0 138 -40 q50 -44 53 -130 l0 -40 q0 -63 -23 -121 q25 -8 51 -31 q42 -43 42 -119 q0 -41 -53 -132 q-17 -28 -41 -63 q50 -16 104 -22 l-26 -116 q-90 14 -155 38 q-35 -40 -82 -89 q-19 -22 -36 -22 q-58 0 -58 55 q0 24 17 44 l54 60 q-23 12 -55 34 q-28 27 -28 68 q5 40 50 43 q16 0 34 -8 q36 -24 78 -43 q34 43 51 73 q29 52 29 74 q0 53 -18 53 q-49 -6 -89 -26 l-26 107 q15 6 33 12 q34 80 34 132 q0 62 -33 83 q-29 14 -79 16 l1 -6 q-3 -57 -25 -145 q-60 -272 -99 -634 l-110 24 q83 603 117 740 q-43 -15 -83 -39 l-25 107 q98 54 225 63 l33 0 Z" /><glyph glyph-name="" unicode="&#x6280;" d="M822 701 q92 0 92 -60 q-3 -46 -55 -50 l-148 -1 q-12 -72 -21 -155 l24 3 q85 0 134 -29 q54 -34 54 -108 q0 -37 -33 -87 q-30 -45 -99 -119 q102 -49 162 -80 l-53 -93 q-124 57 -192 86 l-76 -76 q-23 -25 -43 -25 q-56 0 -56 61 q0 29 35 58 q11 10 31 30 l-129 58 q-25 20 -27 48 q4 39 50 42 q50 0 191 -60 q74 77 95 110 q19 22 19 42 q0 33 -79 33 q-137 -17 -266 -88 l-26 109 q84 38 165 60 q9 80 23 177 q-126 -6 -168 -16 l0 109 q60 10 185 16 q12 68 18 84 q24 33 55 33 q51 -3 54 -55 q-2 -29 -7 -59 q27 0 91 2 ZM246 805 q45 0 48 -52 l12 -112 q80 -3 85 -54 q-3 -51 -58 -55 l-18 0 q6 -88 8 -131 q11 3 19 3 q53 -5 56 -56 q-1 -38 -39 -56 q-11 -9 -30 -19 q3 -91 3 -181 q-3 -173 -131 -177 q-68 0 -123 35 l-4 104 q51 -30 101 -30 q48 0 48 111 l-4 97 q-57 -17 -136 -31 l-25 118 q84 12 154 37 q-2 23 -11 172 q-9 -1 -61 -4 q-40 -6 -78 -6 l0 110 q57 7 132 10 q-6 70 -8 111 q0 53 60 56 Z" /><glyph glyph-name="" unicode="&#x8ba1;" d="M171 788 q30 0 161 -83 l-64 -113 q-54 36 -124 86 q-32 24 -34 58 q6 49 61 52 ZM287 63 q8 0 39 17 q15 6 21 6 q41 -3 46 -71 q-3 -47 -30 -64 q-43 -23 -93 -23 q-124 0 -124 138 q0 26 7 75 q13 72 49 210 q3 14 3 20 q0 36 -48 36 q-10 0 -91 -46 l-15 135 q78 46 128 46 q61 0 104 -38 q41 -46 41 -106 q0 -25 -12 -70 q-30 -115 -39 -176 q-8 -44 -8 -64 q0 -25 22 -25 ZM865 489 q80 -3 84 -55 q-3 -51 -57 -54 l-176 -3 l0 -5 q13 -380 13 -453 l-122 0 q-3 254 -10 454 l-74 -4 q-67 -5 -146 -7 l0 109 q69 7 215 13 l-8 162 q-4 43 -4 83 q0 57 56 57 q62 -3 62 -67 q2 -18 13 -232 q44 0 154 2 Z" /><glyph glyph-name="" unicode="&#x5939;" d="M747 662 q92 0 92 -60 q-3 -46 -55 -50 l-209 -1 q-54 -117 -108 -264 l-2 -4 q106 2 336 4 q92 0 92 -60 q-3 -46 -55 -50 q-246 0 -414 -3 q-60 -166 -87 -267 l-117 33 q45 125 84 231 q-167 -6 -220 -14 l0 109 q66 8 260 14 q71 189 104 269 q-201 -5 -262 -13 l0 109 q70 8 308 14 q34 74 49 100 q24 41 68 42 q51 -6 54 -55 q0 -21 -14 -41 l-23 -44 l119 1 ZM186 505 q42 -3 57 -39 q20 -47 67 -108 l-105 -66 q-72 113 -72 155 q1 52 53 58 ZM761 516 q47 -6 51 -52 q0 -27 -24 -56 l-97 -114 l-88 73 q49 71 99 122 q29 27 59 27 ZM550 137 q18 0 39 -9 q164 -61 274 -114 l-52 -107 q-125 70 -274 125 q-36 18 -39 49 q3 53 52 56 Z" /><glyph glyph-name="" unicode="&#x5bb6;" d="M290 449 q-36 -3 -67 -3 l0 105 q144 15 477 18 q77 -3 81 -53 q-3 -49 -55 -52 q-244 -6 -223 -5 q-6 -26 -32 -40 q47 -25 88 -66 l23 -25 q173 91 208 94 q59 -1 62 -56 q-3 -36 -41 -55 q-128 -63 -171 -83 q8 -23 12 -46 q131 -58 268 -70 l-28 -125 q-140 15 -245 60 q-12 -40 -41 -78 q-52 -58 -122 -58 q-66 0 -121 32 l-4 41 q-50 -43 -89 -81 l-82 68 q93 99 182 168 q28 26 55 26 q42 -6 48 -48 q-1 -26 -24 -53 q-12 -10 -34 -30 q36 -10 61 -10 q26 0 47 34 q22 31 22 80 q0 66 -55 127 q-49 58 -137 73 q-155 -104 -239 -158 l-67 85 q127 98 235 178 q2 2 8 6 ZM319 270 q42 -6 48 -48 q-1 -24 -23 -52 q-109 -92 -184 -158 l-82 69 q96 96 187 164 q28 25 54 25 ZM469 821 q37 -3 102 -74 q80 6 126 8 l83 0 q70 0 116 -32 q46 -41 49 -83 l0 -17 q-2 -49 -33 -143 q-12 -30 -64 -30 q-40 0 -40 38 q24 87 24 116 q0 45 -91 45 q-284 -5 -549 -70 q8 -80 14 -122 l-122 -26 q-22 206 -24 246 q2 57 51 60 q54 0 68 -50 q116 28 239 44 q-12 18 -12 31 q3 56 63 59 Z" /><glyph glyph-name="" unicode="&#x52a0;" d="M368 680 q83 0 120 -52 q48 -48 51 -264 l0 -30 q-3 -176 -68 -368 q-15 -44 -60 -44 q-54 0 -54 50 q69 201 69 364 q0 163 -22 210 q-25 25 -56 25 l-38 -3 q-54 -291 -89 -657 l-118 26 q50 413 79 602 q-39 -14 -82 -33 l-26 108 q57 28 128 47 q13 76 23 102 q24 35 56 35 q54 -3 57 -57 q-2 -32 -7 -61 l37 0 ZM656 774 q43 0 52 -41 l40 6 q55 -3 89 -13 q39 -16 61 -52 q38 -30 38 -407 l0 -50 q0 -165 -33 -203 q-33 -57 -140 -60 l-14 3 q-86 0 -119 30 q-30 20 -42 81 q-8 72 -8 257 q0 118 18 370 q13 73 58 79 ZM743 630 q-7 0 -40 -13 q-2 -11 -4 -33 q-6 -111 -6 -241 q0 -242 9 -262 q8 -18 54 -18 q50 0 56 18 q10 25 10 133 l0 45 q0 338 -26 361 q-30 10 -53 10 Z" /><glyph glyph-name="" unicode="&#x67b6;" d="M299 805 q45 -3 48 -48 q-1 -14 -8 -38 l6 0 q72 0 120 -45 q47 -55 47 -123 l0 -24 q-10 -75 -39 -138 l2 0 q59 -2 59 -64 q0 6 4 -50 q104 3 304 7 q80 -3 84 -55 q-3 -51 -58 -55 q-154 -2 -323 -8 q0 -14 1 -21 q9 -183 9 -236 l-117 0 q-3 154 -8 252 q-56 -2 -123 -8 q-113 -13 -225 -16 l0 110 q133 16 342 26 l-1 20 q-3 24 -3 44 q0 6 1 8 q-7 -1 -17 -1 q-41 0 -41 54 q43 78 43 132 q0 53 -22 72 q-25 18 -72 18 l-8 -1 q-42 -130 -68 -280 l-98 22 q35 153 57 238 q-57 -20 -107 -51 l-16 100 q69 42 153 60 q15 53 26 71 q22 28 48 28 ZM645 760 q30 0 39 -19 q27 7 48 8 q42 0 86 -7 q36 -6 65 -40 q33 -28 33 -157 l0 -17 q0 -85 -47 -130 q-43 -48 -124 -48 l-16 0 q-97 0 -142 55 q-32 38 -32 119 q0 76 41 195 q12 38 49 41 ZM728 651 q-15 0 -65 -22 q-11 -41 -11 -84 q0 -52 15 -73 q17 -24 61 -24 q52 0 72 26 q18 24 18 79 q-5 79 -34 89 q-30 9 -56 9 ZM276 130 q42 -6 48 -48 q-1 -25 -23 -53 q-72 -76 -106 -114 l-82 68 q54 69 109 121 q28 26 54 26 ZM688 130 q41 0 226 -91 l-60 -105 l-102 50 q-58 28 -88 44 q-29 21 -31 54 q5 45 55 48 Z" /><glyph glyph-name="" unicode="&#x95f4;" d="M127 688 q58 -2 58 -62 q5 -47 19 -311 q15 -312 15 -404 l-114 0 q-3 280 -14 435 l-13 215 q-4 37 -4 74 q0 53 53 53 ZM728 799 q84 0 143 -35 q63 -43 63 -183 q0 -130 -28 -623 q-9 -49 -64 -49 q-49 0 -49 57 q27 354 27 609 q0 115 -114 115 q-125 -3 -239 -37 l-26 107 q108 36 250 39 l37 0 ZM271 815 q46 -3 141 -128 l-87 -83 q-59 41 -100 87 q-26 32 -26 57 q3 64 72 67 ZM396 538 q28 0 34 -32 q33 14 78 25 q84 0 110 -14 q39 -12 66 -60 q30 -45 33 -178 q0 -111 -33 -161 q-54 -73 -163 -73 q-122 0 -176 48 q-53 49 -53 147 q0 129 38 246 q15 50 66 52 ZM502 437 q-51 -15 -90 -42 q-4 -16 -8 -44 q68 -6 110 -16 q44 -12 47 -45 q-1 -42 -54 -45 q-65 2 -113 9 l0 -10 q0 -61 24 -81 q24 -25 92 -25 q59 0 83 30 q22 31 22 91 q0 147 -24 157 q-21 15 -44 18 q-27 3 -45 3 Z" /><glyph glyph-name="" unicode="&#x68c0;" d="M299 615 q92 0 92 -60 q-3 -46 -55 -49 l-55 0 q0 -40 3 -84 q23 0 128 -67 l-59 -104 l-66 49 q7 -339 7 -385 l-113 0 l-5 347 l-69 -82 l-69 88 q45 50 92 101 q20 23 43 38 q-1 5 -1 15 q-2 56 -2 81 q-74 -3 -108 -10 l0 109 q26 5 105 10 q-2 40 -2 59 q-3 48 -3 85 q0 53 53 53 q57 -1 57 -62 q2 -19 6 -132 l21 0 ZM658 658 q-94 -102 -148 -170 q83 14 250 17 q77 -3 81 -53 q-3 -49 -56 -53 q-128 -3 -201 -11 q-37 -5 -80 -7 l0 99 q-19 -23 -50 -67 l-89 62 q185 234 267 310 q25 22 54 22 q40 0 43 -51 q0 -6 -4 -18 q136 -90 233 -171 l-51 -103 q-104 98 -236 185 q-7 3 -13 9 ZM854 381 q50 -2 53 -51 q-3 -28 -19 -67 q-34 -92 -60 -209 l29 0 q81 -3 84 -54 q-3 -49 -57 -55 q-217 -3 -328 -15 q-69 -7 -131 -9 l0 109 q97 15 290 21 q65 269 88 299 q22 31 51 31 ZM499 288 q44 -3 56 -50 q17 -63 56 -118 l-100 -49 q-26 40 -42 95 q-17 48 -17 66 q2 51 47 56 ZM640 351 q44 -3 54 -49 q12 -57 43 -110 l-98 -48 q-19 36 -33 90 q-12 50 -12 63 q2 50 46 54 Z" /><glyph glyph-name="" unicode="&#x7b80;" d="M195 813 q49 -3 52 -51 l-2 -10 q47 5 162 8 q85 0 85 -54 q-3 -44 -51 -47 l-82 -1 q18 -22 39 -51 l-80 -61 q-50 60 -90 92 q-7 6 -10 11 q-10 -3 -18 -3 q-19 -54 -32 -110 l-106 23 q61 199 83 223 q22 31 50 31 ZM602 817 q47 -3 51 -49 q92 4 206 5 q82 0 82 -53 q-3 -42 -48 -45 l-70 0 q25 -33 44 -60 l-80 -62 q-49 63 -79 89 q-15 12 -18 30 l-71 -3 q-14 -43 -25 -97 l-107 23 q48 173 64 191 q22 31 51 31 ZM138 453 q57 -1 57 -63 q3 -18 18 -213 q13 -232 13 -278 l-114 0 q-5 199 -12 302 l-11 148 q-4 27 -4 51 q0 53 53 53 ZM719 535 q80 0 135 -26 q58 -32 58 -131 q0 -96 -26 -434 q-9 -47 -63 -47 q-47 0 -47 56 q27 243 27 419 q0 65 -103 65 q-119 -3 -227 -34 l-23 97 q102 31 235 35 l34 0 ZM269 555 q39 -3 117 -100 l-79 -75 q-47 31 -82 69 q-21 27 -21 45 q3 58 65 61 ZM399 356 q19 0 29 -16 q35 13 82 22 q81 0 108 -11 q38 -12 65 -49 q29 -35 32 -142 q0 -93 -33 -134 q-53 -62 -160 -62 q-118 0 -172 42 q-52 42 -52 122 q0 91 39 178 q15 48 62 50 ZM504 268 q-53 -12 -91 -33 l-4 -16 q57 -3 108 -11 q42 -12 45 -43 q-1 -40 -52 -43 q-66 0 -114 6 q0 -39 24 -53 q23 -17 92 -17 q59 0 83 21 q22 20 22 62 q0 104 -24 113 q-21 11 -44 12 l-45 2 Z" /><glyph glyph-name="" unicode="&#x8350;" d="M856 546 q78 -3 82 -53 q-3 -49 -56 -53 q-292 -3 -473 -12 q-79 -87 -120 -137 q2 -14 2 -21 q2 -11 13 -156 q9 -157 9 -203 l-113 0 q-3 146 -9 221 q-2 24 -2 32 q-28 -39 -35 -50 l-97 68 q109 146 183 236 q-76 -5 -166 -7 l0 105 q103 10 266 18 q31 33 43 44 q27 24 58 24 q44 0 47 -55 l-1 -8 q124 3 369 7 ZM611 413 q86 0 141 -32 q60 -40 60 -110 q0 -30 -15 -60 l33 3 l45 1 q52 -2 58 -50 q-3 -38 -45 -47 q-30 -4 -139 -11 q7 -33 7 -56 q0 -70 -34 -102 q-43 -38 -110 -38 q-64 0 -105 21 l-12 106 q56 -22 98 -22 q26 0 40 10 q17 9 17 32 q0 18 -7 39 q-2 2 -2 4 q-135 -9 -283 -9 l0 98 q108 1 231 8 q6 39 53 45 q25 -2 40 -17 q13 29 13 36 q0 61 -97 61 q-61 0 -206 -58 l-14 92 q127 53 233 56 ZM864 753 q74 -3 78 -51 q-3 -48 -53 -51 q-100 -2 -142 -2 q-13 -37 -24 -78 l-107 23 q8 25 18 53 q-163 -4 -277 -9 l18 -61 l-117 -24 l-21 78 q-87 -6 -166 -6 l0 101 l139 10 l-5 23 q3 55 50 58 q59 0 68 -62 q2 -9 4 -14 q121 5 348 10 q9 21 16 28 q23 31 51 31 q49 -3 52 -51 q0 -3 -2 -7 l72 1 Z" /><glyph glyph-name="" unicode="&#x89c1;" d="M202 794 q40 -3 49 -46 q139 41 304 50 l54 0 q126 0 181 -38 q73 -33 76 -182 l0 -20 q-1 -113 -38 -242 q-15 -45 -61 -45 q-55 0 -55 52 q38 126 38 225 q0 96 -44 123 q-53 14 -117 14 q-173 -6 -343 -59 l-13 -153 q0 -146 5 -202 l-113 0 q-4 41 -4 202 l0 32 q0 118 20 225 q9 61 61 64 ZM521 611 q48 -3 54 -53 q0 -13 -7 -38 q-255 -431 -344 -628 l-117 59 q292 536 350 617 q18 40 64 43 ZM583 368 q61 0 61 -61 q-1 -10 -5 -21 q-67 -149 -67 -178 q0 -41 24 -56 q26 -18 96 -18 q54 0 232 28 l0 -117 q-157 -26 -221 -28 l-44 0 q-102 0 -158 41 q-58 45 -58 130 q0 56 69 224 q18 53 71 56 Z" /><glyph glyph-name="" unicode="&#x4ef6;" d="M527 790 q51 -3 54 -53 q-3 -29 -27 -76 l-7 -17 q-5 -10 -7 -16 q25 0 121 2 q3 32 11 100 q9 62 62 68 q49 -3 55 -68 l-11 -100 l64 1 q92 0 92 -60 q-3 -46 -55 -50 l-113 0 l-11 -94 q-8 -65 -13 -147 l120 1 q95 0 95 -62 q-3 -48 -57 -51 l-165 -1 q-8 -121 -10 -260 l-114 0 q0 111 9 258 q-199 -6 -265 -18 l0 113 q78 11 272 17 q11 133 22 243 q-102 -1 -150 -3 q-28 -83 -52 -188 l-110 24 q102 365 138 404 q23 33 52 33 ZM331 798 q61 -3 64 -59 q-3 -36 -43 -57 l-85 -62 q2 -14 2 -22 q1 -12 14 -301 q12 -304 12 -394 l-113 0 q-3 268 -11 424 l-11 217 q-77 -55 -86 -55 l-23 115 q238 190 280 194 Z" /><glyph glyph-name="" unicode="&#x5efa;" d="M565 759 q12 52 60 58 q45 -3 52 -55 q118 -3 166 -49 q37 -39 40 -89 q70 -3 70 -49 q-3 -38 -45 -41 l-27 0 q-11 -75 -55 -108 q-54 -39 -148 -39 l-18 0 q-1 -12 -1 -31 q80 2 133 2 q75 0 75 -49 q-3 -38 -45 -41 l-165 -1 q-1 -14 -1 -41 l152 3 q75 0 75 -49 q-3 -38 -45 -41 q-76 0 -184 -2 q-1 -28 -1 -84 q141 -21 277 -21 l-12 -106 q-167 0 -408 43 q-138 25 -238 51 q-33 -40 -69 -72 q-36 -33 -58 -33 q-56 3 -59 47 q0 28 22 44 q35 26 55 45 q-33 11 -60 21 q-38 20 -41 58 q4 41 50 46 q24 0 48 -11 q31 -12 70 -24 q10 23 10 40 q0 36 -14 61 q-15 23 -70 35 q-37 9 -37 47 q0 42 16 55 q37 16 67 61 q11 18 13 30 q0 78 -69 78 q-33 0 -84 -34 l-11 106 q50 33 120 33 q64 0 110 -38 q39 -48 39 -122 q0 -76 -80 -154 q50 -20 80 -60 q26 -43 26 -94 q0 -37 -15 -73 q91 -23 193 -39 q9 -3 19 -3 q0 42 1 64 q-124 -6 -169 -18 l0 90 q59 10 171 16 q0 28 1 42 q-107 -3 -152 -11 l0 89 q50 7 154 11 q0 24 1 36 q-89 7 -179 26 l16 82 q63 -18 166 -24 q0 19 2 57 q-162 -6 -215 -16 l0 90 q55 8 219 14 q0 18 2 58 q-97 -7 -178 -29 l-16 82 q95 23 198 30 ZM672 621 q28 0 98 2 q-5 27 -14 40 q-15 14 -81 17 l-3 -59 ZM667 532 q-3 -25 -3 -49 l-1 -13 q59 3 88 21 q13 9 19 42 l-103 -1 Z" /><glyph glyph-name="" unicode="&#x4ea4;" d="M842 676 q80 -3 84 -54 q-3 -51 -58 -55 q-343 -3 -556 -13 q-131 -7 -222 -8 l0 109 q127 9 341 15 q-15 12 -26 23 q-22 32 -22 54 q3 58 72 62 q18 0 33 -9 q45 -28 121 -104 l-20 -23 q120 2 253 3 ZM266 516 q44 0 46 -55 q0 -18 -17 -40 q-83 -110 -121 -182 l-98 68 q87 135 131 185 q27 24 59 24 ZM718 540 q17 0 40 -10 q108 -57 176 -102 l-55 -111 q-81 63 -175 113 q-37 22 -40 51 q3 56 54 59 ZM704 387 q44 -6 50 -49 q-2 -28 -24 -55 l-103 -87 q138 -77 275 -166 l-54 -111 q-144 101 -314 197 q-124 -106 -242 -209 l-85 70 q107 108 213 201 l-114 57 q-37 22 -40 51 q3 55 53 58 q19 0 40 -9 l154 -78 q70 56 134 104 q29 26 57 26 Z" /><glyph glyph-name="" unicode="&#x63a5;" d="M605 813 q41 -3 56 -36 q13 -27 36 -56 l129 1 q88 0 88 -57 q-3 -44 -53 -48 l-4 0 q-1 -17 -11 -38 q-28 -54 -45 -91 l37 0 q88 0 88 -58 q-3 -44 -53 -48 q-400 0 -502 -16 l0 105 q35 4 106 9 q-21 113 -23 129 q-52 -4 -59 -5 l0 106 q59 5 171 8 q-11 22 -11 39 q1 50 50 56 ZM596 484 q22 0 78 2 q40 90 60 131 q-92 -1 -164 -3 q0 -4 2 -8 l24 -122 ZM531 352 q55 0 55 -52 q0 -3 -2 -9 q88 4 265 7 q85 0 85 -55 q-3 -44 -51 -47 l-61 0 l-10 -97 q-1 -8 -1 -20 q52 8 99 22 l0 -98 q-47 -11 -105 -22 q-3 -34 -3 -68 l-106 0 q0 35 1 54 q-40 -2 -56 -2 l-26 0 q-89 0 -143 30 q-60 36 -60 105 q0 40 11 81 q-51 -6 -79 -12 l0 101 q43 8 118 14 q3 7 11 21 q13 44 58 47 ZM702 65 q3 50 11 130 l-175 -6 q-13 -36 -13 -63 q0 -36 23 -46 q26 -17 88 -17 q44 0 66 2 ZM227 805 q44 0 47 -52 q6 -78 8 -113 q72 -3 77 -53 q-3 -50 -57 -55 l-13 0 l6 -131 l10 1 q50 -4 54 -54 q-2 -38 -37 -54 q-13 -11 -23 -16 q3 -94 3 -186 q-3 -173 -116 -177 q-61 0 -110 35 l-4 104 q45 -30 87 -30 q33 0 33 111 q0 26 -3 96 q-61 -18 -115 -28 l-25 114 q72 12 135 36 l-8 175 q-6 -1 -46 -4 q-36 -6 -68 -6 l0 110 q48 7 109 10 l-5 111 q0 53 61 56 Z" /><glyph glyph-name="" unicode="&#x7686;" d="M211 790 q49 -3 52 -49 q0 -14 -9 -32 q-3 -6 -8 -21 q68 4 136 5 q82 0 82 -53 q-3 -42 -49 -45 q-129 0 -206 -7 q-8 -24 -8 -38 q0 -45 69 -45 q37 0 183 35 l0 -91 q-129 -38 -203 -38 l-19 0 q-55 0 -101 34 q-34 27 -34 76 q2 75 66 234 q15 35 49 35 ZM605 798 q49 -3 52 -49 q0 -12 -6 -32 q-3 -12 -6 -21 q48 4 157 7 q85 0 85 -55 q-3 -44 -51 -47 q-147 0 -217 -8 q-4 -16 -4 -27 q0 -54 76 -54 q38 0 215 39 l0 -90 q-147 -42 -234 -42 l-20 0 q-58 0 -106 36 q-36 30 -36 82 q0 70 47 225 q15 36 48 36 ZM191 380 q33 -3 48 -23 q92 15 178 21 q7 13 24 40 q18 39 54 42 q46 -3 52 -48 q-1 -9 -11 -32 q136 0 189 -14 q95 -18 141 -67 q48 -40 48 -148 l0 -19 q0 -77 -53 -132 q-66 -75 -302 -75 l-108 0 q-153 0 -250 35 q-119 48 -119 163 l0 14 q0 99 50 196 q18 41 59 47 ZM523 286 q-163 0 -298 -26 q-9 -19 -17 -47 q192 -4 354 -12 q14 -1 41 -1 q51 -1 57 -51 q-3 -38 -45 -47 q-55 3 -220 9 q-119 4 -191 5 q14 -50 61 -68 q62 -29 268 -29 q92 0 155 10 q50 8 81 40 q25 19 28 78 q0 94 -67 121 q-42 18 -207 18 Z" /><glyph glyph-name="" unicode="&#x7ed3;" d="M354 109 q60 -6 66 -65 q-1 -45 -46 -67 q-75 -37 -279 -62 l-30 138 q139 14 241 46 q32 10 48 10 ZM253 274 q60 0 159 62 l0 -114 q-103 -61 -187 -61 q-60 0 -101 35 q-38 38 -38 90 q0 47 50 123 q15 21 35 44 q-31 7 -49 16 q-69 36 -69 97 q0 45 42 102 q52 66 122 111 q26 17 55 19 q60 -3 63 -41 q-2 -28 -22 -43 q-122 -118 -122 -144 q0 -16 66 -16 q12 0 20 1 q7 7 27 23 q28 25 59 28 q65 -3 69 -51 q0 -24 -28 -44 q-130 -113 -153 -154 q-28 -32 -28 -63 q0 -20 30 -20 ZM873 688 q80 -3 84 -55 q-3 -50 -58 -54 l-155 -3 q2 -62 4 -92 q28 0 100 2 q91 0 91 -60 q-2 -46 -54 -49 q-327 0 -406 -29 l0 110 q48 13 155 20 q-4 65 -5 93 l-59 -3 q-61 -5 -131 -7 l0 110 q70 6 184 12 q-3 24 -3 49 q3 75 56 81 q39 0 51 -26 q11 -25 11 -48 q0 -17 2 -53 q82 2 133 2 ZM539 321 q36 0 48 -25 q67 16 131 17 q50 0 104 -7 q41 -6 77 -41 q40 -29 40 -161 l0 -17 q0 -79 -59 -123 q-55 -45 -157 -45 l-22 0 q-134 0 -196 53 q-44 38 -44 117 q0 70 21 184 q15 45 57 48 ZM712 204 q-28 0 -134 -25 q-4 -31 -4 -65 q0 -46 25 -65 q29 -21 104 -21 q71 0 98 21 q25 20 25 67 q-6 71 -43 80 q-40 8 -71 8 Z" /><glyph glyph-name="" unicode="&#x89e3;" d="M189 813 q42 -3 48 -45 q-1 -10 -6 -25 q24 6 37 8 l19 0 q58 0 105 -22 q49 -28 49 -82 q0 -41 -33 -104 q24 -5 49 -17 q53 -32 53 -133 q0 -97 -23 -440 q-8 -44 -57 -44 q-44 0 -44 52 q9 110 11 143 q-17 -4 -73 -11 l2 -171 l-97 0 q-1 60 -1 161 q-43 -5 -75 -5 q1 -95 8 -161 l-99 0 q-7 57 -7 267 l-1 286 q8 53 53 56 q20 -1 31 -15 q74 34 167 40 q31 56 31 75 q0 39 -54 39 q-54 -6 -96 -30 l-51 -103 l-87 37 q13 57 92 206 q16 35 49 38 ZM151 346 q37 1 73 6 q-2 46 -2 64 l-1 30 q-43 -14 -70 -29 l0 -71 ZM152 172 q39 2 75 6 q-2 56 -2 75 l0 5 q-24 -2 -74 -4 l1 -82 ZM316 462 q0 -19 3 -99 l42 6 q16 2 25 2 q13 0 22 -3 l0 20 q0 74 -90 74 l-2 0 ZM322 229 q0 -27 1 -39 l39 6 q18 2 25 2 q8 0 16 -2 l3 86 q-6 -3 -9 -3 q-17 -4 -76 -11 l1 -39 ZM730 792 q90 0 147 -39 q62 -48 62 -133 q-1 -62 -38 -132 q-17 -29 -49 -29 q-47 2 -48 49 q26 86 26 103 q0 77 -101 82 q-5 -17 -13 -33 q-36 -80 -60 -190 l-98 23 q30 113 55 180 q-50 -16 -110 -42 l-15 100 q128 56 242 61 ZM602 451 q42 -3 45 -46 q-1 -14 -8 -37 l63 4 q0 11 2 35 q9 57 60 63 q47 -3 51 -63 q-2 -16 -2 -32 l46 1 q79 0 79 -51 q-3 -40 -47 -43 l-83 0 l-3 -58 q-2 -36 -2 -53 l66 1 q82 0 82 -52 q-3 -42 -49 -45 l-102 -1 q-4 -108 -4 -163 l-108 0 q0 70 3 161 q-123 -5 -162 -13 l0 98 q45 8 165 12 q0 32 4 110 q-51 -3 -80 -6 l-12 -74 l-95 21 q33 184 45 203 q20 28 46 28 Z" /><glyph glyph-name="" unicode="&#x754c;" d="M238 790 q44 -5 53 -35 q100 25 185 29 l58 0 q134 0 185 -18 q93 -21 135 -84 q46 -52 46 -187 l0 -23 q0 -105 -47 -181 q-24 -40 -66 -62 q56 -22 146 -69 l-57 -101 q-68 34 -158 82 q8 -18 8 -37 q3 -8 12 -82 q10 -92 10 -107 l-109 0 q-3 77 -9 120 q-3 15 -8 58 q-3 12 -3 21 q0 51 51 51 q11 0 18 -3 q-12 17 -15 33 q-43 -6 -93 -6 l-105 0 q-82 0 -143 13 q-4 -28 -35 -46 q-2 -2 -6 -4 q43 -7 49 -66 q-2 -19 -5 -65 q-5 -58 -5 -110 l-113 0 q0 61 6 175 q1 14 6 25 q-48 -33 -91 -60 l-68 85 l122 86 q17 12 28 18 q-109 64 -109 211 l0 20 q0 137 70 274 q17 39 57 45 ZM551 678 q-7 -39 -20 -119 l86 -11 q48 -12 51 -48 q-1 -46 -59 -49 q-32 0 -90 2 q-5 -57 -5 -101 l-114 0 q0 56 5 106 q-99 6 -180 15 q3 -104 64 -140 q61 -38 263 -38 q83 0 138 14 q45 11 72 60 q22 28 25 117 q0 129 -64 169 q-36 20 -172 23 ZM418 569 q6 50 15 105 q-98 -9 -171 -35 q-13 -31 -21 -61 q95 -3 177 -9 Z" /><glyph glyph-name="" unicode="&#x4eca;" d="M512 648 q-179 -170 -370 -358 l-92 75 q215 240 429 420 q31 28 61 28 q48 -6 54 -54 q0 -7 -2 -15 q6 -4 9 -5 q144 -95 346 -300 l-91 -79 q-127 130 -187 178 q-66 51 -157 110 ZM573 313 q109 0 179 -39 q64 -55 64 -127 l0 -27 q-4 -79 -54 -189 q-17 -28 -63 -28 q-62 0 -62 58 q5 15 13 27 q34 47 41 112 q0 58 -28 86 q-40 18 -107 18 q-180 -3 -351 -69 l-25 108 q145 59 343 70 l50 0 ZM456 532 q41 0 210 -87 l-60 -105 l-174 90 q-31 23 -32 54 q4 45 56 48 Z" /><glyph glyph-name="" unicode="&#x8fdb;" d="M176 446 q53 -3 56 -54 q0 -19 -15 -85 q-14 -70 -14 -119 q0 -80 41 -115 q36 -37 125 -37 q233 0 533 45 l0 -112 q-281 -43 -519 -43 l-37 0 q-104 0 -179 52 q-81 66 -81 187 q0 103 29 228 q12 50 61 53 ZM139 704 q26 0 140 -87 l-64 -112 q-27 22 -104 89 q-31 24 -33 58 q6 49 61 52 ZM836 703 q77 -3 81 -53 q-3 -49 -56 -53 q-40 -2 -57 -2 l8 -115 q0 -22 3 -42 l53 1 q77 -3 81 -53 q-3 -48 -55 -52 q-52 -2 -73 -2 q8 -160 8 -205 l-111 0 l-6 202 l-158 -9 q-2 -128 -2 -195 l-110 0 q0 115 1 185 q-58 -7 -111 -9 l0 106 q42 7 113 13 q0 45 2 149 q-51 -7 -98 -9 l0 106 q42 9 100 15 q0 41 1 61 q9 58 61 64 q48 -3 52 -64 l-1 -51 l126 7 q-5 30 -5 63 q0 52 51 52 q57 -1 57 -61 q3 -17 5 -50 q27 0 40 1 ZM707 435 l-5 73 q-5 46 -6 83 l-136 -8 q-2 -44 -2 -68 q-2 -58 -2 -87 l151 7 Z" /><glyph glyph-name="" unicode="&#x5c3d;" d="M727 794 q74 0 116 -53 q40 -48 40 -152 q0 -123 -47 -167 q-30 -30 -71 -41 q58 -35 185 -133 l-56 -101 q-165 120 -231 170 q-28 21 -30 52 q0 3 1 3 q-218 3 -389 24 q-39 -221 -65 -470 l-115 26 q100 731 134 812 q25 34 55 34 q41 -3 52 -36 q186 29 421 32 ZM282 590 q-12 -56 -17 -84 q188 -25 421 -25 q43 0 63 23 q21 17 21 79 q0 60 -13 83 q-15 18 -48 18 q-156 0 -414 -36 l-13 -58 ZM385 114 q92 0 314 -82 l-40 -113 q-129 61 -305 82 q-42 12 -45 48 q3 62 76 65 ZM349 315 q86 0 284 -72 l-39 -110 q-113 53 -276 73 q-42 12 -43 47 q3 59 74 62 Z" /><glyph glyph-name="" unicode="&#x7ecf;" d="M357 117 q55 -5 59 -58 q-1 -40 -40 -58 q-74 -45 -280 -78 l-28 123 q135 16 242 59 q29 12 47 12 ZM248 270 q61 0 164 64 l0 -110 q-105 -63 -191 -63 q-60 0 -98 34 q-37 37 -37 88 q0 47 53 124 q19 26 37 44 q-33 7 -54 17 q-69 35 -69 94 q0 47 42 105 q49 64 123 113 q27 17 54 18 q57 -3 60 -40 q-1 -26 -20 -41 q-124 -124 -124 -152 q0 -15 68 -15 q17 0 27 2 q15 14 33 27 q30 24 59 27 q63 -3 66 -50 q0 -24 -26 -42 q-138 -115 -166 -159 q-30 -34 -30 -65 q0 -20 29 -20 ZM820 302 q88 0 88 -57 q-3 -44 -53 -48 l-109 -1 l1 -4 q-2 -23 -10 -73 q-4 -30 -6 -60 q73 4 111 7 l38 1 q56 -3 62 -55 q-3 -41 -48 -50 q-52 -5 -208 -12 q-117 -6 -248 -6 l0 105 q69 1 187 5 q2 42 13 138 q-94 -6 -129 -18 l0 106 q65 17 311 22 ZM684 766 q82 0 128 -22 q49 -35 49 -85 q0 -40 -28 -70 q-32 -32 -80 -72 q54 -26 196 -75 l-35 -107 q-163 59 -213 86 q-25 9 -37 24 q-117 -92 -160 -124 q-13 -11 -25 -14 q-60 0 -60 52 q0 32 26 55 q125 98 242 195 q34 28 34 38 q0 17 -45 17 q-89 -12 -160 -52 l-25 105 q90 46 193 49 Z" /><glyph glyph-name="" unicode="&#x5883;" d="M630 817 q32 -3 93 -70 q35 0 119 2 q82 0 82 -53 q-3 -42 -49 -45 l-26 0 q-5 -22 -24 -65 l49 1 q85 0 85 -55 q-3 -44 -51 -47 q-429 0 -531 -27 l0 101 q40 8 107 14 q-9 48 -9 62 l0 2 q-52 -6 -75 -13 l0 97 q55 13 179 20 q-7 11 -7 21 q3 52 58 55 ZM593 580 q77 2 114 4 q11 27 30 66 q-172 -6 -156 -5 l12 -65 ZM471 442 q23 0 34 -17 q54 9 144 19 l14 0 q24 0 114 -4 q60 -10 98 -37 q55 -27 55 -161 l0 -31 q0 -50 -16 -76 q-23 -43 -80 -61 q-16 -8 -41 -13 l-10 -47 q0 -17 20 -17 q15 0 140 35 l0 -89 q-120 -36 -166 -36 q-49 0 -77 28 q-19 27 -22 56 l9 59 q-8 -1 -23 -1 l-39 0 q-51 0 -80 5 q-3 -11 -10 -22 q-25 -52 -41 -121 l-106 23 q42 131 55 145 q2 3 7 8 q-8 6 -11 9 q-60 53 -60 136 l0 11 q0 61 29 147 q15 52 63 52 ZM646 346 q-82 -6 -151 -25 l-5 -21 q119 -3 213 -14 q42 -12 45 -43 q-1 -40 -52 -43 q-119 0 -206 9 q9 -26 30 -40 q43 -22 143 -22 q103 0 132 22 q26 12 29 77 q0 79 -40 91 q-73 9 -138 9 ZM264 560 q91 0 91 -59 q-2 -46 -54 -50 l-51 0 q1 -71 5 -238 q7 1 21 5 q12 3 23 3 q58 -3 64 -56 q-3 -44 -51 -53 q-27 -10 -123 -25 q-75 -13 -146 -13 l0 109 q58 3 103 10 q-6 135 -9 255 q-61 -3 -90 -10 l0 110 q29 5 87 8 q-2 37 -4 113 q3 72 54 78 q37 0 48 -26 q12 -21 12 -46 q0 -58 3 -115 l17 0 Z" /><glyph glyph-name="" unicode="&#x955c;" d="M207 813 q50 -3 56 -51 q-4 -28 -14 -59 q30 2 69 3 q99 0 99 -65 q-3 -50 -59 -53 q-101 0 -154 -6 l-31 -73 q51 6 146 9 q96 0 96 -62 q-3 -47 -57 -52 l-62 -1 q-2 -8 -2 -12 l-8 -75 l42 1 q99 0 99 -64 q-3 -49 -59 -54 l-91 -1 q-2 -33 -2 -91 q0 -40 11 -57 q7 -16 26 -16 q44 0 120 52 l0 -119 q-73 -51 -116 -51 l-20 0 q-61 0 -102 48 q-33 42 -33 131 q0 65 2 97 q-69 -6 -94 -16 l0 119 q30 9 102 15 q3 44 9 86 q-40 -6 -58 -12 l0 42 l-90 37 q14 74 118 306 q19 41 57 44 ZM659 817 q32 -3 93 -63 q30 0 98 2 q82 0 82 -52 q-3 -42 -49 -45 l-8 0 q-4 -21 -29 -76 l16 0 q85 0 85 -55 q-3 -44 -51 -47 q-364 0 -453 -23 l0 101 q32 6 90 12 q-8 43 -8 53 q0 8 4 20 q-33 -5 -62 -13 l0 98 q39 11 142 19 q-5 8 -5 16 q1 50 55 53 ZM729 580 q16 34 40 78 q-71 -1 -146 -5 q9 -15 12 -34 q2 -14 8 -42 l86 3 ZM537 426 q14 0 23 -6 q55 11 100 16 l10 0 q23 0 115 -4 q57 -8 98 -34 q55 -26 55 -150 l0 -30 q0 -58 -14 -86 q-21 -49 -72 -71 q-13 -6 -23 -9 l-11 -38 q0 -17 19 -17 q15 0 118 23 l0 -89 q-102 -24 -143 -24 q-47 0 -73 27 q-19 23 -22 54 l9 47 q-10 -1 -29 -1 l-35 0 q-27 0 -39 1 l-2 -4 q-24 -51 -43 -128 l-102 23 q28 93 47 134 q-17 7 -28 20 q-54 51 -54 133 l0 10 q0 63 34 152 q14 51 62 51 ZM653 339 q-49 -5 -89 -19 q-8 -26 -11 -43 q47 4 151 7 q75 0 75 -49 q-3 -38 -45 -41 q-118 0 -181 -6 q7 -23 23 -36 q38 -21 120 -21 q85 0 112 27 q22 17 25 96 q0 66 -41 77 q-78 8 -139 8 Z" /><glyph glyph-name="" unicode="&#x4e5d;" d="M689 676 q61 0 100 -36 q39 -42 39 -100 q0 -36 -16 -111 q-40 -183 -50 -273 q-12 -76 -12 -101 q0 -19 21 -19 q16 0 79 28 q31 11 41 11 q34 -3 37 -58 q-3 -37 -24 -52 q-66 -39 -149 -39 q-118 0 -118 131 q0 38 10 118 q21 141 64 332 l4 31 q0 29 -43 29 q-44 0 -244 -47 q-164 -417 -224 -609 l-113 57 q127 341 195 518 l-176 -44 l-12 109 q115 40 242 74 q33 84 52 123 q18 39 61 42 q48 -3 54 -52 q0 -12 -7 -37 q-9 -24 -18 -45 q117 20 207 20 Z" /><glyph glyph-name="" unicode="&#x5c31;" d="M260 815 q33 -3 99 -85 l-21 -21 q74 2 121 2 q88 0 88 -58 q-3 -44 -53 -48 q-345 0 -435 -16 l0 105 q48 7 166 12 q-7 7 -10 11 q-18 24 -18 39 q3 56 63 59 ZM152 559 q28 -2 40 -19 q38 10 96 13 l24 0 q43 0 86 -5 q40 -11 77 -42 q39 -42 39 -112 l0 -25 q0 -64 -36 -102 q-47 -50 -120 -59 l12 -57 q15 -2 25 -7 q59 -19 115 -22 l-24 -103 q-63 6 -107 22 q-3 -69 -25 -99 q-29 -35 -82 -35 q-54 0 -100 29 l17 86 q28 -25 55 -25 q8 1 15 5 q6 3 9 11 q5 17 5 62 q-3 59 -27 128 q-1 2 -1 4 q-67 3 -114 28 q-59 40 -59 115 l0 13 q0 85 23 151 q20 42 57 45 ZM303 456 q-65 0 -120 -23 q-5 -26 -5 -64 q0 -40 24 -52 q27 -14 70 -14 l27 0 q63 0 90 27 q19 21 19 51 q0 37 -23 55 q-21 17 -82 20 ZM152 180 q42 -3 48 -45 q-3 -32 -65 -158 l-87 37 q5 28 55 128 q16 35 49 38 ZM857 564 q92 0 92 -59 q-3 -46 -54 -50 l-179 -1 q-57 -240 -103 -547 l-106 23 q58 330 99 523 q-51 -1 -75 -3 l0 109 l98 3 q36 165 55 200 q21 32 50 32 q49 -3 52 -51 q-5 -61 -36 -155 l-7 -25 l114 1 ZM801 376 q49 -3 52 -49 q0 -12 -7 -42 q-43 -166 -43 -203 q0 -66 58 -66 q16 0 88 24 l0 -99 q-71 -25 -109 -26 l-17 0 q-51 0 -94 43 q-32 35 -32 94 q0 89 55 288 q15 36 49 36 ZM863 739 q10 0 22 -7 q26 -19 76 -77 l-59 -68 q-42 32 -76 69 q-14 22 -14 39 q3 41 51 44 Z" /><glyph glyph-name="" unicode="&#x636e;" d="M793 782 q75 0 115 -31 q37 -34 37 -116 q0 -88 -45 -124 q-37 -26 -94 -29 l1 -11 q-4 -30 -5 -43 q35 0 52 1 q87 0 87 -57 q-3 -44 -52 -48 l-96 -1 q-4 -48 -4 -72 q25 -2 38 -4 q35 -4 69 -35 q34 -26 34 -140 l0 -15 q0 -67 -50 -105 q-46 -39 -133 -39 l-17 0 q-102 0 -150 48 q-34 35 -34 105 q0 57 15 148 q12 41 52 44 q29 0 41 -18 l29 7 q0 34 3 73 q-116 -6 -172 -15 q-19 -191 -23 -380 l-105 0 q0 288 76 801 q9 57 58 63 q25 -1 37 -19 q79 9 236 12 ZM563 661 q-4 -22 -9 -61 q81 -10 195 -17 q52 0 74 9 q17 9 17 43 q0 45 -67 45 q-74 0 -210 -19 ZM539 497 q-4 -21 -10 -65 l-3 -22 q50 7 167 14 q2 32 4 47 q0 4 2 12 q-77 3 -160 14 ZM732 155 q-19 0 -79 -21 q-2 -16 -2 -45 q0 -41 15 -59 q17 -20 63 -20 q56 0 76 19 q19 17 19 56 q-5 57 -34 63 q-35 7 -58 7 ZM242 805 q45 0 48 -52 q4 -38 10 -112 l3 0 q80 -3 84 -54 q-3 -51 -58 -55 l-21 0 q6 -92 8 -133 q9 3 16 3 q50 -4 55 -54 q-2 -38 -37 -54 q-13 -10 -29 -18 q3 -94 3 -184 q-3 -173 -127 -177 q-66 0 -119 35 l-4 104 q50 -30 97 -30 q44 0 44 111 q0 26 -3 99 q-57 -17 -137 -31 l-25 114 q82 12 156 38 l-10 173 l-57 -4 q-40 -6 -77 -6 l0 110 q55 7 127 10 l-7 111 q0 53 60 56 Z" /><glyph glyph-name="" unicode="&#x5177;" d="M613 633 q78 0 78 -50 q-3 -40 -46 -43 q-233 0 -351 -10 q-2 -32 -2 -51 q95 7 323 10 q78 0 78 -51 q-3 -40 -47 -43 q-243 0 -357 -8 q0 -23 2 -63 q110 10 307 13 q78 0 78 -51 q-3 -40 -47 -43 q-226 0 -333 -11 q3 -34 6 -56 q138 5 400 10 q36 255 36 442 q0 70 -164 70 q-140 -3 -275 -53 l-1 -23 q91 8 315 11 ZM854 188 q78 -3 82 -53 q-3 -48 -56 -52 q-128 -2 -180 -2 q67 -26 186 -85 l-56 -97 q-129 63 -206 102 q-27 19 -28 49 q2 19 13 29 l-225 -7 q20 -15 22 -46 q-3 -34 -41 -55 q-205 -70 -213 -70 l-22 111 q88 33 151 54 q-108 -8 -205 -9 l0 106 l107 7 q-11 91 -11 259 l0 35 q0 134 13 255 q9 64 64 67 q32 -1 44 -29 q112 40 256 46 l46 0 q109 0 184 -27 q80 -33 80 -143 q0 -106 -36 -445 l31 0 Z" /><glyph glyph-name="" unicode="&#x51b3;" d="M604 707 q9 30 22 65 q23 40 66 41 q49 -6 52 -54 q0 -19 -13 -40 l-3 -7 q78 -5 128 -58 q54 -69 54 -157 l0 -33 q-9 -97 -28 -175 q67 -6 71 -54 q-3 -50 -57 -55 q-224 -3 -315 -8 q-36 -147 -56 -265 l-113 32 q22 100 53 226 q-58 -6 -111 -6 l0 109 q25 3 138 11 q47 191 81 319 q-80 -11 -151 -31 l-16 104 q89 26 198 36 ZM694 605 q-42 -136 -84 -311 l-2 -10 q106 2 156 4 q33 108 33 183 q0 82 -27 109 q-28 23 -76 25 ZM127 694 q12 -1 32 -5 q44 -22 157 -22 l-11 -124 q-118 0 -189 25 q-47 24 -50 73 q6 50 61 53 ZM268 244 q51 -5 56 -56 q-1 -39 -39 -57 q-53 -35 -210 -59 l-25 118 q101 12 181 45 q23 9 37 9 ZM697 92 q21 0 49 -10 q42 -22 178 -68 l-34 -103 q-144 53 -195 78 q-49 19 -49 58 q5 41 51 45 Z" /><glyph glyph-name="" unicode="&#x5f00;" d="M854 438 q80 -3 84 -55 q-3 -50 -58 -54 q-78 -2 -110 -2 q5 -352 5 -410 l-117 0 l-4 407 q-165 -5 -312 -16 q-33 -185 -57 -400 l-110 24 q33 232 55 366 q-74 -7 -160 -10 l0 109 q67 9 179 19 q27 165 45 232 q-69 -9 -134 -12 l0 102 q186 35 633 44 q74 -3 78 -51 q-3 -48 -54 -51 q-20 -1 -57 -1 l8 -242 l86 1 ZM646 675 q-124 -5 -235 -14 q-4 -52 -26 -139 q-12 -48 -21 -99 q154 7 288 11 l-4 163 q-2 29 -2 78 Z" /><glyph glyph-name="" unicode="&#x770b;" d="M820 790 q78 0 78 -51 q-3 -40 -46 -43 q-210 0 -360 -3 l3 -14 q0 -14 -6 -29 l288 6 q82 0 82 -54 q-3 -42 -48 -45 q-223 0 -378 -6 q-4 -8 -15 -26 q-9 -15 -13 -23 q181 11 453 16 q72 -3 76 -49 q-3 -45 -52 -48 q-333 -6 -538 -25 l-25 -44 q15 -4 24 -12 q113 34 209 38 l62 0 q102 0 144 -13 q73 -17 106 -62 q36 -36 36 -136 l0 -17 q0 -88 -45 -150 q-57 -84 -259 -84 l-85 0 q-118 0 -197 34 q-93 50 -93 166 l0 14 q0 29 2 45 q-46 -91 -55 -112 l-106 54 q130 238 146 265 q-72 -7 -138 -9 l0 97 q91 13 200 23 q20 36 30 52 q-134 -9 -191 -24 l0 99 q75 15 250 24 q18 29 29 44 q1 1 1 2 q-178 -6 -244 -18 l0 94 q147 20 675 24 ZM604 288 q-106 0 -200 -23 q137 -6 239 -18 q38 -10 41 -39 q-1 -37 -47 -39 q-186 3 -307 16 q-4 -26 -4 -33 q177 -4 303 -21 q38 -9 41 -39 q-1 -37 -47 -39 q-158 1 -280 14 q12 -23 31 -33 q47 -28 197 -28 q75 0 132 12 q41 9 68 48 q21 23 24 97 q0 84 -46 109 q-32 16 -145 16 Z" /><glyph glyph-name="" unicode="&#x53ef;" d="M857 782 q81 -3 84 -55 q-3 -50 -57 -55 l-55 -1 q11 -45 27 -138 q23 -135 23 -270 q0 -201 -48 -273 q-50 -83 -147 -83 q-102 0 -184 47 l22 112 q65 -42 124 -42 q34 2 59 15 q24 13 34 40 q23 49 23 203 q-4 175 -59 381 q-1 2 -1 7 q-253 -4 -399 -12 q-130 -10 -233 -11 l0 109 q227 20 787 26 ZM203 598 q28 0 44 -19 q55 10 88 11 l17 0 q43 0 96 -5 q59 -10 104 -56 q55 -63 55 -187 l0 -38 q0 -50 -9 -89 q-15 -52 -43 -80 q-31 -35 -85 -49 q-40 -12 -98 -15 l-29 0 q-104 0 -170 54 q-69 62 -69 170 l0 11 q0 83 42 236 q17 56 57 56 ZM342 481 q-35 0 -100 -14 q-25 -82 -25 -163 l0 -11 q0 -58 32 -83 q36 -30 89 -30 l27 0 q31 0 58 7 q25 6 40 25 q19 17 25 48 q6 27 6 54 l0 22 q0 85 -28 110 q-25 23 -68 31 q-40 4 -56 4 Z" /><glyph glyph-name="" unicode="&#x5ba2;" d="M463 817 q37 -3 109 -78 q25 2 77 4 l79 0 q100 0 160 -29 q58 -36 61 -110 q-1 -46 -26 -130 q-9 -40 -71 -40 q-40 0 -40 43 q17 55 24 110 q0 54 -137 54 q-172 -3 -321 -23 q20 -15 23 -42 l-3 -19 q108 32 214 39 q70 0 115 -20 q58 -34 58 -105 q0 -54 -75 -98 q203 -44 238 -57 l-26 -97 q-139 33 -350 77 q-78 -40 -161 -77 q56 12 140 22 l26 0 q64 0 115 -8 q74 -15 120 -47 q45 -36 45 -108 l0 -17 q0 -55 -24 -88 q-22 -38 -103 -50 q-60 -10 -160 -10 l-26 0 q-162 0 -222 15 q-78 24 -78 120 l0 13 q6 63 21 93 l-78 -33 q-18 -9 -46 -12 q-54 0 -57 71 q0 22 29 35 q150 53 292 114 l-90 17 q-3 0 -5 2 l-21 -43 l-98 41 q12 58 101 237 q6 12 17 25 q-54 -9 -124 -23 q5 -38 22 -127 l-113 -24 q-28 173 -32 222 q1 53 47 56 q37 0 54 -26 q109 25 254 41 q-15 20 -15 33 q3 54 61 57 ZM565 135 q-100 -3 -204 -36 q-4 -13 -4 -26 q0 -40 23 -46 q71 -9 155 -9 q103 0 138 2 q48 3 59 22 q8 12 12 24 q0 48 -55 60 q-52 9 -124 9 ZM566 403 q21 10 63 32 q40 20 43 29 q0 31 -86 31 q-90 -5 -208 -52 l188 -40 Z" /><glyph glyph-name="" unicode="&#x63a7;" d="M225 807 q44 0 47 -52 q4 -35 10 -114 l7 0 q80 -3 84 -54 q-3 -51 -58 -55 l-25 0 l7 -134 q16 4 21 4 q50 -4 55 -54 q-2 -38 -37 -54 q-17 -14 -35 -22 q3 -90 3 -178 q-3 -173 -122 -177 q-63 0 -115 35 l-4 104 q47 -30 92 -30 q39 0 39 111 q0 24 -3 93 q-50 -15 -116 -27 l-25 114 q75 12 135 34 l-9 176 q-20 -1 -41 -3 q-39 -6 -73 -6 l0 110 q33 5 108 10 l-6 113 q0 53 61 56 ZM618 807 q33 -3 98 -83 l48 3 l48 0 q62 0 100 -22 q35 -29 38 -87 q0 -32 -14 -93 q-9 -40 -67 -40 q27 -38 47 -68 l-77 -59 q-70 90 -123 137 q-20 14 -20 45 q3 41 45 45 q34 0 70 -34 q5 -4 15 -14 q8 33 11 63 q0 37 -50 37 q-152 -3 -296 -45 l18 -88 q21 27 44 52 q27 25 56 25 q42 0 45 -54 q0 -16 -16 -35 q-77 -99 -114 -163 l-93 66 l60 85 l-87 -17 q-29 164 -31 182 q3 50 47 53 q31 0 47 -19 q62 18 120 29 q-4 3 -6 6 q-19 23 -19 41 q3 49 56 52 ZM832 315 q85 0 85 -55 q-3 -43 -51 -46 l-122 -1 l1 -9 q2 -9 9 -90 l5 -65 q48 0 93 3 l40 1 q56 -3 62 -54 q-3 -41 -49 -51 q-36 -2 -217 -7 q-162 -4 -258 -4 l0 106 q109 0 209 3 l-10 145 q-2 7 -2 19 q-127 -6 -170 -16 l0 102 q78 14 375 19 Z" /><glyph glyph-name="" unicode="&#x2f1d;&#x53e3;" d="M195 766 q45 0 56 -43 q146 40 243 41 l33 0 q71 0 151 -8 q92 -18 162 -91 q86 -98 86 -300 l0 -62 q0 -75 -17 -134 q-24 -82 -72 -122 q-46 -50 -144 -78 q-67 -16 -164 -21 l-49 0 q-170 0 -283 78 q-115 90 -115 245 l0 21 q0 150 55 416 q15 58 58 58 ZM517 651 q-93 0 -281 -49 q-37 -160 -37 -313 l0 -21 q0 -105 70 -153 q81 -54 193 -54 l60 0 q68 0 127 14 q59 11 90 46 q44 32 56 91 q14 51 14 101 l0 43 q0 175 -54 223 q-48 51 -131 63 q-57 9 -107 9 Z" /><glyph glyph-name="" unicode="&#x5e93;" d="M479 809 q32 -3 95 -81 l275 5 q77 -3 81 -53 q-3 -49 -56 -52 q-346 -5 -521 -15 q-78 -6 -147 -9 q-9 -158 -13 -212 q-11 -216 -13 -477 l-110 0 q0 285 26 756 q9 58 60 64 q29 -2 41 -23 q95 6 231 12 q-10 16 -10 29 q3 53 61 56 ZM854 113 q74 -3 78 -51 q-3 -48 -54 -51 l-173 -3 q3 -69 3 -98 l-113 0 l-3 95 q-144 -6 -180 -9 q-80 -7 -185 -11 l0 102 q126 13 361 21 q-2 22 -4 67 l0 5 l-27 0 q-102 0 -158 31 q-61 37 -61 112 q2 44 12 87 q-68 -8 -109 -16 l0 94 q78 11 144 17 q8 18 29 60 q31 43 69 46 q46 -3 49 -52 q0 -19 -9 -43 q150 10 306 11 q79 0 79 -55 q-3 -36 -54 -39 q-234 0 -381 -12 q-8 -17 -11 -26 q-11 -27 -11 -53 q0 -31 24 -46 q30 -18 90 -18 l11 0 q-2 20 -2 28 q-4 23 -4 45 q0 53 53 53 q58 -2 58 -63 q2 -11 6 -50 q76 12 162 31 l0 -98 q-51 -19 -134 -31 q-12 -3 -21 -3 q0 -12 2 -36 l3 -44 l155 3 Z" /><glyph glyph-name="" unicode="&#x5feb;" d="M711 712 q76 0 125 -49 q45 -52 45 -121 l0 -18 q0 -58 -11 -163 q-12 -86 -16 -110 l15 0 q80 -3 84 -55 q-3 -50 -57 -55 q-202 -3 -319 -9 q-19 -112 -33 -221 l-114 25 q8 50 32 188 q-60 -4 -87 -4 l0 109 q46 5 106 9 q38 215 66 349 q-57 -11 -119 -34 l-26 108 q80 29 171 41 q12 49 22 70 q24 33 54 33 q52 -3 55 -54 q-1 -13 -5 -39 l12 0 ZM673 602 l-2 -8 q-43 -164 -75 -350 l143 5 q15 76 24 146 q8 82 8 126 q0 36 -20 58 q-25 23 -65 23 l-13 0 ZM153 676 q49 -3 52 -48 q0 -12 -7 -38 q-44 -150 -44 -184 q0 -62 58 -71 q15 204 37 420 q9 56 58 62 q47 -3 51 -62 q-6 -76 -31 -308 q-4 -33 -8 -99 l78 20 l0 -95 q-46 -15 -84 -24 q-10 -150 -13 -330 l-106 0 q0 148 11 316 l-9 0 q-61 0 -109 44 q-38 35 -38 98 q0 81 55 264 q15 35 49 35 ZM680 92 q20 0 50 -10 q51 -22 200 -66 l-35 -107 q-152 48 -217 76 q-51 21 -51 60 q5 42 53 47 Z" /><glyph glyph-name="" unicode="&#x6846;" d="M869 761 q88 0 88 -57 q-3 -44 -53 -48 q-251 0 -357 -16 q-38 -229 -38 -417 q0 -116 41 -154 q39 -45 151 -45 q113 0 248 34 l0 -109 q-115 -30 -241 -30 l-44 0 q-120 0 -185 59 q-76 69 -76 232 q0 69 2 104 l-45 -79 q-52 48 -69 65 q8 -310 8 -385 l-113 0 l-5 342 l-80 -71 l-70 88 l103 90 q25 22 43 31 q-1 10 -1 27 q-2 56 -2 80 q-97 -6 -125 -17 l0 109 q38 10 121 16 q-2 42 -2 61 q-3 48 -3 85 q0 53 53 53 q57 -1 57 -62 q2 -20 6 -133 l21 1 q92 0 92 -60 q-3 -46 -55 -49 l-54 0 q0 -38 3 -77 q27 -3 119 -79 q10 182 50 390 q9 44 55 50 q44 -4 50 -44 q99 11 307 15 ZM856 592 q82 0 82 -52 q-1 -42 -48 -45 l-103 -1 l6 -86 l41 1 q82 0 82 -53 q-3 -42 -49 -45 l-67 -1 q4 -62 7 -94 l49 1 q82 0 82 -52 q-1 -42 -48 -45 q-263 0 -326 -24 l0 98 q39 12 140 18 q-6 64 -8 94 q-80 -6 -109 -18 l0 97 q32 11 101 17 l-6 76 q0 8 1 12 q-78 -6 -108 -15 l0 98 q66 16 281 19 Z" /><glyph glyph-name="" unicode="&#x51b5;" d="M449 794 q31 0 43 -21 q65 17 117 19 l20 0 q48 0 111 -7 q67 -12 120 -68 q64 -73 64 -224 l0 -46 q0 -64 -12 -112 q-16 -68 -47 -102 q-28 -38 -81 -58 q11 -11 14 -34 q-1 -7 -8 -28 q-19 -51 -19 -64 q0 -15 9 -23 q10 -10 35 -10 q43 0 138 32 l0 -104 q-91 -31 -152 -33 q-67 0 -99 26 q-33 27 -36 74 q0 82 27 143 q-16 -3 -33 -3 l-35 0 q-37 0 -67 6 q4 -14 5 -21 q-4 -51 -108 -237 l-95 39 q11 48 98 204 q12 25 30 35 q-34 14 -67 40 q-83 76 -83 207 l0 15 q0 109 58 302 q15 53 53 53 ZM619 686 q-47 0 -136 -21 q-40 -119 -40 -228 l0 -15 q0 -84 45 -123 q53 -43 126 -43 l39 0 q40 0 74 11 q33 9 51 36 q25 27 33 73 q7 46 7 80 l0 29 q0 118 -37 152 q-31 34 -89 43 q-39 6 -73 6 ZM119 694 q14 -1 33 -5 q47 -22 164 -22 l-11 -124 q-122 0 -197 25 q-46 24 -49 73 q5 50 60 53 ZM268 244 q51 -5 56 -56 q-1 -39 -39 -57 q-53 -35 -210 -59 l-25 118 q101 12 181 45 q23 9 37 9 Z" /><glyph glyph-name="" unicode="&#x5566;" d="M117 719 q32 0 41 -29 q16 2 24 4 q41 -3 67 -9 q28 -13 47 -38 q28 -22 28 -301 l0 -48 q0 -162 -24 -198 q-27 -57 -107 -58 l-9 3 q-64 0 -88 25 q-23 14 -32 68 q-5 58 -5 216 q0 96 9 300 q12 60 49 65 ZM157 585 q-2 -14 -2 -21 q-3 -90 -3 -194 q0 -196 5 -209 q3 -14 30 -14 q33 0 37 18 q6 21 6 132 l0 43 q0 227 -18 242 q-21 7 -35 7 l-20 -4 ZM477 794 q42 0 45 -51 q4 -41 10 -131 q70 -6 70 -57 q-3 -44 -53 -48 l-11 0 l5 -101 l4 0 q50 -4 55 -54 q-1 -37 -38 -54 l-17 -11 q4 -136 4 -203 q-3 -173 -103 -177 q-53 0 -96 29 l-4 101 q37 -25 75 -25 q22 0 22 114 l-4 123 q-35 -11 -88 -19 l-26 114 q58 7 109 24 l-7 138 l-97 -3 l0 105 q20 2 92 4 l-6 127 q0 52 59 55 ZM739 801 q14 0 27 -8 q38 -27 96 -96 l-48 -56 l37 1 q91 0 91 -59 q-3 -46 -54 -50 q-211 0 -262 -9 l0 109 q29 4 132 7 q-36 30 -63 60 q-17 28 -17 48 q3 50 61 53 ZM663 419 q48 0 55 -51 q14 -140 28 -248 l-96 -20 q-27 251 -28 272 q1 44 41 47 ZM862 42 q83 -3 87 -57 q-3 -51 -59 -57 q-139 0 -210 -6 q-45 -1 -84 -3 l0 113 q43 5 162 8 q63 325 87 361 q20 27 46 27 q43 -3 46 -46 q-3 -31 -19 -74 q-35 -115 -61 -266 l5 0 Z" /><glyph glyph-name="" unicode="&#x6765;" d="M802 725 q77 -3 81 -53 q-3 -48 -56 -52 q-151 -3 -262 -6 l-3 -270 q97 3 287 7 q77 -3 81 -53 q-3 -48 -56 -52 q-177 -3 -312 -9 q-1 -104 -1 -322 l-114 0 q0 144 1 228 q-124 -92 -312 -226 l-68 85 q108 89 216 174 q36 29 68 48 l-52 -5 q-120 -15 -230 -18 l0 105 q138 21 378 33 q0 175 1 271 q-66 -3 -135 -8 q-108 -9 -205 -12 l0 106 q115 13 340 22 l0 24 q9 61 63 67 q50 -3 54 -67 l0 -21 q76 2 236 4 ZM203 567 q38 -3 53 -35 q22 -50 75 -115 l-97 -62 q-80 114 -80 158 q2 48 49 54 ZM788 577 q42 -6 48 -48 q-2 -26 -24 -53 q-43 -48 -101 -118 l-82 68 q51 72 104 125 q28 26 55 26 ZM647 167 q16 0 34 -8 q127 -70 260 -84 l-25 -111 q-169 21 -289 96 q-27 27 -27 66 q3 36 47 41 Z" /><glyph glyph-name="" unicode="&#x680f;" d="M508 797 q38 -3 53 -36 q23 -40 85 -99 l-89 -57 q81 6 149 8 q59 91 114 151 q28 26 55 26 q42 -6 48 -48 q-1 -26 -24 -53 q-19 -24 -55 -72 l16 0 q78 -3 81 -53 q-3 -49 -55 -53 q-223 -5 -335 -15 q-75 -10 -134 -11 l0 105 q58 8 128 14 q-86 101 -86 139 q2 48 49 54 ZM814 339 q88 0 88 -57 q-3 -44 -52 -48 q-315 0 -390 -21 l0 105 q77 18 354 21 ZM871 57 q80 -3 84 -54 q-3 -49 -58 -55 q-233 -3 -352 -15 q-61 -7 -141 -11 l0 110 q138 19 467 25 ZM307 599 q91 0 91 -59 q-3 -46 -54 -50 l-60 0 q0 -33 2 -113 q42 -18 123 -69 l-56 -100 q-33 21 -65 43 q3 -252 3 -336 l-113 0 q-2 232 -2 303 q-57 -52 -68 -61 l-69 88 q70 64 106 94 q17 15 30 24 q-1 18 -1 49 l-1 76 q-83 -3 -107 -7 l0 109 q29 3 106 6 l-1 61 q-1 32 -1 84 q0 53 53 53 q57 -1 57 -63 l2 -132 l25 0 Z" /><glyph glyph-name="" unicode="&#x89c8;" d="M156 750 q35 0 47 -25 q11 -22 11 -43 q5 -31 28 -191 l-102 -17 l-35 201 q3 69 51 75 ZM348 817 q60 -3 60 -65 l9 -130 q6 -132 6 -170 l-118 0 q-4 166 -5 186 l-5 92 q-2 12 -2 31 q0 56 55 56 ZM663 16 q84 0 217 29 l0 -102 q-124 -28 -223 -28 q-84 0 -121 26 q-37 30 -37 72 q0 71 30 119 q20 39 55 39 q52 0 55 -42 q0 -14 -14 -36 q-17 -34 -17 -51 q0 -14 13 -20 q12 -6 42 -6 ZM244 431 q36 -2 48 -34 q138 40 295 49 l53 0 q72 0 127 -40 q47 -42 48 -116 l0 -10 q-3 -80 -17 -138 q-18 -50 -71 -50 q-50 0 -50 57 q21 69 21 115 q-3 45 -18 69 q-25 18 -57 18 q-170 -4 -335 -57 q-2 -7 -4 -25 q-13 -84 -13 -163 l-114 0 q0 95 25 258 q9 61 62 67 ZM488 282 q45 -6 51 -51 q-1 -26 -24 -56 q-129 -140 -244 -276 l-88 71 q120 160 248 286 q28 26 57 26 ZM604 811 q52 -3 55 -55 q-2 -16 -7 -29 q93 4 199 5 q94 0 94 -61 q-3 -48 -56 -52 q-178 0 -276 -7 q-19 -60 -35 -145 l-114 26 q63 257 86 285 q24 33 54 33 ZM747 604 q25 0 52 -25 q29 -27 78 -102 l-86 -66 q-42 63 -72 93 q-23 17 -23 49 q5 45 51 51 Z" /><glyph glyph-name="" unicode="&#x61d2;" d="M121 676 q43 -3 46 -44 q0 -12 -5 -39 q-32 -151 -32 -190 q0 -51 32 -63 q7 153 28 419 q7 49 50 54 q38 -3 43 -54 q-12 -156 -23 -310 q-4 -49 -6 -98 l31 13 l0 -95 q-30 -14 -36 -16 q-10 -176 -11 -338 l-90 0 q0 134 9 320 q-51 0 -90 44 q-31 35 -31 98 q0 84 41 268 q16 31 44 31 ZM543 747 q85 0 85 -55 q-3 -44 -51 -47 l-78 -1 q0 -35 3 -79 q14 -2 22 -2 q41 -9 69 -34 q38 -24 38 -148 l0 -28 q0 -53 -10 -83 q-15 -46 -49 -67 q-21 -17 -58 -23 q0 -26 1 -38 q37 -13 125 -68 l-51 -89 q-51 34 -72 49 l2 -121 l-94 0 l-1 127 q-56 -64 -83 -98 l-70 58 q58 81 119 143 q14 14 31 19 l0 15 q-64 6 -88 46 q-36 53 -36 135 l0 12 q0 70 23 165 q12 42 51 42 q23 0 31 -20 q3 0 7 2 q-1 39 -3 82 q-73 -6 -99 -15 l0 101 q23 8 94 14 l0 26 q0 44 44 44 q48 -1 48 -52 q0 -8 1 -13 q32 0 49 1 ZM505 474 q0 -40 3 -82 q2 -81 4 -121 q12 6 18 18 q12 16 15 95 q0 77 -26 88 q-6 0 -14 2 ZM412 477 l-17 -5 q-12 -66 -12 -99 q0 -62 16 -87 q10 -11 20 -14 l-7 205 ZM812 552 q29 81 29 107 q0 25 -28 25 q-37 -3 -64 -18 q-28 -63 -50 -109 q27 -3 36 -28 q37 17 77 23 ZM730 364 q-8 -117 -8 -228 q38 214 55 251 q18 26 42 26 q39 -3 42 -42 q-3 -37 -17 -85 q-21 -79 -40 -183 l11 1 q26 0 132 -75 l-51 -89 l-101 78 q-4 2 -5 4 q-7 -42 -16 -109 l-87 19 q30 178 32 186 l-83 0 q0 138 15 388 q3 23 15 36 l-63 26 q11 54 90 216 q16 34 48 37 q40 -3 46 -43 q-2 -8 -2 -12 q14 2 19 4 l14 0 q43 0 78 -19 q39 -24 39 -73 q0 -45 -31 -132 q17 -10 25 -21 q28 -28 29 -151 l0 -17 q0 -96 -15 -203 q-10 -34 -47 -34 q-42 0 -42 40 q14 109 14 191 q0 78 -7 106 q-7 12 -17 12 q-54 -3 -109 -35 l-5 -70 Z" /><glyph glyph-name="" unicode="&#x96f7;" d="M172 337 q24 -3 34 -11 q145 34 266 38 l72 0 q131 0 182 -14 q92 -18 135 -66 q45 -39 45 -148 l0 -18 q0 -78 -49 -133 q-63 -75 -283 -75 l-109 0 q-155 0 -254 33 q-121 48 -121 161 l0 14 q0 90 26 175 q18 38 56 44 ZM505 261 l-8 -63 q60 2 92 2 q79 0 79 -55 q-3 -36 -55 -39 l-125 -1 q-2 -22 -2 -65 l-105 0 q0 38 2 61 l-69 -5 l-105 -10 q15 -34 59 -49 q64 -26 279 -26 q87 0 146 10 q48 6 78 36 q23 18 26 74 q0 88 -65 115 q-43 16 -199 16 l-28 -1 ZM395 256 q-96 -9 -183 -32 q-6 -26 -9 -46 q60 6 132 12 q36 2 54 4 l6 62 ZM822 802 q76 -3 80 -51 q-3 -47 -54 -52 q-34 -1 -96 -1 q10 -14 11 -33 l-3 -22 l15 0 q71 0 115 -26 q46 -33 49 -69 l0 -15 q-2 -41 -31 -115 q-12 -31 -64 -31 q-40 0 -40 38 q22 71 22 89 q0 32 -88 32 l-2 0 q-14 -60 -25 -143 l-107 23 l22 117 l-77 -5 q-6 -73 -6 -151 l-109 0 q0 67 4 142 q-42 -4 -78 -9 q12 -76 19 -114 l-105 -22 q-8 46 -19 122 l-66 -11 q5 -33 22 -112 l-113 -23 q-32 172 -35 202 q3 53 48 56 q39 0 54 -26 l76 12 q-5 32 -5 41 q0 18 8 31 q-72 -6 -139 -6 l0 103 q224 25 717 29 ZM647 641 q8 36 13 43 l10 12 q-53 -1 -110 -3 l1 -7 l-4 -49 q30 2 90 4 ZM323 681 q13 -15 18 -41 l3 -22 q34 4 99 10 q2 41 4 58 q0 2 1 3 l-125 -8 Z" /><glyph glyph-name="" unicode="&#x7c7b;" d="M231 765 q41 -3 56 -36 q17 -39 52 -88 q53 2 111 3 q-5 65 -5 72 q-3 23 -3 40 q0 55 55 55 q60 -1 60 -64 q3 -21 8 -100 q38 0 57 1 q54 83 76 108 q27 24 57 24 q42 0 45 -54 q0 -13 -12 -28 q-14 -19 -33 -49 l90 1 q74 -3 78 -51 q-3 -48 -54 -51 l-298 -3 q8 -150 8 -185 l-117 0 q-2 93 -4 135 q-90 -65 -269 -185 l-59 75 l199 153 q-5 -1 -14 -1 q-116 -8 -220 -9 l0 102 q48 3 111 6 q-25 49 -25 74 q1 49 50 55 ZM672 507 q34 0 187 -82 l-52 -92 l-158 85 q-25 19 -27 47 q4 39 50 42 ZM851 279 q57 -3 63 -56 q-3 -42 -50 -51 q-75 -6 -360 -19 q-46 -2 -68 -2 q-132 -158 -189 -252 l-101 71 q49 69 130 176 q-66 -2 -202 -2 l0 108 q149 1 290 6 q32 39 60 67 q28 25 60 25 q46 0 49 -57 q0 -11 -7 -29 q146 5 257 13 q48 2 68 2 ZM590 115 q56 0 306 -109 l-55 -99 l-275 112 q-28 21 -29 51 q4 42 53 45 Z" /><glyph glyph-name="" unicode="&#x2fa5;&#x91cc;" d="M199 794 q31 -2 43 -21 q101 22 247 25 l49 0 q82 0 151 -9 q68 -15 133 -63 q69 -60 69 -163 l0 -38 q0 -103 -63 -163 q-99 -100 -266 -100 l-25 0 q2 -38 4 -58 q71 3 188 11 q40 2 54 2 q55 -2 61 -52 q-3 -40 -47 -49 q-65 -6 -250 -15 q2 -42 4 -64 q128 4 247 12 q46 2 65 2 q57 -3 63 -54 q-3 -41 -49 -51 q-102 -7 -354 -17 q-219 -7 -421 -8 l0 105 q187 2 326 7 q-2 21 -4 63 q-132 -6 -272 -6 l0 102 q151 2 266 7 q-2 21 -4 65 q-133 6 -219 46 q-113 68 -113 193 l0 19 q0 123 58 226 q21 43 59 46 ZM511 696 l7 -110 l65 1 q85 0 85 -55 q-3 -44 -51 -47 l-94 0 q2 -41 8 -121 l6 0 q141 0 200 59 q44 46 44 115 q0 78 -55 116 q-54 36 -197 42 l-18 0 ZM408 366 q-2 25 -7 117 q-132 -3 -204 -9 q15 -57 65 -78 q63 -26 146 -30 ZM395 584 q-5 80 -5 105 q-79 -10 -134 -23 q-19 -7 -42 -11 q-14 -40 -19 -81 q62 5 200 10 Z" /><glyph glyph-name="" unicode="&#x5229;" d="M491 801 q59 -3 62 -56 q-3 -36 -41 -55 q-24 -5 -62 -15 l-56 -13 l1 -10 q-4 -71 -5 -110 l73 1 q95 0 95 -62 q-3 -47 -57 -52 l-117 0 q-2 -30 -2 -46 q-1 -36 -3 -69 q67 -32 199 -121 l-59 -104 l-144 93 q-4 -170 -4 -260 l-113 0 q0 170 5 332 q-40 -47 -136 -164 l-89 74 q81 115 167 204 q29 27 59 27 q2 0 3 -1 l1 34 q-151 -3 -192 -7 l0 113 q83 5 196 7 q2 64 4 94 q-160 -37 -174 -37 l-23 112 q345 88 412 91 ZM656 708 q58 -2 58 -63 q2 -16 13 -240 q9 -243 9 -315 l-113 0 q-3 224 -9 340 q-3 43 -8 167 q-2 22 -2 58 q0 53 52 53 ZM863 809 q45 0 48 -53 q30 -339 30 -668 q-3 -175 -142 -181 q-73 0 -135 31 l-4 105 q57 -27 112 -27 q60 0 60 115 q0 73 -29 622 q0 53 60 56 Z" /><glyph glyph-name="" unicode="&#x8fde;" d="M176 446 q53 -3 54 -52 q0 -18 -15 -86 q-14 -73 -14 -121 q0 -79 41 -111 q38 -36 127 -36 q240 0 533 41 l0 -112 q-274 -39 -519 -39 l-37 0 q-104 0 -177 52 q-81 63 -81 183 q0 104 29 230 q12 48 59 51 ZM139 704 q26 0 140 -87 l-64 -112 q-27 22 -104 89 q-31 24 -33 58 q6 49 61 52 ZM820 727 q80 -3 84 -55 q-3 -49 -57 -54 q-227 -3 -326 -7 q-18 -45 -18 -61 q0 -46 85 -52 q-2 14 -2 40 q0 51 51 51 q55 -2 55 -61 l2 -26 q63 8 167 24 l0 -97 q-99 -19 -163 -26 l3 -80 l134 0 q90 0 90 -59 q-3 -44 -54 -49 l-167 0 q3 -100 3 -138 l-109 0 q-2 102 -2 138 q-233 -2 -288 -4 l0 107 q61 2 286 4 q-1 11 -1 32 q-2 30 -2 42 l-15 0 q-83 0 -152 36 q-52 30 -52 81 q0 36 17 92 q-26 -2 -74 -2 l0 110 q47 3 116 6 l23 54 q20 44 62 44 q60 -3 63 -61 q0 -11 -10 -33 q79 2 251 4 Z" /><glyph glyph-name="" unicode="&#x94fe;" d="M178 813 q48 -3 52 -49 q-1 -22 -12 -63 q13 0 45 2 q94 0 94 -62 q-3 -48 -56 -52 q-62 0 -118 -4 l-27 -77 q34 4 108 7 q91 0 91 -59 q-2 -46 -54 -50 l-45 -1 q-3 -30 -7 -94 l26 1 q92 0 92 -59 q-3 -46 -55 -50 l-68 -1 q-2 -34 -2 -95 q0 -43 7 -60 q5 -18 17 -18 q35 0 94 28 l0 -113 q-59 -28 -90 -28 l-19 0 q-56 0 -92 48 q-30 42 -30 131 q0 68 1 101 q-52 -6 -71 -15 l0 110 q19 8 76 14 q4 62 7 92 q-26 -6 -34 -10 l0 37 l-81 34 q12 79 96 313 q18 39 55 42 ZM473 446 q49 -3 52 -50 q0 -14 -19 -87 q-18 -78 -18 -122 q0 -79 24 -114 q21 -37 73 -37 q160 0 358 44 l0 -108 q-183 -42 -344 -42 l-28 0 q-77 0 -132 52 q-60 63 -60 183 q0 101 37 231 q12 47 57 50 ZM427 683 q20 0 108 -61 l-59 -105 q-57 49 -74 65 q-29 21 -31 53 q4 45 56 48 ZM867 721 q71 -3 75 -49 q-3 -45 -51 -48 q-104 -1 -199 -5 q-14 -53 -14 -74 q0 -51 44 -61 q-1 6 -1 16 q-2 17 -2 47 q0 49 49 49 q53 -2 53 -57 q0 -8 3 -50 q41 6 95 18 l0 -81 q-56 -15 -92 -20 l3 -65 q0 -16 1 -22 l39 0 q85 0 85 -55 q-3 -44 -51 -47 l-70 0 q3 -96 3 -132 l-106 0 q-2 96 -2 132 q-144 -1 -189 -3 l0 101 q50 2 187 3 l-1 45 q-1 12 -1 33 l-9 0 q-59 0 -109 36 q-37 30 -37 82 q0 33 13 98 q-16 -2 -47 -2 l0 98 q30 3 72 6 q8 35 19 67 q17 36 50 36 q51 -3 52 -50 q0 -10 -7 -38 q-3 -6 -3 -11 l148 3 Z" /><glyph glyph-name="" unicode="&#x4e24;" d="M851 776 q77 -3 81 -53 q-3 -49 -56 -52 l-93 0 l2 -15 q-4 -30 -23 -77 q69 -15 112 -52 q62 -55 64 -140 l0 -34 q0 -72 -11 -162 q-10 -83 -47 -234 q-6 -42 -51 -42 q-59 0 -59 60 q31 127 46 220 q12 92 12 163 q0 69 -45 97 q-23 13 -66 23 q-38 -95 -68 -196 q44 -24 148 -100 l-56 -97 q-49 36 -122 93 q-15 -55 -38 -153 l-112 25 q75 274 129 434 q-82 -3 -167 -17 q-20 -60 -37 -128 q35 -17 111 -65 l-57 -100 q-70 49 -82 58 q-21 -90 -39 -186 l-115 25 q50 219 89 367 q-64 -18 -122 -40 q2 -41 11 -159 q16 -264 16 -320 l-115 0 q-6 236 -16 345 q-10 139 -13 171 q-4 29 -4 59 q0 54 53 54 q47 -2 56 -40 q74 29 167 49 q24 83 39 111 q-19 -1 -52 -1 q-156 -2 -221 -2 l0 105 q228 5 751 6 ZM635 590 q20 55 37 80 l-183 -1 l1 -11 q-3 -29 -19 -78 q72 8 110 10 l54 0 Z" /><glyph glyph-name="" unicode="&#x91cf;" d="M180 415 q38 -3 47 -32 q122 9 255 12 l38 0 q224 0 308 -26 q94 -24 94 -113 l0 -15 q0 -71 -51 -95 q-53 -23 -151 -24 l-157 0 l1 -26 l261 0 q55 -3 58 -37 q-3 -34 -39 -37 q-105 -1 -277 -1 l1 -28 q192 2 318 2 q60 -1 63 -41 q-3 -37 -43 -41 q-381 0 -608 -5 q-80 -2 -243 -4 l0 82 q144 4 397 6 q-1 10 -1 28 l-133 -1 q-72 -2 -209 -2 l0 74 l339 4 l-1 27 l-78 0 q-156 0 -210 24 q-61 27 -61 91 l0 20 q0 57 24 117 q23 38 58 41 ZM548 325 q3 -12 3 -24 l1 -7 l139 0 q52 -3 55 -36 q-3 -32 -37 -35 l-152 0 q0 -11 2 -31 l125 0 q90 0 112 22 q16 11 16 53 q0 26 -43 41 q-51 16 -221 17 ZM443 192 q-2 20 -2 31 q-56 -1 -141 -1 l-88 0 q3 -12 10 -20 q11 -10 27 -10 l194 0 ZM437 294 l0 17 q0 8 1 12 q-98 -3 -223 -13 q-4 -14 -4 -17 l226 1 ZM219 821 q30 -2 44 -20 q107 14 223 18 l35 0 q198 0 273 -29 q83 -27 83 -127 l0 -17 q0 -69 -51 -92 q-51 -23 -148 -24 l-319 0 q-132 0 -176 28 q-52 31 -52 105 l0 17 q0 49 28 98 q24 40 60 43 ZM527 745 q-142 -3 -276 -24 q-5 -10 -5 -15 q262 -4 380 -8 q32 -9 34 -33 q-1 -33 -40 -34 q-198 0 -371 5 q3 -15 7 -20 q11 -12 21 -12 l363 0 q88 0 108 20 q16 10 16 49 q0 33 -36 51 q-43 21 -201 21 ZM878 503 q60 -3 63 -41 q-3 -38 -43 -41 q-393 -1 -594 -3 q-83 -2 -238 -2 l0 82 q298 4 812 5 Z" /><glyph glyph-name="" unicode="&#x4e86;" d="M586 782 q122 0 187 -38 q63 -33 63 -96 q0 -35 -29 -72 q-49 -58 -229 -177 q44 -61 68 -113 q34 -79 34 -164 q0 -106 -44 -155 q-58 -56 -144 -56 q-135 0 -222 49 l-13 113 q123 -49 215 -49 q42 0 66 24 q28 25 28 81 q0 53 -22 110 q-25 53 -105 142 q-17 25 -17 51 q6 47 57 53 q5 0 13 -2 q113 65 198 135 q25 17 25 29 q0 33 -146 33 q-182 -9 -452 -63 l-23 101 q196 50 492 64 Z" /><glyph glyph-name="" unicode="&#x4e34;" d="M152 643 q46 -3 52 -62 l-16 -137 q-13 -107 -16 -236 l-106 0 q0 138 29 373 q9 56 57 62 ZM344 798 q48 -3 52 -65 q-8 -74 -40 -301 q-30 -246 -36 -517 l-109 0 q0 290 72 818 q9 59 61 65 ZM575 811 q54 -3 57 -56 q-3 -31 -24 -76 l-5 -15 q69 5 249 8 q94 0 94 -62 q-3 -48 -56 -52 q-227 0 -323 -9 q-25 -86 -46 -199 l-119 27 q87 361 117 400 q25 34 56 34 ZM717 533 q28 0 55 -27 q32 -26 84 -107 l-85 -66 q-47 64 -83 99 q-22 18 -22 50 q5 45 51 51 ZM617 209 q-57 -9 -111 -24 q-8 -40 -8 -79 q0 -61 28 -68 q38 -6 78 -9 q4 90 11 169 q0 3 2 11 ZM516 290 q71 17 151 25 l23 0 q59 0 102 -9 q61 -15 104 -52 q40 -42 40 -123 l0 -18 q0 -67 -16 -112 q-15 -49 -66 -64 q-36 -15 -103 -15 l-29 0 q-173 0 -241 19 q-85 27 -85 143 l0 20 q6 127 28 175 q15 29 49 32 q33 0 43 -21 ZM717 24 q49 0 77 3 q27 8 33 43 q3 14 7 47 q0 67 -48 83 q-30 9 -63 12 q0 -6 2 -14 q-1 -14 -9 -82 q-6 -45 -6 -92 l7 0 Z" /><glyph glyph-name="" unicode="&#x73b2;" d="M287 697 q92 0 92 -60 q-3 -46 -55 -49 l-58 0 q-1 -49 -6 -168 q88 -3 88 -60 q-3 -46 -55 -50 l-37 0 q-3 -93 -3 -190 q14 4 22 7 q27 9 45 9 q50 -4 55 -53 q-1 -37 -37 -55 q-68 -37 -263 -64 l-25 115 q47 4 96 14 q0 94 3 215 q-41 -2 -71 -7 l0 110 q21 3 74 6 q0 50 4 170 l-90 -4 l0 109 q57 4 221 5 ZM670 819 q44 -6 50 -50 q-1 -16 -11 -35 q149 -67 250 -126 l-53 -107 q-119 78 -263 144 q-4 2 -8 5 q-102 -108 -210 -228 l-85 71 q137 171 273 300 q29 26 57 26 ZM789 427 q46 0 78 -26 q36 -31 36 -78 q0 -50 -32 -94 q-57 -93 -137 -161 q67 -43 63 -41 l-65 -112 q-127 81 -214 139 q-32 24 -34 58 q6 49 61 52 q24 0 89 -35 q3 4 9 10 q82 70 122 123 q13 11 13 39 q0 17 -15 17 q-100 0 -290 -64 l-26 105 q104 36 205 54 q-28 24 -51 51 q-21 30 -21 49 q3 52 58 55 q39 -3 115 -112 l-35 -34 q49 4 71 5 Z" /><glyph glyph-name="" unicode="&#x4ee4;" d="M493 805 q48 -6 54 -53 q0 -2 -1 -4 q17 -6 44 -12 q306 -79 340 -95 l-31 -113 q-178 52 -403 104 q-19 5 -30 12 q-195 -174 -311 -281 l-92 75 q186 195 370 339 q31 28 60 28 ZM496 590 q45 -1 133 -106 l-76 -73 q-54 32 -95 73 q-24 27 -24 48 q3 57 62 58 ZM635 408 q99 0 153 -30 q65 -32 65 -104 q0 -58 -42 -96 q-63 -58 -181 -122 l58 -38 l-62 -110 q-195 121 -235 147 q-32 24 -34 57 q6 48 60 51 q25 0 102 -40 q110 54 192 126 q15 11 15 20 q0 28 -108 28 q-205 -20 -428 -103 l-25 117 q295 92 470 97 Z" /><glyph glyph-name="" unicode="&#x7559;" d="M188 372 q36 0 48 -29 q147 31 248 33 l33 0 q64 0 142 -5 q87 -9 153 -45 q83 -50 83 -151 l0 -30 q0 -47 -16 -87 q-23 -51 -67 -78 q-43 -32 -134 -50 q-72 -10 -153 -13 l-46 0 q-166 0 -271 54 q-110 62 -110 172 l0 8 q0 62 35 166 q15 55 55 55 ZM523 278 q2 -12 2 -16 q-2 -19 -5 -62 q102 -6 124 -6 q42 -12 42 -51 q-4 -43 -53 -45 q-47 0 -119 4 q-2 -19 -2 -56 l-110 0 q0 38 1 61 q-30 1 -193 10 q10 -46 64 -70 q80 -33 187 -33 l59 0 q65 0 118 8 q55 6 83 26 q42 18 51 50 q13 31 13 57 l0 16 q0 63 -51 81 q-42 17 -124 23 q-46 3 -87 3 ZM408 205 q2 38 4 57 q0 4 2 8 q-92 -14 -195 -38 q-4 -14 -4 -19 l193 -8 ZM445 799 q61 -3 61 -44 q0 -42 -46 -56 q-133 -24 -223 -42 q-30 -105 -30 -127 q0 -19 10 -28 q10 -11 37 -11 q38 0 103 16 l-24 29 q-21 17 -21 47 q4 41 47 47 q34 0 64 -38 q40 -43 97 -149 l-81 -62 l-25 43 q-105 -31 -174 -31 q-71 0 -103 26 q-36 27 -39 72 q0 144 49 257 q17 34 54 34 q28 0 41 -15 q157 31 203 32 ZM769 805 q63 0 107 -50 q42 -61 42 -139 l0 -28 q-12 -93 -43 -168 q-19 -40 -68 -40 q-45 0 -45 57 q43 92 43 153 q0 72 -17 95 q-18 23 -51 23 l-4 0 q-5 -67 -112 -301 l-95 39 q12 65 93 247 q-38 -10 -81 -26 l-15 96 q93 36 214 42 l32 0 Z" /><glyph glyph-name="" unicode="&#x9732;" d="M856 796 q67 -3 70 -45 q-3 -42 -48 -45 q-39 -1 -111 -1 l2 -12 q-1 -11 -6 -25 q65 -4 107 -18 q57 -24 60 -73 q-1 -27 -23 -76 q-9 -36 -63 -36 q-37 0 -37 39 q15 27 21 57 q0 18 -94 21 q-15 -49 -24 -101 l-96 22 q4 18 20 78 q-33 0 -93 -2 q-6 -54 -6 -110 l-101 0 q0 50 4 105 l-68 -5 q4 -24 14 -72 l-97 -16 q-13 59 -16 80 q-61 -7 -80 -8 q5 -38 12 -73 l-104 -21 q-17 110 -23 163 q2 49 45 50 q41 0 54 -33 q48 6 77 8 q-3 8 -3 14 q0 23 8 39 q-91 -3 -175 -3 l0 90 q236 6 774 9 ZM660 669 q8 27 13 36 q-43 -1 -120 -1 l1 -10 q0 -8 -3 -28 l109 3 ZM344 702 q8 -19 8 -35 q0 -5 2 -11 l91 6 l3 32 q0 3 2 9 q-40 -1 -106 -1 ZM148 458 q19 0 28 -12 q42 9 80 14 l8 0 q32 0 80 -3 q40 -7 68 -26 q39 -18 39 -108 l0 -22 q0 -38 -11 -55 q-15 -32 -56 -46 q-30 -13 -74 -16 q2 -12 2 -17 l0 -8 q62 -4 92 -7 q42 -12 45 -43 q-1 -40 -52 -43 q-44 0 -80 3 q2 -42 4 -61 q67 8 132 25 l0 -90 q-137 -32 -242 -32 l-26 0 q-40 0 -80 37 q-31 32 -31 89 q0 36 1 68 q6 49 50 52 q43 -3 46 -50 l-1 -18 q-2 -18 -2 -37 q0 -51 48 -51 l7 0 q-8 73 -13 160 q0 12 3 22 q-67 3 -94 33 q-39 39 -39 99 l0 7 q0 37 15 92 q12 44 53 44 ZM248 370 q-35 -3 -75 -13 q-3 -16 -3 -26 q0 -34 18 -46 q23 -13 75 -13 q61 0 81 14 q14 8 17 48 q0 28 -25 33 q-48 3 -88 3 ZM619 494 q33 0 39 -37 q40 7 70 7 q77 0 121 -19 q46 -29 46 -72 q0 -31 -30 -51 q-32 -23 -71 -46 q69 -24 162 -54 l-30 -91 q-142 46 -238 83 q-41 -24 -120 -67 q8 -2 11 -4 q65 19 125 20 q53 0 103 -5 q40 -3 76 -27 q39 -19 39 -109 l0 -12 q0 -45 -53 -71 q-50 -26 -140 -26 l-20 0 q-120 0 -177 34 q-40 24 -40 73 q0 36 16 91 q0 2 2 6 q-6 -3 -11 -3 q-51 0 -51 45 q0 28 24 47 q74 36 111 56 q-16 15 -16 35 q3 35 45 40 q21 0 43 -9 q24 -11 31 -13 l49 26 q38 20 38 27 q0 13 -52 13 q-76 -10 -139 -42 q-20 -26 -41 -59 l-83 59 q76 98 111 133 q25 22 50 22 ZM699 81 q-24 0 -116 -28 q-1 -6 -1 -13 q0 -25 25 -34 q31 -11 107 -11 q66 0 94 10 q24 8 24 29 q-6 37 -50 43 q-60 4 -83 4 Z" /><glyph glyph-name="" unicode="&#x5f55;" d="M599 788 q66 0 114 -45 q41 -44 43 -129 l0 -11 q-4 -76 -26 -141 l110 0 q74 -3 78 -51 q-3 -48 -54 -51 q-180 -1 -315 -3 q6 -12 8 -18 q5 -14 20 -88 q13 -75 13 -139 q0 -111 -29 -152 q-32 -47 -92 -47 q-62 0 -114 25 l21 101 q30 -21 60 -21 q10 0 20 7 q9 6 13 17 q8 22 8 89 q-3 84 -36 183 q-2 5 -2 13 q0 18 7 28 q-81 -1 -141 -3 q-130 -5 -223 -5 l0 102 q174 7 521 12 q32 76 32 127 q-1 51 -14 81 q-18 21 -40 21 q-172 -3 -334 -45 l-22 97 q139 38 327 46 l47 0 ZM520 620 q82 0 82 -53 q-3 -42 -49 -45 q-229 0 -287 -16 l0 98 q59 13 254 16 ZM831 313 q55 -3 58 -53 q-3 -33 -38 -49 q-189 -52 -201 -52 l-21 102 q169 50 202 52 ZM675 139 q16 0 32 -8 q104 -58 213 -70 l-24 -107 q-140 19 -241 84 q-26 25 -26 62 q5 35 46 39 ZM116 299 q20 0 99 -9 q68 -9 106 -13 q46 -12 46 -56 q-6 -49 -57 -49 q-39 0 -203 24 l9 103 ZM315 139 q64 -3 64 -47 q0 -43 -48 -57 q-115 -34 -221 -72 l-32 105 q183 68 237 71 Z" /><glyph glyph-name="" unicode="&#x7565;" d="M148 696 q26 0 34 -26 q20 6 62 14 q80 0 106 -17 q39 -18 63 -77 q9 -18 19 -58 q103 188 148 244 q27 24 59 24 q44 0 47 -55 l-1 -10 q51 13 104 19 q64 0 103 -31 q42 -36 42 -111 q0 -39 -46 -91 q-26 -29 -65 -64 q32 -16 142 -76 l-56 -97 l-186 90 q-62 -50 -123 -95 q18 -6 26 -20 q50 17 107 20 q55 0 97 -6 q37 -5 71 -34 q37 -25 37 -134 l0 -15 q0 -80 -50 -125 q-48 -45 -136 -45 l-21 0 q-124 0 -182 46 q-41 35 -41 103 q0 61 16 150 q-17 -16 -33 -16 q-46 0 -52 37 q-9 -73 -30 -114 q-56 -110 -176 -110 q-99 0 -143 59 q-43 59 -43 177 q0 202 36 392 q15 50 65 52 ZM728 173 q-27 0 -108 -30 q-3 -27 -3 -51 q0 -35 22 -50 q26 -17 94 -17 q57 0 77 23 q19 22 19 71 q-4 44 -38 50 q-44 4 -63 4 ZM443 287 q9 16 27 31 q79 56 148 108 q-15 8 -44 22 l-43 21 q-16 -28 -23 -45 l-68 48 q4 -62 5 -107 q0 -32 -2 -78 ZM585 562 q51 -15 137 -55 q48 39 62 55 q28 25 28 45 q0 49 -37 49 q-79 -9 -161 -46 q-19 -30 -29 -48 ZM293 447 q-2 -20 -2 -27 q38 -12 41 -44 q-1 -41 -47 -46 q-5 -77 -5 -138 l-92 0 q0 70 4 143 q-18 1 -41 5 q-3 -46 -3 -84 q0 -80 15 -107 q16 -31 59 -31 q69 0 96 55 q26 58 26 172 q0 196 -24 209 q-7 9 -15 15 l-12 -122 ZM199 439 q2 31 11 137 q-21 -6 -36 -12 q-9 -68 -15 -121 q14 -2 40 -4 Z" /><glyph glyph-name="" unicode="&#x2fc7;&#x9ebb;" d="M454 467 q85 0 85 -54 q-3 -44 -51 -47 l-43 0 l-3 -76 l7 -3 q50 -28 99 -31 l-24 -103 q-49 6 -86 24 q-4 -166 -4 -256 l-106 0 q0 95 3 227 l-67 -104 l-74 60 q57 102 109 169 q18 17 36 21 q0 23 2 69 q-85 -6 -114 -15 l0 102 q29 8 118 13 q0 21 2 63 q9 57 57 63 q46 -3 52 -63 l-2 -59 l4 0 ZM853 465 q85 0 85 -54 q-3 -44 -51 -47 l-83 0 q-2 -36 -2 -55 q-3 -42 -3 -82 l11 -4 q71 -58 147 -70 l-23 -103 q-80 15 -138 55 q-2 -64 -2 -192 l-109 0 q0 151 2 246 q-68 -105 -101 -171 l-90 63 q115 201 169 269 q10 10 26 17 l1 24 q-89 -3 -125 -11 l0 102 q32 5 128 10 q0 24 2 78 q9 58 61 64 q47 -3 53 -64 q0 -22 -3 -76 l45 1 ZM479 809 q32 -3 95 -81 l275 5 q77 -3 81 -53 q-3 -49 -56 -52 q-346 -5 -521 -15 q-78 -6 -147 -9 q-9 -158 -13 -212 q-11 -216 -13 -477 l-110 0 q0 285 26 756 q9 58 60 64 q29 -2 41 -23 q95 6 231 12 q-10 16 -10 29 q3 53 61 56 Z" /><glyph glyph-name="" unicode="&#x7801;" d="M354 736 q91 0 91 -60 q-3 -46 -54 -49 l-82 0 q-8 -23 -17 -38 q-74 -126 -116 -217 q6 -6 9 -12 q21 5 42 6 q38 0 78 -7 q32 -6 58 -40 q31 -29 31 -159 l0 -18 q0 -75 -41 -116 q-40 -43 -108 -43 l-15 0 q-95 0 -136 56 q-32 38 -32 121 q0 67 24 178 q1 4 5 12 l-37 26 q78 165 126 249 q-94 -3 -121 -7 l0 109 q63 6 295 9 ZM221 260 q-11 0 -44 -14 q-5 -27 -5 -63 q0 -52 11 -71 q10 -23 44 -23 q34 0 45 20 q12 18 12 62 q-3 72 -23 81 q-24 8 -40 8 ZM702 782 q89 0 132 -33 q48 -39 51 -114 l0 -35 q0 -68 -13 -140 q-13 -36 -62 -36 q-51 0 -51 50 q12 75 12 128 q0 51 -29 69 q-29 13 -77 13 q-96 -3 -185 -40 l-22 96 q93 36 214 42 l30 0 ZM794 394 q63 0 108 -39 q49 -47 49 -136 q0 -60 -43 -300 l-122 12 q48 245 48 279 q0 79 -66 79 q-38 0 -98 -15 q-63 -15 -81 -15 q-105 0 -105 94 q0 30 8 75 q14 92 30 164 q23 41 59 44 q56 -3 59 -51 q0 -8 -4 -26 q-13 -56 -31 -149 q-3 -24 -3 -29 q0 -16 16 -16 q8 0 74 15 q70 14 102 14 ZM711 163 q80 -3 84 -55 q-3 -51 -58 -55 q-122 -3 -208 -10 q-38 -5 -83 -7 l0 109 q81 15 265 18 Z" /></font>
</defs>
</svg>
